<svg xmlns="http://www.w3.org/2000/svg" xmlns:xlink="http://www.w3.org/1999/xlink" xmlns:lucid="lucid" width="1141.02" height="1178.48"><g transform="translate(0 0)" lucid:page-tab-id="KPv6cQfEfl9~"><path d="M497.4 94.5H1120v623.92H497.4z" stroke="#232f3e" stroke-width="2" fill="#fff" fill-opacity="0"/><path d="M497.4 94.5h56v56h-56v-56z" stroke="#fff" stroke-opacity="0" fill="#232f3e"/><path d="M538.27 135.72h-25c-4.13.05-7.57-3.1-7.9-7.2v-.64c-.15-3.4 1.97-6.38 5.25-7.36v-.66c.12-4.22 2.44-7.75 6.24-9.57 4.12-1.86 8.73-.96 11.8 2.3 1.1 1.1 1.85 2.2 2.45 3.6 1.2-1 2.73-1.32 4.25-.9 2.24.8 3.68 2.74 3.76 5.1 3.7.65 6.33 3.8 6.3 7.56 0 7.07-7.05 7.73-7.13 7.76zm-26.7-13.88c-2.83.6-4.75 3.14-4.6 6.04v.53c.3 3.33 3.1 5.84 6.4 5.76h24.98c3.04-.3 5.4-2.64 5.68-5.7.28-3.43-2.24-6.5-5.68-6.78-.44-.05-.72-.44-.64-.87.1-1.83-1-3.44-2.7-4.13-1.33-.37-2.65.13-3.45 1.24-.2.25-.44.38-.76.33-.3-.05-.5-.24-.6-.5-.6-1.6-1.4-2.85-2.6-4.04-2.7-2.8-6.62-3.6-10.14-2-3.24 1.6-5.2 4.63-5.32 8.24-.04.4-.04.74 0 1.14.04.4-.2.76-.6.84z" stroke="#fff" stroke-opacity="0" fill="#fff"/><use xlink:href="#a" transform="matrix(1,0,0,1,568.389903576006,114.50000000000011) translate(0 14.4)"/><use xlink:href="#b" transform="matrix(1,0,0,1,568.389903576006,114.50000000000011) translate(94.80000000000001 14.4)"/><use xlink:href="#c" transform="matrix(1,0,0,1,568.389903576006,114.50000000000011) translate(132.75 14.4)"/><path d="M843.55 560h94.17v94.17h-94.17V560z" stroke="#fff" stroke-opacity="0" fill="#693cc5"/><path d="M890.63 590.46c-3.3 0-5.96-2.67-5.96-5.96 0-3.3 2.67-5.97 5.96-5.97 3.3 0 5.97 2.68 5.97 5.97 0 3.3-2.67 5.96-5.97 5.96zm0-9.4c-1.9 0-3.44 1.54-3.44 3.45 0 1.92 1.53 3.47 3.43 3.47 1.9 0 3.45-1.55 3.45-3.46 0-1.9-1.54-3.44-3.45-3.44zM913.2 613.05c-3.28 0-5.95-2.67-5.95-5.96 0-3.3 2.67-5.98 5.96-5.98 3.3 0 5.98 2.67 5.98 5.97 0 3.28-2.68 5.95-5.97 5.95zm0-9.4c-1.9 0-3.44 1.53-3.44 3.44 0 1.9 1.54 3.43 3.45 3.43 1.92 0 3.46-1.53 3.46-3.44 0-1.92-1.54-3.46-3.45-3.46zM890.63 635.63c-3.3 0-5.96-2.67-5.96-5.97s2.67-5.96 5.96-5.96c3.3 0 5.97 2.67 5.97 5.96 0 3.3-2.67 5.97-5.97 5.97zm0-9.4c-1.92 0-3.46 1.55-3.44 3.46 0 1.9 1.54 3.44 3.45 3.44 1.9-.02 3.44-1.57 3.43-3.48 0-1.9-1.54-3.43-3.45-3.43zM868.06 613.05c-3.3 0-5.97-2.66-5.98-5.95 0-3.3 2.66-5.97 5.95-5.98 3.3 0 5.97 2.66 5.98 5.96 0 3.3-2.65 5.96-5.94 5.97zm0-9.4h-.02c-1.9 0-3.44 1.53-3.44 3.44 0 1.9 1.54 3.43 3.44 3.43s3.45-1.53 3.45-3.44c0-1.92-1.53-3.46-3.44-3.46z" stroke="#fff" stroke-opacity="0" fill="#fff"/><path d="M890.63 637.5c-16.8 0-30.42-13.62-30.42-30.4 0-16.8 13.64-30.44 30.43-30.44 16.8 0 30.43 13.63 30.43 30.43 0 16.78-13.63 30.4-30.43 30.4zm0-58.34c-15.4 0-27.93 12.53-27.93 27.93 0 15.38 12.54 27.92 27.93 27.92 15.4 0 27.93-12.54 27.93-27.93-.06-15.4-12.53-27.88-27.93-27.94z" stroke="#fff" stroke-opacity="0" fill="#fff"/><path d="M890.63 615.8c-4.8 0-8.7-3.9-8.7-8.7 0-4.82 3.9-8.7 8.7-8.7 4.8 0 8.7 3.88 8.7 8.7 0 4.8-3.9 8.7-8.7 8.7zm0-14.9c-3.4 0-6.2 2.78-6.2 6.2 0 3.4 2.8 6.18 6.2 6.18 3.42 0 6.2-2.78 6.2-6.2 0-3.4-2.78-6.2-6.2-6.2z" stroke="#fff" stroke-opacity="0" fill="#fff"/><path d="M872.75 605.83h10.43v2.5h-10.43v-2.5zM898.08 605.83h10.42v2.5h-10.42v-2.5zM889.38 614.53h2.5v10.43h-2.5v-10.43zM889.38 589.2h2.5v10.43h-2.5V589.2z" stroke="#fff" stroke-opacity="0" fill="#fff"/><use xlink:href="#d" transform="matrix(1,0,0,1,813.5468908705506,663.1744510125593) translate(27.75 14.4)"/><use xlink:href="#e" transform="matrix(1,0,0,1,813.5468908705506,663.1744510125593) translate(73.05 14.4)"/><use xlink:href="#f" transform="matrix(1,0,0,1,813.5468908705506,663.1744510125593) translate(42.025 36)"/><path d="M80 20h362.9v499.75H80z" stroke="#232f3e" stroke-width="2" fill="#fff" fill-opacity="0"/><path d="M80 20h56v56H80V20z" stroke="#fff" stroke-opacity="0" fill="#232f3e"/><path d="M120.88 61.22h-25c-4.13.05-7.57-3.1-7.9-7.2v-.64c-.15-3.4 1.97-6.38 5.25-7.36v-.66c.12-4.22 2.44-7.75 6.24-9.57 4.12-1.86 8.73-.96 11.8 2.3 1.1 1.1 1.85 2.2 2.45 3.6 1.2-1 2.72-1.32 4.24-.9 2.24.8 3.68 2.74 3.76 5.1 3.68.65 6.32 3.8 6.28 7.56 0 7.07-7.04 7.73-7.12 7.76zm-26.7-13.88c-2.83.6-4.75 3.14-4.6 6.04v.53c.3 3.33 3.1 5.84 6.4 5.76h24.98c3.04-.3 5.4-2.64 5.68-5.7.28-3.43-2.24-6.5-5.68-6.78-.44-.05-.72-.44-.64-.87.08-1.83-1-3.44-2.72-4.13-1.32-.37-2.64.13-3.44 1.24-.2.25-.44.38-.76.33-.28-.05-.48-.24-.6-.5-.6-1.6-1.4-2.85-2.6-4.04-2.68-2.8-6.6-3.6-10.13-2-3.24 1.6-5.2 4.63-5.32 8.24-.04.4-.04.74 0 1.14.04.4-.2.76-.6.84z" stroke="#fff" stroke-opacity="0" fill="#fff"/><use xlink:href="#g" transform="matrix(1,0,0,1,151,40) translate(0 14.4)"/><use xlink:href="#h" transform="matrix(1,0,0,1,151,40) translate(70 14.4)"/><path d="M780.63 428.83c-8.5 0-14.93-4.44-18.34-12.86-1.47-3.7-2.23-7.03-2.48-11.07l3.42-.23c.2 3.63.88 6.7 2.2 10.03 2.9 7.1 8.02 10.73 15.2 10.73 17.18 0 17.43-19.6 17.43-20.42v-23.3l-17.44-6.96-17.43 6.97v13.5h-3.42v-14.64c0-.7.42-1.33 1.1-1.56l19.13-7.73c.43-.17.84-.17 1.26 0L800.4 379c.67.23 1.1.87 1.1 1.56V405c0 .25-.27 23.83-20.87 23.83z" stroke="#fff" stroke-opacity="0" fill="#693cc5"/><path d="M780.64 421.48c-11.52 0-14.33-14.92-14.45-15.55v-1.13h3.4v.63c.3 1.38 2.9 12.66 11.07 12.66 8.16 0 10.73-11.3 11.02-12.67V387.5l-11.06-4.54-11.06 4.45v7.76h-3.4v-8.76c0-.7.4-1.34 1.06-1.6l12.76-5.1c.43-.17.84-.17 1.27 0l12.77 5.1c.66.26 1.07.9 1.07 1.6v19.54c-.14.62-2.97 15.54-14.46 15.54z" stroke="#fff" stroke-opacity="0" fill="#693cc5"/><path d="M780.63 440c-22.08 0-40-17.92-40-40s17.92-40 40-40 40 17.92 40 40-17.92 40-40 40zm0-76.56c-20.24 0-36.56 16.32-36.56 36.56 0 20.24 16.32 36.56 36.56 36.56 20.24 0 36.56-16.32 36.56-36.56 0-20.24-16.33-36.56-36.57-36.56z" stroke="#fff" stroke-opacity="0" fill="#693cc5"/><path d="M777.04 409.17l-2.4-2.37 6.8-6.8-6.8-6.8 2.4-2.4 8 7.95c.65.66.65 1.75 0 2.4v.03z" stroke="#fff" stroke-opacity="0" fill="#693cc5"/><path d="M748.72 398.3h35.1v3.4h-35.1v-3.4z" stroke="#fff" stroke-opacity="0" fill="#693cc5"/><use xlink:href="#i" transform="matrix(1,0,0,1,710.6341163768311,449.0000000000001) translate(11.524999999999999 14.4)"/><use xlink:href="#j" transform="matrix(1,0,0,1,710.6341163768311,449.0000000000001) translate(95.525 14.4)"/><use xlink:href="#k" transform="matrix(1,0,0,1,710.6341163768311,449.0000000000001) translate(34.574999999999996 36)"/><use xlink:href="#l" transform="matrix(1,0,0,1,710.6341163768311,449.0000000000001) translate(34.525 57.6)"/><path d="M1001.55 428.83c-8.5 0-14.93-4.44-18.35-12.86-1.46-3.7-2.2-7.03-2.46-11.07l3.42-.23c.2 3.63.88 6.7 2.2 10.03 2.9 7.1 8.02 10.73 15.2 10.73 17.17 0 17.42-19.6 17.42-20.42v-23.3l-17.43-6.96-17.43 6.97v13.5h-3.42v-14.64c0-.7.42-1.33 1.08-1.56l19.15-7.73c.4-.17.83-.17 1.25 0l19.14 7.73c.67.23 1.08.87 1.08 1.56V405c0 .25-.25 23.83-20.85 23.83z" stroke="#fff" stroke-opacity="0" fill="#693cc5"/><path d="M1001.56 421.48c-11.52 0-14.33-14.92-14.45-15.55v-1.13h3.43v.63c.3 1.38 2.9 12.66 11.05 12.66 8.17 0 10.74-11.3 11.03-12.67V387.5l-11.04-4.54-11.06 4.45v7.76h-3.42v-8.76c0-.7.4-1.34 1.07-1.6l12.77-5.1c.43-.17.84-.17 1.27 0l12.76 5.1c.66.26 1.07.9 1.07 1.6v19.54c-.15.62-2.98 15.54-14.47 15.54z" stroke="#fff" stroke-opacity="0" fill="#693cc5"/><path d="M1001.55 440c-22.08 0-40-17.92-40-40s17.92-40 40-40 40 17.92 40 40-17.92 40-40 40zm0-76.56C981.3 363.44 965 379.76 965 400c0 20.24 16.3 36.56 36.55 36.56 20.24 0 36.56-16.32 36.56-36.56 0-20.24-16.3-36.56-36.55-36.56z" stroke="#fff" stroke-opacity="0" fill="#693cc5"/><path d="M997.96 409.17l-2.4-2.37 6.8-6.8-6.8-6.8 2.4-2.4 8 7.95c.65.66.65 1.75 0 2.4v.03z" stroke="#fff" stroke-opacity="0" fill="#693cc5"/><path d="M969.64 398.3h35.1v3.4h-35.1v-3.4z" stroke="#fff" stroke-opacity="0" fill="#693cc5"/><use xlink:href="#m" transform="matrix(1,0,0,1,931.5517648900413,449.0000000000001) translate(18.525 14.4)"/><use xlink:href="#j" transform="matrix(1,0,0,1,931.5517648900413,449.0000000000001) translate(88.525 14.4)"/><use xlink:href="#k" transform="matrix(1,0,0,1,931.5517648900413,449.0000000000001) translate(34.574999999999996 36)"/><use xlink:href="#l" transform="matrix(1,0,0,1,931.5517648900413,449.0000000000001) translate(34.525 57.6)"/><path d="M720.18 920h340.9v240H720.2z" stroke="#5a6c86" stroke-width="2" fill="#fff" fill-opacity="0"/><path d="M720.18 920h56v56h-56v-56z" stroke="#fff" stroke-opacity="0" fill="#5a6c86"/><path d="M760.67 941.2h-5.85v-12.4c0-.44-.37-.8-.8-.8h-11.7c-.42 0-.8.36-.8.8v12.4h-5.84c-.46 0-.8.36-.8.8v25.2c0 .44.34.8.8.8h25c.45 0 .8-.36.8-.8V942c0-.44-.35-.8-.8-.8zm-.8 25.2h-23.4v-23.6h5.86c.45 0 .8-.36.8-.8v-12.4h10.1V942c0 .44.34.8.8.8h5.85z" stroke="#fff" stroke-opacity="0" fill="#fff"/><path d="M739.98 946.1h1.6v4.16h-1.6v-4.16zM739.98 952.77h1.6v4.16h-1.6v-4.16zM739.98 959.44h1.6v4.16h-1.6v-4.16zM747.5 946.1h1.6v4.16h-1.6v-4.16zM747.5 952.77h1.6v4.16h-1.6v-4.16zM747.5 959.44h1.6v4.16h-1.6v-4.16zM755 946.1h1.6v4.16H755v-4.16zM755 952.77h1.6v4.16H755v-4.16zM755 959.44h1.6v4.16H755v-4.16zM747.5 933.3h1.6v4.16h-1.6v-4.16zM747.5 939.97h1.6v4.16h-1.6v-4.16z" stroke="#fff" stroke-opacity="0" fill="#fff"/><use xlink:href="#n" transform="matrix(1,0,0,1,791.175292120226,940) translate(0 14.4)"/><use xlink:href="#o" transform="matrix(1,0,0,1,791.175292120226,940) translate(92.85000000000001 14.4)"/><use xlink:href="#p" transform="matrix(1,0,0,1,791.175292120226,940) translate(135.8 14.4)"/><path d="M1005.15 1080H961.9c-.98 0-1.72-.8-1.72-1.68v-76.64c0-.88.74-1.68 1.72-1.68h43.25c.98 0 1.73.8 1.73 1.68v76.64c0 .88-.75 1.68-1.73 1.68zm-41.57-3.44h39.9v-73.12h-39.9z" stroke="#fff" stroke-opacity="0" fill="#232f3e"/><path d="M968.3 1007.98h30.44v3.4H968.3v-3.4zM968.3 1015.97h30.44v3.4H968.3v-3.4zM968.3 1023.93h30.44v3.4H968.3v-3.4zM968.3 1031.9h30.44v3.42H968.3v-3.4z" stroke="#fff" stroke-opacity="0" fill="#232f3e"/><use xlink:href="#q" transform="matrix(1,0,0,1,930.1752921202259,1089) translate(34.55 14.4)"/><use xlink:href="#r" transform="matrix(1,0,0,1,930.1752921202259,1089) translate(27.049999999999997 36)"/><path d="M800.18 1080c-22.08 0-40-17.92-40-40s17.92-40 40-40 40 17.92 40 40-17.92 40-40 40zm0-76.56c-20.24 0-36.56 16.32-36.56 36.56 0 20.24 16.32 36.56 36.56 36.56 20.24 0 36.56-16.32 36.56-36.56 0-20.24-16.32-36.56-36.56-36.56z" stroke="#fff" stroke-opacity="0" fill="#693cc5"/><path d="M807 1017.26l-6.82-6.8-6.8 6.8-2.4-2.4 7.95-8c.66-.65 1.74-.65 2.4 0h.02l7.97 8z" stroke="#fff" stroke-opacity="0" fill="#693cc5"/><path d="M798.47 1009.36h3.4v61.28h-3.4v-61.28z" stroke="#fff" stroke-opacity="0" fill="#693cc5"/><path d="M800.17 1073.62c-.47 0-.86-.17-1.2-.5l-7.97-7.98 2.37-2.4 6.8 6.8 6.8-6.8 2.4 2.4-7.95 8c-.35.33-.77.5-1.25.48zM825.3 1049.17l-2.38-2.37 6.8-6.8-6.8-6.8 2.4-2.4 7.98 7.95c.67.66.67 1.75 0 2.4v.03z" stroke="#fff" stroke-opacity="0" fill="#693cc5"/><path d="M769.54 1038.3h61.27v3.4h-61.26v-3.4z" stroke="#fff" stroke-opacity="0" fill="#693cc5"/><path d="M775.03 1049.17l-7.98-7.96c-.67-.65-.67-1.73 0-2.4l7.98-7.97 2.42 2.36-6.8 6.8 6.8 6.8z" stroke="#fff" stroke-opacity="0" fill="#693cc5"/><use xlink:href="#s" transform="matrix(1,0,0,1,730.175292120226,1089) translate(31.074999999999996 14.4)"/><use xlink:href="#t" transform="matrix(1,0,0,1,730.175292120226,1089) translate(36.525 36)"/><path d="M761.18 760h98.9v98.92h-98.9V760z" stroke="#fff" stroke-opacity="0" stroke-width="2" fill="#693cc5"/><path d="M830.9 806.9h-6.02v-6.1h-2.62v6.1H800.2v-6.1h-2.63v6.1h-6.2c-.72 0-1.3.6-1.3 1.32v30.92c0 .72.58 1.3 1.3 1.3h39.6c.7 0 1.3-.58 1.3-1.3v-30.92c0-.36-.13-.67-.4-.9-.24-.3-.58-.4-.96-.4zm-1.3 30.9H792.7v-28.27h36.93z" stroke="#fff" stroke-opacity="0" stroke-width="2" fill="#fff"/><path d="M809.83 823.47v7.33h2.64v-7.33c1-.25 1.8-.7 2.54-1.44 2.14-2.13 2.14-5.58 0-7.7-1.05-1.07-2.34-1.6-3.84-1.57-2.52 0-4.63 1.66-5.25 4.1-.74 2.9 1.02 5.9 3.95 6.65zm-.67-7.3c.55-.53 1.22-.8 2-.78.77 0 1.44.28 2 .82.5.56.77 1.2.77 1.95 0 .8-.27 1.46-.82 2.02-.54.53-1.2.8-1.98.8-1.56 0-2.82-1.28-2.82-2.83 0-.78.3-1.44.83-2zM800.2 792.78c-.15-6.28 4.82-11.5 11.1-11.67 6.04 0 10.96 5.28 10.94 11.88v.4h2.65v-.4c.23-7.77-5.86-14.26-13.6-14.52-7.75.18-13.88 6.57-13.74 14.3v.57h2.65z" stroke="#fff" stroke-opacity="0" stroke-width="2" fill="#fff"/><path d="M838.1 796.1l-6.34-6.1-1.84 1.9 4.07 3.96h-46.77l3.96-3.95-1.8-1.92-6.24 6.15v.02c-.5.5-.5 1.34 0 1.86l6.24 6.18 1.84-1.9-3.95-3.83h46.63l-3.84 3.96 1.83 1.86 6.18-6.24c.3-.26.4-.57.4-.94 0-.4-.1-.73-.4-1z" stroke="#fff" stroke-opacity="0" stroke-width="2" fill="#fff"/><use xlink:href="#d" transform="matrix(1,0,0,1,731.175292120226,867.9176485132102) translate(38.375 14.4)"/><use xlink:href="#u" transform="matrix(1,0,0,1,731.175292120226,867.9176485132102) translate(83.675 14.4)"/><path d="M921.18 760h98.9v98.92h-98.9V760z" stroke="#fff" stroke-opacity="0" fill="#693cc5"/><path d="M990.4 818.68h-9.23v-2.62h9.23c3.23 0 10.54-.97 10.54-9.76 0-5.28-3.1-8.62-9.22-9.84-.6-.13-1-.6-1.06-1.23-.26-5.15-3.3-6.97-5.73-6.97-1.78 0-3.3.76-4.28 2.2-.47.6-1.32.67-1.85.25-.26-.16-.4-.33-.46-.58-.92-2.62-2.18-4.65-4.15-6.6-2.78-2.9-6.2-4.42-10.3-4.5-8.1-.18-14.82 6.3-15.02 14.4 0 .63 0 1.18.07 1.77.13.67-.33 1.3-1 1.47-2.83.67-7.64 2.9-7.64 9.5v.72c.48 5.3 5.02 9.3 10.3 9.12h6.85v2.62h-6.8c-6.7.16-12.38-4.9-12.97-11.62v-.85c-.2-5.53 3.23-10.26 8.57-11.78v-.98c.2-9.6 8.17-17.2 17.72-17 4.75.14 8.77 1.87 12.06 5.25 1.72 1.73 2.97 3.42 3.96 5.66 1.44-1.14 3.02-1.7 4.86-1.7 3.7 0 7.58 2.63 8.3 8.46 6.73 1.64 10.42 5.95 10.42 12.2 0 9.08-6.8 12.38-13.18 12.38zM982.9 834.5h-.4v-6.9c-.1-2.1-1.86-3.72-3.95-3.65h-18.43c-2.1-.07-3.84 1.55-3.94 3.66v6.9h-.42c-2.12.18-3.7 2-3.56 4.1v3.82h2.64v-3.8c0-.84.48-1.48.92-1.48h27.15c.45 0 .93.64.93 1.47v3.82h2.64v-3.8c.14-2.1-1.44-3.94-3.56-4.12zm-24.12-6.9c0-.55.62-1 1.3-1h18.44c.72 0 1.3.45 1.3 1v6.9h-21.1z" stroke="#fff" stroke-opacity="0" fill="#fff"/><path d="M961.4 800.2c-2.43 0-4.47 1.6-5.1 3.96-.73 2.82.97 5.7 3.8 6.43v12.03h2.62V810.6c2.35-.63 3.93-2.65 3.94-5.1 0-2.9-2.34-5.3-5.26-5.3zm0 7.93c-1.45 0-2.64-1.2-2.64-2.65 0-1.46 1.2-2.62 2.64-2.62 1.46 0 2.64 1.16 2.64 2.62 0 1.46-1.18 2.65-2.64 2.65z" stroke="#fff" stroke-opacity="0" fill="#fff"/><path d="M969.24 790.98c-2.45.03-4.48 1.62-5.08 4-.7 2.8 1 5.7 3.83 6.38v21.27h2.63v-21.3c2.3-.63 3.84-2.66 3.85-5.03.02-2.9-2.33-5.3-5.24-5.32zm0 7.9c-1.46 0-2.64-1.16-2.64-2.6 0-1.47 1.18-2.67 2.64-2.67 1.46 0 2.63 1.2 2.63 2.67 0 1.45-1.17 2.62-2.63 2.62z" stroke="#fff" stroke-opacity="0" fill="#fff"/><path d="M977.23 800.2c-2.43 0-4.47 1.6-5.1 3.96-.73 2.82.96 5.7 3.78 6.43v12.03h2.64V810.6c2.36-.63 3.94-2.65 3.95-5.1 0-2.9-2.36-5.3-5.27-5.3zm0 7.93c-1.45 0-2.64-1.2-2.64-2.65 0-1.46 1.18-2.62 2.63-2.62 1.46 0 2.64 1.16 2.64 2.62 0 1.46-1.18 2.65-2.64 2.65z" stroke="#fff" stroke-opacity="0" fill="#fff"/><use xlink:href="#d" transform="matrix(1,0,0,1,891.175292120226,867.9176485132102) translate(33.425 14.4)"/><use xlink:href="#v" transform="matrix(1,0,0,1,891.175292120226,867.9176485132102) translate(78.725 14.4)"/><use xlink:href="#w" transform="matrix(1,0,0,1,891.175292120226,867.9176485132102) translate(46.025 36)"/><path d="M328.8 120l-1.03-.8c-5.5-4-10.94-6.4-17.63-7.84-12.98-2.32-20.7-9.36-20.7-18.8.16-4.88 1.5-8.88 4.18-12.88 1.65-2.96 3.15-5.44 3.15-8.88-.16-4.8-2.05-8.8-5.67-11.92l-1.34-1.12 1.1-1.28c0-.08 9.2-11.12 11.34-14l1.18-1.68 1.4 1.44c3 3.6 6.86 5.52 11.5 5.76 4.4 0 7.8-1.92 11.18-6.32L328.8 40l1.33 1.68c3.3 4.4 6.77 6.32 11.18 6.32 4.65-.24 8.5-2.16 11.5-5.76l1.42-1.44 1.18 1.68c2.12 2.88 11.25 13.92 11.33 14l1.1 1.28-1.34 1.12c-3.63 3.12-5.52 7.12-5.67 11.92 0 3.44 1.4 5.92 3.15 8.88 2.67 4 4 8 4.17 12.88 0 9.44-7.72 16.48-20.7 18.8-6.7 1.44-12.12 3.84-17.63 7.84zm-34.4-62.56c3.7 3.68 5.6 8.08 5.75 13.36-.24 3.92-1.34 7.28-3.62 10.48-1.9 3.36-3.7 6.48-3.7 11.2 0 11.52 13.7 14.8 17.87 15.6 6.84 1.44 12.35 3.76 18.1 7.76 5.74-4 11.25-6.32 18.1-7.76 4.17-.72 17.86-4.08 17.86-15.52 0-4.8-1.8-7.92-3.7-11.2-2.28-3.28-3.38-6.56-3.62-10.56.16-5.2 2.05-9.68 5.75-13.36-2.14-2.56-6.86-8.24-9.3-11.44-3.46 3.44-7.63 5.2-12.6 5.36-5.03 0-9.36-2.08-12.5-6-3.15 3.92-7.48 6-12.52 6-4.96-.16-9.13-1.92-12.6-5.36-2.43 3.2-7.15 8.88-9.28 11.44z" stroke="#fff" stroke-opacity="0" fill="#693cc5"/><use xlink:href="#x" transform="matrix(1,0,0,1,259.4462239553916,129) translate(29.549999999999997 14.4)"/><use xlink:href="#y" transform="matrix(1,0,0,1,259.4462239553916,129) translate(72.5 14.4)"/><use xlink:href="#z" transform="matrix(1,0,0,1,259.4462239553916,129) translate(18.049999999999997 36)"/><use xlink:href="#A" transform="matrix(1,0,0,1,259.4462239553916,129) translate(80 36)"/><path d="M680.63 160h420v364.96h-420z" stroke="#248814" stroke-width="2" fill="#fff" fill-opacity="0"/><path d="M680.63 160h56v56h-56v-56z" stroke="#fff" stroke-opacity="0" fill="#248814"/><path d="M712.4 188.3h-1.2v-1.1c-.1-1.73-1.46-3.07-3.18-3.2-1.9-.13-3.55 1.3-3.68 3.2v1.07h-1.18c-.44 0-.8.36-.8.8v6.13c0 .44.36.8.8.8h9.23c.44 0 .8-.36.8-.8v-6.1c0-.44-.36-.8-.8-.8zm-6.4-1.06c.1-1.02 1-1.77 2-1.67.9.08 1.58.77 1.66 1.67v1.06h-3.7zm5.65 7.08h-7.68v-4.42h7.62z" stroke="#fff" stroke-opacity="0" fill="#fff"/><path d="M722.9 185.74c-.08-2.44-1.58-4.47-3.87-5.3-1.58-.46-3.16-.13-4.4.9-.67-1.44-1.46-2.6-2.6-3.75-3.23-3.36-7.94-4.3-12.18-2.4-4.04 1.9-6.4 5.63-6.53 10.05v.7c-3.4.98-5.66 4.08-5.5 7.65v.63c.38 4.28 3.92 7.52 8.2 7.47h26s7.42-.63 7.42-8.1c.04-3.9-2.67-7.2-6.54-7.86zm-.95 14.4h-25.93c-3.45.05-6.28-2.53-6.57-5.97v-.52c-.17-3.05 1.9-5.7 4.9-6.3.38-.12.63-.48.6-.9-.05-.4-.05-.73 0-1.14.07-3.78 2.1-6.94 5.52-8.6 1.25-.56 2.42-.8 3.83-.84 2.62.08 4.87 1.04 6.7 2.94 1.25 1.3 2.04 2.6 2.62 4.3.04.15.13.28.25.37.38.27.88.2 1.13-.17.83-1.18 2.24-1.67 3.62-1.3 1.8.72 2.87 2.4 2.83 4.32-.1.4.2.82.62.9 3.58.36 6.2 3.55 5.83 7.12-.3 3.13-2.7 5.52-5.83 5.85z" stroke="#fff" stroke-opacity="0" fill="#fff"/><use xlink:href="#B" transform="matrix(1,0,0,1,751.6341163768311,180.00000000000006) translate(0 17.766)"/><use xlink:href="#C" transform="matrix(1,0,0,1,751.6341163768311,180.00000000000006) translate(59.202 17.766)"/><path d="M101.46 198h320v309.5h-320z" stroke="#248814" stroke-width="2" fill="#fff" fill-opacity="0"/><path d="M101.46 198h56v56h-56v-56z" stroke="#fff" stroke-opacity="0" fill="#248814"/><path d="M133.22 226.3h-1.18v-1.1c-.12-1.73-1.48-3.07-3.2-3.2-1.9-.13-3.54 1.3-3.67 3.2v1.07H124c-.46 0-.8.36-.8.8v6.13c0 .44.34.8.8.8h9.22c.44 0 .8-.36.8-.8v-6.1c0-.44-.36-.8-.8-.8zm-6.4-1.06c.1-1.02 1-1.77 2-1.67.9.08 1.58.77 1.67 1.67v1.06h-3.73zm5.65 7.08h-7.68v-4.42h7.6z" stroke="#fff" stroke-opacity="0" fill="#fff"/><path d="M143.73 223.74c-.1-2.44-1.6-4.47-3.87-5.3-1.6-.46-3.17-.13-4.4.9-.68-1.44-1.47-2.6-2.6-3.75-3.24-3.36-7.94-4.3-12.2-2.4-4.02 1.9-6.4 5.63-6.52 10.05v.7c-3.4.98-5.66 4.08-5.5 7.65v.63c.38 4.28 3.92 7.52 8.2 7.47h26s7.42-.63 7.42-8.1c.04-3.9-2.66-7.2-6.53-7.86zm-.96 14.4h-25.92c-3.46.05-6.3-2.53-6.58-5.97v-.52c-.17-3.05 1.92-5.7 4.9-6.3.4-.12.64-.48.6-.9-.05-.4-.05-.73 0-1.14.08-3.78 2.12-6.94 5.53-8.6 1.25-.56 2.4-.8 3.83-.84 2.62.08 4.86 1.04 6.7 2.94 1.24 1.3 2.03 2.6 2.62 4.3.04.15.12.28.25.37.37.27.87.2 1.12-.17.83-1.18 2.25-1.67 3.62-1.3 1.8.72 2.87 2.4 2.83 4.32-.08.4.2.82.62.9 3.57.36 6.2 3.55 5.82 7.12-.3 3.13-2.7 5.52-5.83 5.85z" stroke="#fff" stroke-opacity="0" fill="#fff"/><use xlink:href="#D" transform="matrix(1,0,0,1,172.45741835426566,217.99999999999977) translate(0 17.766)"/><use xlink:href="#C" transform="matrix(1,0,0,1,172.45741835426566,217.99999999999977) translate(42.56999999999999 17.766)"/><path d="M281.46 328.28h94.68v94.68h-94.68v-94.68z" stroke="#fff" stroke-opacity="0" fill="#693cc5"/><path d="M315.9 382.5c1.68.6 3.18.86 4.96.92 1.12.1 2.12-.2 3.04-.85.73-.68 1.1-1.53 1.04-2.52.1-1.04-.23-1.96-.98-2.7-1-.66-2.04-.92-3.23-.82-1.43 0-2.63.1-4.03.25V375l.5-7.8h9.5v2.1h-7.37l-.34 5.3c.87-.18 1.6-.25 2.52-.25 1.67-.1 3.12.4 4.4 1.48 1.13 1.1 1.67 2.5 1.57 4.1.05 1.63-.58 3.06-1.84 4.1-1.44 1.16-3.04 1.67-4.88 1.6-1.8 0-3.32-.3-4.97-1.05zM336.54 374.9h.46c1.57-.1 2.94.34 4.14 1.36 1.08 1 1.6 2.3 1.5 3.78.06 1.62-.6 3.02-1.85 4.06-1.5 1.1-3.1 1.6-4.95 1.5-1.75 0-3.24-.32-4.83-1.02v-2.1c1.63.6 3.1.88 4.83.94 1.14.1 2.13-.2 3.05-.87.76-.67 1.13-1.53 1.06-2.53 0-2.1-1.3-3.16-3.97-3.16-.9 0-1.65.04-2.54.13v-1.72l5.48-5.96h-7.64v-2.14h10.6v2.06z" stroke="#fff" stroke-opacity="0" fill="#fff"/><path d="M328.8 399.6c-.25 0-.45-.04-.65-.18-4.3-2.52-8.33-4.07-13.22-5.05-2.68-.46-11.36-2.52-11.36-8.83 0-2.85 1.1-4.76 2.53-7.14 2.17-3.23 3.28-6.5 3.43-10.38 0-3.73-.96-6.86-3.03-10-.3-.46-.25-1.02.1-1.5l2.02-2.5c.4-.48 1.06-.62 1.6-.3 2.74 1.6 5.36 2.3 8.54 2.34 3.48.05 6.46-.88 9.3-2.94.44-.33 1.05-.33 1.45 0 2.88 2.06 5.86 3 9.34 2.94 3.13-.04 5.8-.8 8.53-2.33.56-.33 1.2-.2 1.62.28l2 2.53c.36.42.4 1.03.1 1.5-2.06 3.08-2.97 6.26-3.02 10 0 4.48 1.8 7.56 3.43 10.37 1.42 2.38 2.53 4.3 2.53 7.14 0 6.3-8.68 8.37-11.35 8.83-4.9.98-8.93 2.48-13.22 5.05-.2.14-.4.2-.66.2zm-19.68-42.27c1.97 3.36 2.88 6.68 2.88 10.55 0 5.2-2.07 8.8-3.78 11.64-1.27 2.24-2.12 3.73-2.12 5.88 0 4.5 7.72 6.12 9.23 6.4 5 1 9.03 2.53 13.42 5.05 4.4-2.52 8.48-4.06 13.42-5.05 1.57-.28 9.3-1.9 9.3-6.4 0-2.15-.87-3.64-2.18-5.88-1.68-2.85-3.8-6.45-3.8-11.64.05-3.87.96-7.2 2.98-10.55l-.8-1c-2.83 1.46-5.6 2.16-8.84 2.16-3.73.04-6.9-.85-10.1-2.9-3.12 2.05-6.35 2.94-10.08 2.9-3.23 0-5.95-.7-8.83-2.16z" stroke="#fff" stroke-opacity="0" fill="#fff"/><path d="M328.82 407.18c-.3 0-.57-.06-.82-.25-4.48-3.22-8.83-5.17-14.2-6.3-10.4-1.9-16.58-7.64-16.58-15.2.13-3.86 1.14-7.14 3.35-10.36 1.38-2.33 2.52-4.35 2.52-7.12-.14-3.85-1.7-7.07-4.6-9.66-.58-.38-.7-1.2-.27-1.77.07 0 .07-.07.07-.07 0-.12 7.44-9.02 9.14-11.3.2-.36.57-.55.95-.55.43 0 .74.13 1.06.45 2.4 2.84 5.5 4.4 9.27 4.6 3.53 0 6.3-1.57 8.96-5.04.5-.56 1.37-.7 1.94-.18l.2.2c2.64 3.52 5.4 5.03 8.95 5.03 3.77-.2 6.86-1.76 9.26-4.6.3-.32.63-.44 1.07-.44.38 0 .76.2.95.57 1.7 2.27 9.08 11.17 9.14 11.3.2.25.32.56.25.94 0 .4-.2.64-.44.9-2.9 2.58-4.48 5.8-4.6 9.65 0 2.77 1.2 4.8 2.52 7.12 2.2 3.22 3.22 6.5 3.34 10.35 0 7.57-6.2 13.3-16.6 15.2-5.36 1.14-9.7 3.03-14.18 6.3-.2.13-.45.26-.7.26zm-27.7-50.02c3.04 3.03 4.56 6.56 4.62 10.8 0 3.45-1.45 5.98-2.9 8.44-1.52 2.7-2.97 5.17-2.97 9.08 0 9.2 11.04 11.92 14.38 12.55 5.5 1.14 9.97 3.03 14.57 6.2 4.54-3.17 9.02-5.06 14.5-6.2 3.35-.63 14.4-3.34 14.4-12.55 0-3.9-1.46-6.3-2.98-9.08-1.45-2.53-2.9-5.05-2.9-8.45.06-4.23 1.58-7.76 4.6-10.8-1.7-2-5.48-6.6-7.5-9.2-2.84 2.77-6.18 4.23-10.1 4.35-4.1 0-7.56-1.7-10.08-4.86-2.6 3.16-6.06 4.86-10.16 4.86-3.9-.12-7.25-1.58-10.1-4.35-1.82 2.6-5.66 7.2-7.37 9.2z" stroke="#fff" stroke-opacity="0" fill="#fff"/><use xlink:href="#E" transform="matrix(1,0,0,1,251.45741835426566,431.9601864341954) translate(23.074999999999996 14.4)"/><use xlink:href="#F" transform="matrix(1,0,0,1,251.45741835426566,431.9601864341954) translate(94.025 14.4)"/><path d="M193.64 350.18h-64.37v-64.36h64.37zm-61.02-3.34h57.67v-57.68H132.6z" stroke="#fff" stroke-opacity="0" fill="#d86613"/><path d="M138.47 278h3.34v9.48h-3.33V278zM148.92 278h3.34v9.48h-3.34V278zM159.4 278h3.32v9.48h-3.33V278zM169.86 278h3.33v9.48h-3.34V278zM180.32 278h3.34v9.48h-3.34V278zM138.47 348.52h3.34V358h-3.33v-9.48zM148.92 348.52h3.34V358h-3.34v-9.48zM159.4 348.52h3.32V358h-3.33v-9.48zM169.86 348.52h3.33V358h-3.34v-9.48zM180.32 348.52h3.34V358h-3.34v-9.48zM191.97 295.42h9.5v3.33h-9.5v-3.33zM191.97 305.87h9.5v3.33h-9.5v-3.33zM191.97 316.33h9.5v3.34h-9.5v-3.34zM191.97 326.8h9.5v3.33h-9.5v-3.33zM191.97 337.25h9.5v3.33h-9.5v-3.33zM121.46 295.42h9.48v3.33h-9.48v-3.33zM121.46 305.87h9.48v3.33h-9.48v-3.33zM121.46 316.33h9.48v3.34h-9.48v-3.34zM121.46 326.8h9.48v3.33h-9.48v-3.33zM121.46 337.25h9.48v3.33h-9.48v-3.33z" stroke="#fff" stroke-opacity="0" fill="#d86613"/><use xlink:href="#G" transform="matrix(1,0,0,1,91.45741835426566,366.9999999999998) translate(36 14.4)"/><path d="M193.64 466.7h-64.37v-64.37h64.37zm-61.02-3.35h57.67v-57.67H132.6z" stroke="#fff" stroke-opacity="0" fill="#d86613"/><path d="M138.47 394.5h3.34v9.5h-3.33v-9.5zM148.92 394.5h3.34v9.5h-3.34v-9.5zM159.4 394.5h3.32v9.5h-3.33v-9.5zM169.86 394.5h3.33v9.5h-3.34v-9.5zM180.32 394.5h3.34v9.5h-3.34v-9.5zM138.47 465.03h3.34v9.48h-3.33v-9.47zM148.92 465.03h3.34v9.48h-3.34v-9.47zM159.4 465.03h3.32v9.48h-3.33v-9.47zM169.86 465.03h3.33v9.48h-3.34v-9.47zM180.32 465.03h3.34v9.48h-3.34v-9.47zM191.97 411.93h9.5v3.33h-9.5v-3.33zM191.97 422.38h9.5v3.33h-9.5v-3.32zM191.97 432.85h9.5v3.33h-9.5v-3.33zM191.97 443.3h9.5v3.35h-9.5v-3.34zM191.97 453.76h9.5v3.34h-9.5v-3.34zM121.46 411.93h9.48v3.33h-9.48v-3.33zM121.46 422.38h9.48v3.33h-9.48v-3.32zM121.46 432.85h9.48v3.33h-9.48v-3.33zM121.46 443.3h9.48v3.35h-9.48v-3.34zM121.46 453.76h9.48v3.34h-9.48v-3.34z" stroke="#fff" stroke-opacity="0" fill="#d86613"/><use xlink:href="#G" transform="matrix(1,0,0,1,91.45741835426566,483.51447666772106) translate(36 14.4)"/><path d="M941.67 1040h-83" stroke="#000" stroke-width="2" fill="none"/><path d="M956.94 1040l-14.27 4.64v-9.28zM843.4 1040l14.28-4.64v9.28z" stroke="#000" stroke-width="2"/><path d="M202.46 318h39v57.62h21.5" stroke="#000" stroke-width="2" fill="none"/><path d="M202.48 319h-1.02v-2h1.02z"/><path d="M278.22 375.62l-14.26 4.64V371z" stroke="#000" stroke-width="2"/><path d="M202.46 434.5h39v-58.88h21.5" stroke="#000" stroke-width="2" fill="none"/><path d="M202.48 435.5h-1.02v-2h1.02z"/><path d="M278.22 375.62l-14.26 4.64V371z" stroke="#000" stroke-width="2"/><path d="M842.63 220h94.68v94.68h-94.67V220z" stroke="#fff" stroke-opacity="0" fill="#693cc5"/><path d="M877.1 274.2c1.66.6 3.16.88 4.94.93 1.12.1 2.1-.18 3.04-.84.72-.7 1.1-1.54 1.04-2.54.1-1.03-.23-1.95-.98-2.7-1-.65-2.04-.9-3.23-.82-1.42.02-2.62.1-4.03.26v-1.8l.5-7.78h9.5v2.1h-7.37l-.33 5.3c.87-.18 1.62-.25 2.52-.25 1.67-.1 3.12.4 4.4 1.47 1.13 1.1 1.66 2.5 1.57 4.1.06 1.63-.57 3.07-1.84 4.12-1.44 1.14-3.04 1.66-4.87 1.6-1.8 0-3.33-.33-4.98-1.06zM897.72 266.63h.45c1.57-.12 2.95.33 4.15 1.34 1.08 1.02 1.6 2.3 1.5 3.8.06 1.6-.6 3-1.85 4.05-1.48 1.1-3.1 1.6-4.94 1.5-1.75 0-3.24-.32-4.84-1.02v-2.1c1.63.6 3.1.88 4.83.93 1.14.1 2.13-.2 3.05-.86.76-.67 1.13-1.54 1.06-2.53 0-2.1-1.32-3.16-3.97-3.16-.9 0-1.64.04-2.53.13V267l5.47-5.97h-7.63v-2.14h10.6v2.06z" stroke="#fff" stroke-opacity="0" fill="#fff"/><path d="M889.98 291.32c-.25 0-.45-.04-.66-.18-4.3-2.53-8.32-4.07-13.22-5.05-2.67-.48-11.35-2.53-11.35-8.84 0-2.85 1.1-4.76 2.52-7.15 2.17-3.2 3.28-6.48 3.43-10.36 0-3.74-.95-6.87-3.02-10-.3-.46-.25-1.02.1-1.5l2.02-2.5c.4-.48 1.06-.62 1.6-.3 2.74 1.6 5.36 2.3 8.54 2.34 3.48.05 6.46-.9 9.28-2.94.46-.33 1.06-.33 1.47 0 2.86 2.05 5.84 3 9.32 2.94 3.13-.05 5.8-.8 8.53-2.33.55-.33 1.2-.2 1.6.28l2.03 2.52c.35.42.4 1.03.1 1.5-2.07 3.08-2.98 6.25-3.03 10 0 4.48 1.82 7.56 3.43 10.36 1.42 2.4 2.53 4.3 2.53 7.16 0 6.3-8.67 8.36-11.35 8.83-4.9.97-8.93 2.47-13.2 5.04-.22.14-.42.18-.67.18zm-19.68-42.28c1.97 3.37 2.88 6.68 2.88 10.56 0 5.2-2.07 8.78-3.8 11.63-1.25 2.25-2.1 3.74-2.1 5.9 0 4.48 7.7 6.1 9.23 6.4 5 .97 9.04 2.5 13.43 5.04 4.4-2.53 8.48-4.07 13.42-5.05 1.56-.28 9.28-1.9 9.28-6.4 0-2.15-.85-3.64-2.17-5.9-1.66-2.84-3.78-6.43-3.78-11.62.05-3.88.96-7.2 2.98-10.56l-.8-.98c-2.84 1.45-5.6 2.15-8.84 2.15-3.73.06-6.9-.83-10.1-2.9-3.12 2.07-6.35 2.96-10.08 2.9-3.23 0-5.96-.7-8.83-2.14z" stroke="#fff" stroke-opacity="0" fill="#fff"/><path d="M890 298.9c-.32 0-.57-.07-.82-.25-4.48-3.22-8.83-5.18-14.2-6.3-10.4-1.9-16.58-7.64-16.58-15.2.13-3.86 1.14-7.14 3.34-10.36 1.4-2.34 2.53-4.36 2.53-7.14-.13-3.85-1.7-7.06-4.6-9.65-.58-.37-.7-1.2-.26-1.75.07 0 .07-.07.07-.07 0-.12 7.45-9.02 9.15-11.3.2-.37.57-.56.94-.56.45 0 .76.13 1.08.44 2.4 2.84 5.48 4.42 9.27 4.6 3.54 0 6.3-1.57 8.96-5.04.5-.56 1.4-.7 1.96-.2.06.08.12.14.2.2 2.64 3.54 5.4 5.05 8.94 5.05 3.8-.2 6.88-1.77 9.27-4.6.32-.32.63-.45 1.08-.45.38 0 .76.2.95.57 1.7 2.26 9.08 11.16 9.15 11.28.2.25.3.57.25.95 0 .38-.2.63-.44.88-2.9 2.6-4.47 5.8-4.6 9.66 0 2.78 1.2 4.8 2.53 7.13 2.2 3.2 3.2 6.5 3.34 10.34 0 7.57-6.18 13.3-16.6 15.2-5.35 1.13-9.7 3.03-14.18 6.3-.2.13-.45.26-.7.26zm-27.7-50.02c3.04 3.02 4.55 6.56 4.62 10.78 0 3.47-1.46 6-2.9 8.46-1.52 2.7-2.97 5.17-2.97 9.08 0 9.2 11.04 11.92 14.38 12.55 5.5 1.14 9.96 3.03 14.57 6.18 4.54-3.15 9.02-5.04 14.5-6.18 3.35-.63 14.38-3.34 14.38-12.55 0-3.9-1.45-6.3-2.96-9.08-1.45-2.53-2.9-5.05-2.9-8.46.06-4.22 1.57-7.76 4.6-10.78-1.7-2.02-5.5-6.63-7.5-9.2-2.84 2.76-6.18 4.2-10.1 4.34-4.1 0-7.56-1.7-10.08-4.86-2.6 3.16-6.06 4.86-10.16 4.86-3.9-.13-7.25-1.58-10.1-4.35-1.82 2.58-5.67 7.2-7.37 9.2z" stroke="#fff" stroke-opacity="0" fill="#fff"/><use xlink:href="#E" transform="matrix(1,0,0,1,812.6341163768301,323.6776112022519) translate(23.074999999999996 14.4)"/><use xlink:href="#F" transform="matrix(1,0,0,1,812.6341163768301,323.6776112022519) translate(94.025 14.4)"/><path d="M841.63 267.34h-61v74.16" stroke="#000" stroke-width="2" fill="none"/><path d="M842.63 268.34h-1.02v-2h1.03z"/><path d="M780.63 356.76L776 342.5h9.27z" stroke="#000" stroke-width="2"/><path d="M1001.55 359v-91.66H955.8" stroke="#000" stroke-width="2" fill="none"/><path d="M1002.55 360.06l-1-.06-1 .04v-1.07h2z"/><path d="M940.55 267.34l14.26-4.64v9.27z" stroke="#000" stroke-width="2"/><path d="M825.04 607.1H783.6v-80.14" stroke="#000" stroke-width="2" fill="none"/><path d="M840.3 607.1l-14.26 4.62v-9.27z" stroke="#000" stroke-width="2"/><path d="M784.6 527h-2v-1.04h2z"/><path d="M365.05 80.4l9.02 3.95m9.02 3.94l18.03 7.88m9.02 3.95l18.04 7.9m9 3.93l18.04 7.9m9.02 3.94l18.04 7.9m9.02 3.93l18.04 7.9m9.02 3.94l18.04 7.9m9 3.93l18.05 7.9m9.02 3.94l18.03 7.9m9.02 3.93l18.04 7.9m9 3.94l18.04 7.9m9.02 3.94l9.02 3.95" stroke="#000" stroke-width="2" fill="none"/><path d="M365.48 79.5l-.75 1.7-.75-1.52-.5-.87-.15-.24z"/><path d="M676.67 216.7l-14.93-1.47 3.72-8.5z" stroke="#000" stroke-width="2"/><path d="M938.72 607.1h58.92v-62.64" stroke="#000" stroke-width="2" fill="none"/><path d="M938.75 608.1h-1.03v-2h1.03z"/><path d="M997.64 529.2l4.64 14.26H993z" stroke="#000" stroke-width="2"/><path d="M529.9 324.57v-9.9h131.18v89.03h-9.9v-79.13H529.9z" stroke="#000" stroke-width="2" fill="#fff"/><path d="M520 324.57h131.2v89.03H520z" stroke="#000" stroke-width="2" fill="#fff"/><use xlink:href="#H" transform="matrix(1,0,0,1,520,324.56937605357285) translate(70.505 14.518235148679)"/><use xlink:href="#I" transform="matrix(1,0,0,1,520,324.56937605357285) translate(11.104999999999999 36.118235148679005)"/><use xlink:href="#k" transform="matrix(1,0,0,1,520,324.56937605357285) translate(49.055 36.118235148679005)"/><use xlink:href="#J" transform="matrix(1,0,0,1,520,324.56937605357285) translate(42.555 57.71823514867901)"/><path d="M365.04 79.57l.76-.37 1.47-.63 1.3-.5 1.2-.38 1.05-.3.97-.24.9-.18.8-.12.78-.08.4-.03m9.35 3.03l.16.14.44.4.45.47.44.5.47.56.48.62.48.7.5.77.5.87.52 1 .53 1.15.56 1.32.56 1.53.58 1.83.6 2.18.6 2.67.24 1.38m1.3 10l.15 1.72.4 7.77.06 10.7m-.34 10.1l-.8 20.17m-.45 10.08l-.44 10.1" stroke="#000" stroke-width="2" fill="none"/><path d="M365.5 80.46l-.9.43-.62-1.22-.33-.56.98-.47z"/><path d="M391.46 193.77l-4.1-14.43 9.27.34z" stroke="#000" stroke-width="2"/><path d="M80 540h362.9v499.75H80z" stroke="#232f3e" stroke-width="2" fill="#fff" fill-opacity="0"/><path d="M80 540h56v56H80v-56z" stroke="#fff" stroke-opacity="0" fill="#232f3e"/><path d="M120.88 581.22h-25c-4.13.05-7.57-3.1-7.9-7.2v-.64c-.15-3.4 1.97-6.38 5.25-7.36v-.66c.12-4.22 2.44-7.75 6.24-9.57 4.12-1.86 8.73-.96 11.8 2.3 1.1 1.1 1.85 2.2 2.45 3.6 1.2-1 2.72-1.32 4.24-.9 2.24.8 3.68 2.74 3.76 5.1 3.68.65 6.32 3.8 6.28 7.56 0 7.07-7.04 7.73-7.12 7.76zm-26.7-13.88c-2.83.6-4.75 3.14-4.6 6.04v.53c.3 3.33 3.1 5.84 6.4 5.76h24.98c3.04-.3 5.4-2.64 5.68-5.7.28-3.43-2.24-6.5-5.68-6.78-.44-.05-.72-.44-.64-.87.08-1.83-1-3.44-2.72-4.13-1.32-.37-2.64.13-3.44 1.24-.2.25-.44.38-.76.33-.28-.05-.48-.24-.6-.5-.6-1.6-1.4-2.85-2.6-4.04-2.68-2.8-6.6-3.6-10.13-2-3.24 1.6-5.2 4.63-5.32 8.24-.04.4-.04.74 0 1.14.04.4-.2.76-.6.84z" stroke="#fff" stroke-opacity="0" fill="#fff"/><use xlink:href="#g" transform="matrix(1,0,0,1,151,560) translate(0 14.4)"/><use xlink:href="#K" transform="matrix(1,0,0,1,151,560) translate(70 14.4)"/><path d="M328.8 640l-1.03-.8c-5.5-4-10.94-6.4-17.63-7.84-12.98-2.32-20.7-9.36-20.7-18.8.16-4.88 1.5-8.88 4.18-12.88 1.65-2.96 3.15-5.44 3.15-8.88-.16-4.8-2.05-8.8-5.67-11.92l-1.34-1.12 1.1-1.28c0-.08 9.2-11.12 11.34-14l1.18-1.68 1.4 1.44c3 3.6 6.86 5.52 11.5 5.76 4.4 0 7.8-1.92 11.18-6.32l1.34-1.68 1.33 1.68c3.3 4.4 6.77 6.32 11.18 6.32 4.65-.24 8.5-2.16 11.5-5.76l1.42-1.44 1.18 1.68c2.12 2.88 11.25 13.92 11.33 14l1.1 1.28-1.34 1.12c-3.63 3.12-5.52 7.12-5.67 11.92 0 3.44 1.4 5.92 3.15 8.88 2.67 4 4 8 4.17 12.88 0 9.44-7.72 16.48-20.7 18.8-6.7 1.44-12.12 3.84-17.63 7.84zm-34.4-62.56c3.7 3.68 5.6 8.08 5.75 13.36-.24 3.92-1.34 7.28-3.62 10.48-1.9 3.36-3.7 6.48-3.7 11.2 0 11.52 13.7 14.8 17.87 15.6 6.84 1.44 12.35 3.76 18.1 7.76 5.74-4 11.25-6.32 18.1-7.76 4.17-.72 17.86-4.08 17.86-15.52 0-4.8-1.8-7.92-3.7-11.2-2.28-3.28-3.38-6.56-3.62-10.56.16-5.2 2.05-9.68 5.75-13.36-2.14-2.56-6.86-8.24-9.3-11.44-3.46 3.44-7.63 5.2-12.6 5.36-5.03 0-9.36-2.08-12.5-6-3.15 3.92-7.48 6-12.52 6-4.96-.16-9.13-1.92-12.6-5.36-2.43 3.2-7.15 8.88-9.28 11.44z" stroke="#fff" stroke-opacity="0" fill="#693cc5"/><use xlink:href="#L" transform="matrix(1,0,0,1,259.4462239553916,649) translate(32.525 14.4)"/><use xlink:href="#M" transform="matrix(1,0,0,1,259.4462239553916,649) translate(69.525 14.4)"/><use xlink:href="#N" transform="matrix(1,0,0,1,259.4462239553916,649) translate(18.049999999999997 36)"/><use xlink:href="#A" transform="matrix(1,0,0,1,259.4462239553916,649) translate(80 36)"/><path d="M101.46 718h320v309.5h-320z" stroke="#248814" stroke-width="2" fill="#fff" fill-opacity="0"/><path d="M101.46 718h56v56h-56v-56z" stroke="#fff" stroke-opacity="0" fill="#248814"/><path d="M133.22 746.3h-1.18v-1.1c-.12-1.73-1.48-3.07-3.2-3.2-1.9-.13-3.54 1.3-3.67 3.2v1.07H124c-.46 0-.8.36-.8.8v6.13c0 .44.34.8.8.8h9.22c.44 0 .8-.36.8-.8v-6.1c0-.44-.36-.8-.8-.8zm-6.4-1.06c.1-1.02 1-1.77 2-1.67.9.08 1.58.77 1.67 1.67v1.06h-3.73zm5.65 7.08h-7.68v-4.42h7.6z" stroke="#fff" stroke-opacity="0" fill="#fff"/><path d="M143.73 743.74c-.1-2.44-1.6-4.47-3.87-5.3-1.6-.46-3.17-.13-4.4.9-.68-1.44-1.47-2.6-2.6-3.75-3.24-3.36-7.94-4.3-12.2-2.4-4.02 1.9-6.4 5.63-6.52 10.05v.7c-3.4.98-5.66 4.08-5.5 7.65v.63c.38 4.28 3.92 7.52 8.2 7.47h26s7.42-.63 7.42-8.1c.04-3.9-2.66-7.2-6.53-7.86zm-.96 14.4h-25.92c-3.46.05-6.3-2.53-6.58-5.97v-.52c-.17-3.05 1.92-5.7 4.9-6.3.4-.12.64-.48.6-.9-.05-.4-.05-.73 0-1.14.08-3.78 2.12-6.94 5.53-8.6 1.25-.56 2.4-.8 3.83-.84 2.62.08 4.86 1.04 6.7 2.94 1.24 1.3 2.03 2.6 2.62 4.3.04.15.12.28.25.37.37.27.87.2 1.12-.17.83-1.18 2.25-1.67 3.62-1.3 1.8.72 2.87 2.4 2.83 4.32-.08.4.2.82.62.9 3.57.36 6.2 3.55 5.82 7.12-.3 3.13-2.7 5.52-5.83 5.85z" stroke="#fff" stroke-opacity="0" fill="#fff"/><use xlink:href="#O" transform="matrix(1,0,0,1,172.45741835426566,737.9999999999998) translate(0 17.766)"/><use xlink:href="#C" transform="matrix(1,0,0,1,172.45741835426566,737.9999999999998) translate(36.61199999999999 17.766)"/><path d="M281.46 848.28h94.68v94.68h-94.68v-94.68z" stroke="#fff" stroke-opacity="0" fill="#693cc5"/><path d="M315.9 902.5c1.68.6 3.18.86 4.96.92 1.12.1 2.12-.2 3.04-.85.73-.68 1.1-1.53 1.04-2.52.1-1.04-.23-1.96-.98-2.7-1-.66-2.04-.92-3.23-.82-1.43 0-2.63.1-4.03.25V895l.5-7.8h9.5v2.1h-7.37l-.34 5.3c.87-.18 1.6-.25 2.52-.25 1.67-.1 3.12.4 4.4 1.48 1.13 1.1 1.67 2.5 1.57 4.1.05 1.63-.58 3.06-1.84 4.1-1.44 1.16-3.04 1.67-4.88 1.6-1.8 0-3.32-.3-4.97-1.05zM336.54 894.9h.46c1.57-.1 2.94.34 4.14 1.36 1.08 1 1.6 2.3 1.5 3.78.06 1.62-.6 3.02-1.85 4.06-1.5 1.1-3.1 1.6-4.95 1.5-1.75 0-3.24-.32-4.83-1.02v-2.1c1.63.6 3.1.88 4.83.94 1.14.1 2.13-.2 3.05-.87.76-.67 1.13-1.53 1.06-2.53 0-2.1-1.3-3.16-3.97-3.16-.9 0-1.65.04-2.54.13v-1.72l5.48-5.96h-7.64v-2.14h10.6v2.06z" stroke="#fff" stroke-opacity="0" fill="#fff"/><path d="M328.8 919.6c-.25 0-.45-.04-.65-.18-4.3-2.52-8.33-4.07-13.22-5.05-2.68-.46-11.36-2.52-11.36-8.83 0-2.85 1.1-4.76 2.53-7.14 2.17-3.23 3.28-6.5 3.43-10.38 0-3.73-.96-6.86-3.03-10-.3-.46-.25-1.02.1-1.5l2.02-2.5c.4-.48 1.06-.62 1.6-.3 2.74 1.6 5.36 2.3 8.54 2.34 3.48.05 6.46-.88 9.3-2.94.44-.33 1.05-.33 1.45 0 2.88 2.06 5.86 3 9.34 2.94 3.13-.04 5.8-.8 8.53-2.33.56-.33 1.2-.2 1.62.28l2 2.53c.36.42.4 1.03.1 1.5-2.06 3.08-2.97 6.26-3.02 10 0 4.48 1.8 7.56 3.43 10.37 1.42 2.38 2.53 4.3 2.53 7.14 0 6.3-8.68 8.37-11.35 8.83-4.9.98-8.93 2.48-13.22 5.05-.2.14-.4.2-.66.2zm-19.68-42.27c1.97 3.36 2.88 6.68 2.88 10.55 0 5.2-2.07 8.8-3.78 11.64-1.27 2.24-2.12 3.73-2.12 5.88 0 4.5 7.72 6.12 9.23 6.4 5 1 9.03 2.53 13.42 5.05 4.4-2.52 8.48-4.06 13.42-5.05 1.57-.28 9.3-1.9 9.3-6.4 0-2.15-.87-3.64-2.18-5.88-1.68-2.85-3.8-6.45-3.8-11.64.05-3.87.96-7.2 2.98-10.55l-.8-1c-2.83 1.46-5.6 2.16-8.84 2.16-3.73.04-6.9-.85-10.1-2.9-3.12 2.05-6.35 2.94-10.08 2.9-3.23 0-5.95-.7-8.83-2.16z" stroke="#fff" stroke-opacity="0" fill="#fff"/><path d="M328.82 927.18c-.3 0-.57-.06-.82-.25-4.48-3.22-8.83-5.17-14.2-6.3-10.4-1.9-16.58-7.64-16.58-15.2.13-3.86 1.14-7.14 3.35-10.36 1.38-2.33 2.52-4.35 2.52-7.12-.14-3.85-1.7-7.07-4.6-9.66-.58-.38-.7-1.2-.27-1.77.07 0 .07-.07.07-.07 0-.12 7.44-9.02 9.14-11.3.2-.36.57-.55.95-.55.43 0 .74.13 1.06.45 2.4 2.84 5.5 4.4 9.27 4.6 3.53 0 6.3-1.57 8.96-5.04.5-.56 1.37-.7 1.94-.18l.2.2c2.64 3.52 5.4 5.03 8.95 5.03 3.77-.2 6.86-1.76 9.26-4.6.3-.32.63-.44 1.07-.44.38 0 .76.2.95.57 1.7 2.27 9.08 11.17 9.14 11.3.2.25.32.56.25.94 0 .4-.2.64-.44.9-2.9 2.58-4.48 5.8-4.6 9.65 0 2.77 1.2 4.8 2.52 7.12 2.2 3.22 3.22 6.5 3.34 10.35 0 7.57-6.2 13.3-16.6 15.2-5.36 1.14-9.7 3.03-14.18 6.3-.2.13-.45.26-.7.26zm-27.7-50.02c3.04 3.03 4.56 6.56 4.62 10.8 0 3.45-1.45 5.98-2.9 8.44-1.52 2.7-2.97 5.17-2.97 9.08 0 9.2 11.04 11.92 14.38 12.55 5.5 1.14 9.97 3.03 14.57 6.2 4.54-3.17 9.02-5.06 14.5-6.2 3.35-.63 14.4-3.34 14.4-12.55 0-3.9-1.46-6.3-2.98-9.08-1.45-2.53-2.9-5.05-2.9-8.45.06-4.23 1.58-7.76 4.6-10.8-1.7-2-5.48-6.6-7.5-9.2-2.84 2.77-6.18 4.23-10.1 4.35-4.1 0-7.56-1.7-10.08-4.86-2.6 3.16-6.06 4.86-10.16 4.86-3.9-.12-7.25-1.58-10.1-4.35-1.82 2.6-5.66 7.2-7.37 9.2z" stroke="#fff" stroke-opacity="0" fill="#fff"/><use xlink:href="#E" transform="matrix(1,0,0,1,251.45741835426566,951.9601864341954) translate(23.074999999999996 14.4)"/><use xlink:href="#F" transform="matrix(1,0,0,1,251.45741835426566,951.9601864341954) translate(94.025 14.4)"/><path d="M193.64 870.18h-64.37v-64.36h64.37zm-61.02-3.34h57.67v-57.68H132.6z" stroke="#fff" stroke-opacity="0" fill="#d86613"/><path d="M138.47 798h3.34v9.48h-3.33V798zM148.92 798h3.34v9.48h-3.34V798zM159.4 798h3.32v9.48h-3.33V798zM169.86 798h3.33v9.48h-3.34V798zM180.32 798h3.34v9.48h-3.34V798zM138.47 868.52h3.34V878h-3.33v-9.48zM148.92 868.52h3.34V878h-3.34v-9.48zM159.4 868.52h3.32V878h-3.33v-9.48zM169.86 868.52h3.33V878h-3.34v-9.48zM180.32 868.52h3.34V878h-3.34v-9.48zM191.97 815.42h9.5v3.33h-9.5v-3.33zM191.97 825.87h9.5v3.33h-9.5v-3.33zM191.97 836.33h9.5v3.34h-9.5v-3.34zM191.97 846.8h9.5v3.33h-9.5v-3.33zM191.97 857.25h9.5v3.33h-9.5v-3.33zM121.46 815.42h9.48v3.33h-9.48v-3.33zM121.46 825.87h9.48v3.33h-9.48v-3.33zM121.46 836.33h9.48v3.34h-9.48v-3.34zM121.46 846.8h9.48v3.33h-9.48v-3.33zM121.46 857.25h9.48v3.33h-9.48v-3.33z" stroke="#fff" stroke-opacity="0" fill="#d86613"/><use xlink:href="#G" transform="matrix(1,0,0,1,91.45741835426566,886.9999999999998) translate(36 14.4)"/><path d="M193.64 986.7h-64.37v-64.37h64.37zm-61.02-3.35h57.67v-57.67H132.6z" stroke="#fff" stroke-opacity="0" fill="#d86613"/><path d="M138.47 914.5h3.34v9.5h-3.33v-9.5zM148.92 914.5h3.34v9.5h-3.34v-9.5zM159.4 914.5h3.32v9.5h-3.33v-9.5zM169.86 914.5h3.33v9.5h-3.34v-9.5zM180.32 914.5h3.34v9.5h-3.34v-9.5zM138.47 985.03h3.34v9.48h-3.33v-9.47zM148.92 985.03h3.34v9.48h-3.34v-9.47zM159.4 985.03h3.32v9.48h-3.33v-9.47zM169.86 985.03h3.33v9.48h-3.34v-9.47zM180.32 985.03h3.34v9.48h-3.34v-9.47zM191.97 931.93h9.5v3.33h-9.5v-3.33zM191.97 942.38h9.5v3.33h-9.5v-3.32zM191.97 952.85h9.5v3.33h-9.5v-3.33zM191.97 963.3h9.5v3.35h-9.5v-3.34zM191.97 973.76h9.5v3.34h-9.5v-3.34zM121.46 931.93h9.48v3.33h-9.48v-3.33zM121.46 942.38h9.48v3.33h-9.48v-3.32zM121.46 952.85h9.48v3.33h-9.48v-3.33zM121.46 963.3h9.48v3.35h-9.48v-3.34zM121.46 973.76h9.48v3.34h-9.48v-3.34z" stroke="#fff" stroke-opacity="0" fill="#d86613"/><g><use xlink:href="#G" transform="matrix(1,0,0,1,91.45741835426566,1003.514476667721) translate(36 14.4)"/></g><path d="M202.46 838h39v57.62h21.5" stroke="#000" stroke-width="2" fill="none"/><path d="M202.48 839h-1.02v-2h1.02z"/><path d="M278.22 895.62l-14.26 4.64V891z" stroke="#000" stroke-width="2"/><path d="M202.46 954.5h39v-58.88h21.5" stroke="#000" stroke-width="2" fill="none"/><path d="M202.48 955.5h-1.02v-2h1.02z"/><path d="M278.22 895.62l-14.26 4.64V891z" stroke="#000" stroke-width="2"/><path d="M365.04 599.57l.76-.37 1.47-.63 1.3-.5 1.2-.38 1.05-.3.97-.24.9-.18.8-.12.78-.08.4-.03m9.35 3.03l.16.14.44.4.45.47.44.5.47.56.48.62.48.7.5.77.5.87.52 1 .53 1.15.56 1.32.56 1.53.58 1.83.6 2.18.6 2.67.24 1.38m1.3 10l.15 1.72.4 7.77.06 10.7m-.34 10.1l-.8 20.17m-.45 10.08l-.44 10.1" stroke="#000" stroke-width="2" fill="none"/><path d="M365.5 600.46l-.9.43-.62-1.22-.33-.56.98-.47z"/><path d="M391.46 713.77l-4.1-14.43 9.27.34z" stroke="#000" stroke-width="2"/><path d="M590.52 415.6l-.04 2-.17 2.72-.26 2.5-.34 2.34-.4 2.15-.48 2.03-.53 1.9-.6 1.78-.62 1.7-.67 1.6-.7 1.54-.78 1.47-.82 1.42-.86 1.36-.92 1.32-.97 1.28-1.03 1.25-1.1 1.22-1.17 1.2-1.24 1.16-1.33 1.16-1.43 1.13-1.54 1.1-1.66 1.12-1.82 1.1-1.97 1.08-2.18 1.08-2.4 1.07-2.67 1.05-3 1.05-3.4 1.02-3.9 1-4.52.96-5.36.9-6.5.82-8.12.67-10.78.44-16.2-.03-57.07-2.23" stroke="#000" stroke-width="2" fill="none"/><path d="M591.52 415.64l-2-.04.02-1h2z"/><path d="M425.7 463.4l14.43-4.07-.36 9.26z" stroke="#000" stroke-width="2"/><path d="M590.52 415.6l-1.23 66.2-2.6 42.06-3.3 31.6-3.7 25.18-3.94 20.7-4.07 17.42-4.15 14.86-4.17 12.86-4.18 11.23-4.16 9.92-4.14 8.8-4.12 7.9-4.1 7.1-4.07 6.4-4.05 5.86-4.05 5.34-4.05 4.9-4.05 4.5-4.08 4.16-4.1 3.85-4.12 3.56-4.18 3.3-4.23 3.08-4.32 2.86-4.4 2.66-4.48 2.47-4.6 2.28-4.74 2.1-4.9 1.95-5.05 1.76-5.26 1.6-5.5 1.4-5.75 1.22-6.06 1.02-5.72.73" stroke="#000" stroke-width="2" fill="none"/><path d="M591.52 415.64l-2-.03.02-1h2z"/><path d="M425.7 759.24l14-5.4.48 9.27z" stroke="#000" stroke-width="2"/><path d="M590.57 415.6l.04 1.63.22 2.43.32 2.26.42 2.1.5 2 .6 1.88.7 1.8.77 1.73.86 1.67.95 1.62 1.05 1.58 1.17 1.55 1.3 1.53 1.43 1.5 1.6 1.52 1.77 1.5 2 1.5 2.27 1.5 2.58 1.53 2.98 1.54 3.46 1.54 4.07 1.56 4.85 1.54 5.9 1.5 7.32 1.46 9.35 1.3 12.1 1" stroke="#000" stroke-width="2" fill="none"/><path d="M591.57 415.6l-2 .05-.03-1.05h2z"/><path d="M676.4 460.26L662 464.5l.26-9.25z" stroke="#000" stroke-width="2"/><path d="M365.1 599.7l9.9-3.2m9.88-3.18l19.8-6.37m9.9-3.18l19.8-6.37m9.9-3.2l19.8-6.36m9.88-3.2l19.8-6.36m9.9-3.18l19.8-6.37m9.9-3.2l19.8-6.36m9.88-3.18l19.8-6.38m9.9-3.2l19.8-6.36m9.9-3.2l19.8-6.36m9.88-3.18l9.9-3.2" stroke="#000" stroke-width="2" fill="none"/><path d="M365.42 600.64l-.83.26-.62-1.22-.34-.57 1.17-.37z"/><path d="M676.55 499.46l-12.16 8.78-2.85-8.83z" stroke="#000" stroke-width="2"/><path d="M365.02 599.52l1.86-1 2.43-1.5 2.2-1.5 1.17-.9m6.52-6.33l.7-.85 1.32-1.8 1.25-1.88 1.17-2 1.1-2.14 1.03-2.32.97-2.53.8-2.5m1.94-8.9l.42-2.88.52-5.77.3-8.37-.04-1.14m-.2-9.1l-.2-9.1" stroke="#000" stroke-width="2" fill="none"/><path d="M365.5 600.4l-.9.5-.62-1.22-.33-.56.9-.5z"/><path d="M389.94 511.75l4.95 14.16-9.28.2z" stroke="#000" stroke-width="2"/><path d="M292.4 80h-10.1m-10.1 0h-20.22m-10.1 0h-20.22m-10.1 0h-20.22m-10.1 0H161m-10.1 0H130.7m-10.1 0h-20.22m-10.1 0H70.05m-10.1 0H39.73m-10.1 0H20v10.58m0 10.1v20.23m0 10.1v20.23m0 10.1v20.22m0 10.1v20.22m0 10.1v20.22m0 10.1v20.2m0 10.12v20.2m0 10.12v20.2m0 10.12v20.2m0 10.12v20.2m0 10.12v20.2m0 10.12v20.22m0 10.1v20.22m0 10.1v20.22m0 10.1v20.22m0 10.1v20.22m0 10.1v20.22m0 10.1v20.22m0 10.1v20.22m0 10.1V697m0 10.1v20.22m0 10.1v8.8h11.42m10.1 0h20.22m10.1 0h10.12" stroke="#000" stroke-width="2" fill="none"/><path d="M293.62 79.68l-.55.85-.22.47h-.46v-2h1.6z"/><path d="M97.22 746.22l-14.26 4.64v-9.27z" stroke="#000" stroke-width="2"/><path d="M890.63 900.5V737.92" stroke="#000" stroke-width="2" fill="none"/><path d="M890.63 915.76L886 901.5h9.27zM890.63 722.65l4.64 14.27H886z" stroke="#000" stroke-width="2"/><defs><path fill="#232f3e" d="M190 0L58-211 59 0H30v-248h39L202-35l-2-213h31V0h-41" id="P"/><path fill="#232f3e" d="M100-194c63 0 86 42 84 106H49c0 40 14 67 53 68 26 1 43-12 49-29l28 8c-11 28-37 45-77 45C44 4 14-33 15-96c1-61 26-98 85-98zm52 81c6-60-76-77-97-28-3 7-6 17-6 28h103" id="Q"/><path fill="#232f3e" d="M59-47c-2 24 18 29 38 22v24C64 9 27 4 27-40v-127H5v-23h24l9-43h21v43h35v23H59v120" id="R"/><path fill="#232f3e" d="M206 0h-36l-40-164L89 0H53L-1-190h32L70-26l43-164h34l41 164 42-164h31" id="S"/><path fill="#232f3e" d="M100-194c62-1 85 37 85 99 1 63-27 99-86 99S16-35 15-95c0-66 28-99 85-99zM99-20c44 1 53-31 53-75 0-43-8-75-51-75s-53 32-53 75 10 74 51 75" id="T"/><path fill="#232f3e" d="M114-163C36-179 61-72 57 0H25l-1-190h30c1 12-1 29 2 39 6-27 23-49 58-41v29" id="U"/><path fill="#232f3e" d="M143 0L79-87 56-68V0H24v-261h32v163l83-92h37l-77 82L181 0h-38" id="V"/><path fill="#232f3e" d="M24-231v-30h32v30H24zM24 0v-190h32V0H24" id="W"/><path fill="#232f3e" d="M117-194c89-4 53 116 60 194h-32v-121c0-31-8-49-39-48C34-167 62-67 57 0H25l-1-190h30c1 10-1 24 2 32 11-22 29-35 61-36" id="X"/><path fill="#232f3e" d="M177-190C167-65 218 103 67 71c-23-6-38-20-44-43l32-5c15 47 100 32 89-28v-30C133-14 115 1 83 1 29 1 15-40 15-95c0-56 16-97 71-98 29-1 48 16 59 35 1-10 0-23 2-32h30zM94-22c36 0 50-32 50-73 0-42-14-75-50-75-39 0-46 34-46 75s6 73 46 73" id="Y"/><g id="a"><use transform="matrix(0.05,0,0,0.05,0,0)" xlink:href="#P"/><use transform="matrix(0.05,0,0,0.05,12.950000000000001,0)" xlink:href="#Q"/><use transform="matrix(0.05,0,0,0.05,22.950000000000003,0)" xlink:href="#R"/><use transform="matrix(0.05,0,0,0.05,27.950000000000003,0)" xlink:href="#S"/><use transform="matrix(0.05,0,0,0.05,40.900000000000006,0)" xlink:href="#T"/><use transform="matrix(0.05,0,0,0.05,50.900000000000006,0)" xlink:href="#U"/><use transform="matrix(0.05,0,0,0.05,56.85,0)" xlink:href="#V"/><use transform="matrix(0.05,0,0,0.05,65.85000000000001,0)" xlink:href="#W"/><use transform="matrix(0.05,0,0,0.05,69.80000000000001,0)" xlink:href="#X"/><use transform="matrix(0.05,0,0,0.05,79.80000000000001,0)" xlink:href="#Y"/></g><path fill="#232f3e" d="M197 0v-115H63V0H30v-248h33v105h134v-105h34V0h-34" id="Z"/><path fill="#232f3e" d="M84 4C-5 8 30-112 23-190h32v120c0 31 7 50 39 49 72-2 45-101 50-169h31l1 190h-30c-1-10 1-25-2-33-11 22-28 36-60 37" id="aa"/><path fill="#232f3e" d="M115-194c53 0 69 39 70 98 0 66-23 100-70 100C84 3 66-7 56-30L54 0H23l1-261h32v101c10-23 28-34 59-34zm-8 174c40 0 45-34 45-75 0-40-5-75-45-74-42 0-51 32-51 76 0 43 10 73 51 73" id="ab"/><g id="b"><use transform="matrix(0.05,0,0,0.05,0,0)" xlink:href="#Z"/><use transform="matrix(0.05,0,0,0.05,12.950000000000001,0)" xlink:href="#aa"/><use transform="matrix(0.05,0,0,0.05,22.950000000000003,0)" xlink:href="#ab"/></g><path fill="#232f3e" d="M205 0l-28-72H64L36 0H1l101-248h38L239 0h-34zm-38-99l-47-123c-12 45-31 82-46 123h93" id="ac"/><path fill="#232f3e" d="M96-169c-40 0-48 33-48 73s9 75 48 75c24 0 41-14 43-38l32 2c-6 37-31 61-74 61-59 0-76-41-82-99-10-93 101-131 147-64 4 7 5 14 7 22l-32 3c-4-21-16-35-41-35" id="ad"/><g id="c"><use transform="matrix(0.05,0,0,0.05,0,0)" xlink:href="#ac"/><use transform="matrix(0.05,0,0,0.05,12,0)" xlink:href="#ad"/><use transform="matrix(0.05,0,0,0.05,21,0)" xlink:href="#ad"/><use transform="matrix(0.05,0,0,0.05,30,0)" xlink:href="#T"/><use transform="matrix(0.05,0,0,0.05,40,0)" xlink:href="#aa"/><use transform="matrix(0.05,0,0,0.05,50,0)" xlink:href="#X"/><use transform="matrix(0.05,0,0,0.05,60,0)" xlink:href="#R"/></g><path d="M205 0l-28-72H64L36 0H1l101-248h38L239 0h-34zm-38-99l-47-123c-12 45-31 82-46 123h93" id="ae"/><path d="M266 0h-40l-56-210L115 0H75L2-248h35L96-30l15-64 43-154h32l59 218 59-218h35" id="af"/><path d="M185-189c-5-48-123-54-124 2 14 75 158 14 163 119 3 78-121 87-175 55-17-10-28-26-33-46l33-7c5 56 141 63 141-1 0-78-155-14-162-118-5-82 145-84 179-34 5 7 8 16 11 25" id="ag"/><g id="d"><use transform="matrix(0.05,0,0,0.05,0,0)" xlink:href="#ae"/><use transform="matrix(0.05,0,0,0.05,11.35,0)" xlink:href="#af"/><use transform="matrix(0.05,0,0,0.05,28.299999999999997,0)" xlink:href="#ag"/></g><path d="M127-220V0H93v-220H8v-28h204v28h-85" id="ah"/><path d="M114-163C36-179 61-72 57 0H25l-1-190h30c1 12-1 29 2 39 6-27 23-49 58-41v29" id="ai"/><path d="M141-36C126-15 110 5 73 4 37 3 15-17 15-53c-1-64 63-63 125-63 3-35-9-54-41-54-24 1-41 7-42 31l-33-3c5-37 33-52 76-52 45 0 72 20 72 64v82c-1 20 7 32 28 27v20c-31 9-61-2-59-35zM48-53c0 20 12 33 32 33 41-3 63-29 60-74-43 2-92-5-92 41" id="aj"/><path d="M117-194c89-4 53 116 60 194h-32v-121c0-31-8-49-39-48C34-167 62-67 57 0H25l-1-190h30c1 10-1 24 2 32 11-22 29-35 61-36" id="ak"/><path d="M135-143c-3-34-86-38-87 0 15 53 115 12 119 90S17 21 10-45l28-5c4 36 97 45 98 0-10-56-113-15-118-90-4-57 82-63 122-42 12 7 21 19 24 35" id="al"/><path d="M24-231v-30h32v30H24zM24 0v-190h32V0H24" id="am"/><path d="M59-47c-2 24 18 29 38 22v24C64 9 27 4 27-40v-127H5v-23h24l9-43h21v43h35v23H59v120" id="an"/><g id="e"><use transform="matrix(0.05,0,0,0.05,0,0)" xlink:href="#ah"/><use transform="matrix(0.05,0,0,0.05,10.3,0)" xlink:href="#ai"/><use transform="matrix(0.05,0,0,0.05,16.25,0)" xlink:href="#aj"/><use transform="matrix(0.05,0,0,0.05,26.25,0)" xlink:href="#ak"/><use transform="matrix(0.05,0,0,0.05,36.25,0)" xlink:href="#al"/><use transform="matrix(0.05,0,0,0.05,45.25,0)" xlink:href="#am"/><use transform="matrix(0.05,0,0,0.05,49.2,0)" xlink:href="#an"/></g><path d="M143 4C61 4 22-44 18-125c-5-107 100-154 193-111 17 8 29 25 37 43l-32 9c-13-25-37-40-76-40-61 0-88 39-88 99 0 61 29 100 91 101 35 0 62-11 79-27v-45h-74v-28h105v86C228-13 192 4 143 4" id="ao"/><path d="M100-194c63 0 86 42 84 106H49c0 40 14 67 53 68 26 1 43-12 49-29l28 8c-11 28-37 45-77 45C44 4 14-33 15-96c1-61 26-98 85-98zm52 81c6-60-76-77-97-28-3 7-6 17-6 28h103" id="ap"/><path d="M206 0h-36l-40-164L89 0H53L-1-190h32L70-26l43-164h34l41 164 42-164h31" id="aq"/><path d="M179-190L93 31C79 59 56 82 12 73V49c39 6 53-20 64-50L1-190h34L92-34l54-156h33" id="ar"/><g id="f"><use transform="matrix(0.05,0,0,0.05,0,0)" xlink:href="#ao"/><use transform="matrix(0.05,0,0,0.05,14,0)" xlink:href="#aj"/><use transform="matrix(0.05,0,0,0.05,24,0)" xlink:href="#an"/><use transform="matrix(0.05,0,0,0.05,29,0)" xlink:href="#ap"/><use transform="matrix(0.05,0,0,0.05,39,0)" xlink:href="#aq"/><use transform="matrix(0.05,0,0,0.05,51.95,0)" xlink:href="#aj"/><use transform="matrix(0.05,0,0,0.05,61.95,0)" xlink:href="#ar"/></g><g id="g"><use transform="matrix(0.05,0,0,0.05,0,0)" xlink:href="#ac"/><use transform="matrix(0.05,0,0,0.05,12,0)" xlink:href="#ad"/><use transform="matrix(0.05,0,0,0.05,21,0)" xlink:href="#ad"/><use transform="matrix(0.05,0,0,0.05,30,0)" xlink:href="#T"/><use transform="matrix(0.05,0,0,0.05,40,0)" xlink:href="#aa"/><use transform="matrix(0.05,0,0,0.05,50,0)" xlink:href="#X"/><use transform="matrix(0.05,0,0,0.05,60,0)" xlink:href="#R"/></g><path fill="#232f3e" d="M27 0v-27h64v-190l-56 39v-29l58-41h29v221h61V0H27" id="as"/><use transform="matrix(0.05,0,0,0.05,0,0)" xlink:href="#as" id="h"/><path d="M140-251c81 0 123 46 123 126C263-46 219 4 140 4 59 4 17-45 17-125s42-126 123-126zm0 227c63 0 89-41 89-101s-29-99-89-99c-61 0-89 39-89 99S79-25 140-24" id="at"/><path d="M84 4C-5 8 30-112 23-190h32v120c0 31 7 50 39 49 72-2 45-101 50-169h31l1 190h-30c-1-10 1-25-2-33-11 22-28 36-60 37" id="au"/><path d="M115-194c53 0 69 39 70 98 0 66-23 100-70 100C84 3 66-7 56-30L54 0H23l1-261h32v101c10-23 28-34 59-34zm-8 174c40 0 45-34 45-75 0-40-5-75-45-74-42 0-51 32-51 76 0 43 10 73 51 73" id="av"/><path d="M100-194c62-1 85 37 85 99 1 63-27 99-86 99S16-35 15-95c0-66 28-99 85-99zM99-20c44 1 53-31 53-75 0-43-8-75-51-75s-53 32-53 75 10 74 51 75" id="aw"/><path d="M85-194c31 0 48 13 60 33l-1-100h32l1 261h-30c-2-10 0-23-3-31C134-8 116 4 85 4 32 4 16-35 15-94c0-66 23-100 70-100zm9 24c-40 0-46 34-46 75 0 40 6 74 45 74 42 0 51-32 51-76 0-42-9-74-50-73" id="ax"/><g id="i"><use transform="matrix(0.05,0,0,0.05,0,0)" xlink:href="#at"/><use transform="matrix(0.05,0,0,0.05,14,0)" xlink:href="#au"/><use transform="matrix(0.05,0,0,0.05,24,0)" xlink:href="#an"/><use transform="matrix(0.05,0,0,0.05,29,0)" xlink:href="#av"/><use transform="matrix(0.05,0,0,0.05,39,0)" xlink:href="#aw"/><use transform="matrix(0.05,0,0,0.05,49,0)" xlink:href="#au"/><use transform="matrix(0.05,0,0,0.05,59,0)" xlink:href="#ak"/><use transform="matrix(0.05,0,0,0.05,69,0)" xlink:href="#ax"/></g><path d="M233-177c-1 41-23 64-60 70L243 0h-38l-65-103H63V0H30v-248c88 3 205-21 203 71zM63-129c60-2 137 13 137-47 0-61-80-42-137-45v92" id="ay"/><path d="M54-142c48-35 137-8 131 61C196 18 31 33 14-55l32-4c7 23 22 37 52 37 35-1 51-22 54-58 4-55-73-65-99-34H22l8-134h141v27H59" id="az"/><path d="M126-127c33 6 58 20 58 59 0 88-139 92-164 29-3-8-5-16-6-25l32-3c6 27 21 44 54 44 32 0 52-15 52-46 0-38-36-46-79-43v-28c39 1 72-4 72-42 0-27-17-43-46-43-28 0-47 15-49 41l-32-3c6-42 35-63 81-64 48-1 79 21 79 65 0 36-21 52-52 59" id="aA"/><g id="j"><use transform="matrix(0.05,0,0,0.05,0,0)" xlink:href="#ay"/><use transform="matrix(0.05,0,0,0.05,12.950000000000001,0)" xlink:href="#az"/><use transform="matrix(0.05,0,0,0.05,22.950000000000003,0)" xlink:href="#aA"/></g><path d="M24 0v-261h32V0H24" id="aB"/><path d="M108 0H70L1-190h34L89-25l56-165h34" id="aC"/><g id="k"><use transform="matrix(0.05,0,0,0.05,0,0)" xlink:href="#ay"/><use transform="matrix(0.05,0,0,0.05,12.950000000000001,0)" xlink:href="#ap"/><use transform="matrix(0.05,0,0,0.05,22.950000000000003,0)" xlink:href="#al"/><use transform="matrix(0.05,0,0,0.05,31.950000000000003,0)" xlink:href="#aw"/><use transform="matrix(0.05,0,0,0.05,41.95,0)" xlink:href="#aB"/><use transform="matrix(0.05,0,0,0.05,45.900000000000006,0)" xlink:href="#aC"/><use transform="matrix(0.05,0,0,0.05,54.900000000000006,0)" xlink:href="#ap"/><use transform="matrix(0.05,0,0,0.05,64.9,0)" xlink:href="#ai"/></g><path d="M30 0v-248h187v28H63v79h144v27H63v87h162V0H30" id="aD"/><path d="M115-194c55 1 70 41 70 98S169 2 115 4C84 4 66-9 55-30l1 105H24l-1-265h31l2 30c10-21 28-34 59-34zm-8 174c40 0 45-34 45-75s-6-73-45-74c-42 0-51 32-51 76 0 43 10 73 51 73" id="aE"/><g id="l"><use transform="matrix(0.05,0,0,0.05,0,0)" xlink:href="#aD"/><use transform="matrix(0.05,0,0,0.05,12,0)" xlink:href="#ak"/><use transform="matrix(0.05,0,0,0.05,22,0)" xlink:href="#ax"/><use transform="matrix(0.05,0,0,0.05,32,0)" xlink:href="#aE"/><use transform="matrix(0.05,0,0,0.05,42,0)" xlink:href="#aw"/><use transform="matrix(0.05,0,0,0.05,52,0)" xlink:href="#am"/><use transform="matrix(0.05,0,0,0.05,55.95,0)" xlink:href="#ak"/><use transform="matrix(0.05,0,0,0.05,65.95,0)" xlink:href="#an"/></g><path d="M33 0v-248h34V0H33" id="aF"/><g id="m"><use transform="matrix(0.05,0,0,0.05,0,0)" xlink:href="#aF"/><use transform="matrix(0.05,0,0,0.05,5,0)" xlink:href="#ak"/><use transform="matrix(0.05,0,0,0.05,15,0)" xlink:href="#av"/><use transform="matrix(0.05,0,0,0.05,25,0)" xlink:href="#aw"/><use transform="matrix(0.05,0,0,0.05,35,0)" xlink:href="#au"/><use transform="matrix(0.05,0,0,0.05,45,0)" xlink:href="#ak"/><use transform="matrix(0.05,0,0,0.05,55,0)" xlink:href="#ax"/></g><path fill="#5a6c86" d="M140-251c81 0 123 46 123 126C263-46 219 4 140 4 59 4 17-45 17-125s42-126 123-126zm0 227c63 0 89-41 89-101s-29-99-89-99c-61 0-89 39-89 99S79-25 140-24" id="aG"/><path fill="#5a6c86" d="M117-194c89-4 53 116 60 194h-32v-121c0-31-8-49-39-48C34-167 62-67 57 0H25l-1-190h30c1 10-1 24 2 32 11-22 29-35 61-36" id="aH"/><path fill="#5a6c86" d="M115-194c55 1 70 41 70 98S169 2 115 4C84 4 66-9 55-30l1 105H24l-1-265h31l2 30c10-21 28-34 59-34zm-8 174c40 0 45-34 45-75s-6-73-45-74c-42 0-51 32-51 76 0 43 10 73 51 73" id="aI"/><path fill="#5a6c86" d="M114-163C36-179 61-72 57 0H25l-1-190h30c1 12-1 29 2 39 6-27 23-49 58-41v29" id="aJ"/><path fill="#5a6c86" d="M100-194c63 0 86 42 84 106H49c0 40 14 67 53 68 26 1 43-12 49-29l28 8c-11 28-37 45-77 45C44 4 14-33 15-96c1-61 26-98 85-98zm52 81c6-60-76-77-97-28-3 7-6 17-6 28h103" id="aK"/><path fill="#5a6c86" d="M210-169c-67 3-38 105-44 169h-31v-121c0-29-5-50-35-48C34-165 62-65 56 0H25l-1-190h30c1 10-1 24 2 32 10-44 99-50 107 0 11-21 27-35 58-36 85-2 47 119 55 194h-31v-121c0-29-5-49-35-48" id="aL"/><path fill="#5a6c86" d="M24-231v-30h32v30H24zM24 0v-190h32V0H24" id="aM"/><path fill="#5a6c86" d="M135-143c-3-34-86-38-87 0 15 53 115 12 119 90S17 21 10-45l28-5c4 36 97 45 98 0-10-56-113-15-118-90-4-57 82-63 122-42 12 7 21 19 24 35" id="aN"/><g id="n"><use transform="matrix(0.05,0,0,0.05,0,0)" xlink:href="#aG"/><use transform="matrix(0.05,0,0,0.05,14,0)" xlink:href="#aH"/><use transform="matrix(0.05,0,0,0.05,24,0)" xlink:href="#aI"/><use transform="matrix(0.05,0,0,0.05,34,0)" xlink:href="#aJ"/><use transform="matrix(0.05,0,0,0.05,39.95,0)" xlink:href="#aK"/><use transform="matrix(0.05,0,0,0.05,49.95,0)" xlink:href="#aL"/><use transform="matrix(0.05,0,0,0.05,64.9,0)" xlink:href="#aM"/><use transform="matrix(0.05,0,0,0.05,68.85000000000001,0)" xlink:href="#aN"/><use transform="matrix(0.05,0,0,0.05,77.85000000000001,0)" xlink:href="#aK"/></g><path fill="#5a6c86" d="M30-248c118-7 216 8 213 122C240-48 200 0 122 0H30v-248zM63-27c89 8 146-16 146-99s-60-101-146-95v194" id="aO"/><path fill="#5a6c86" d="M141-36C126-15 110 5 73 4 37 3 15-17 15-53c-1-64 63-63 125-63 3-35-9-54-41-54-24 1-41 7-42 31l-33-3c5-37 33-52 76-52 45 0 72 20 72 64v82c-1 20 7 32 28 27v20c-31 9-61-2-59-35zM48-53c0 20 12 33 32 33 41-3 63-29 60-74-43 2-92-5-92 41" id="aP"/><path fill="#5a6c86" d="M59-47c-2 24 18 29 38 22v24C64 9 27 4 27-40v-127H5v-23h24l9-43h21v43h35v23H59v120" id="aQ"/><g id="o"><use transform="matrix(0.05,0,0,0.05,0,0)" xlink:href="#aO"/><use transform="matrix(0.05,0,0,0.05,12.950000000000001,0)" xlink:href="#aP"/><use transform="matrix(0.05,0,0,0.05,22.950000000000003,0)" xlink:href="#aQ"/><use transform="matrix(0.05,0,0,0.05,27.950000000000003,0)" xlink:href="#aP"/></g><path fill="#5a6c86" d="M212-179c-10-28-35-45-73-45-59 0-87 40-87 99 0 60 29 101 89 101 43 0 62-24 78-52l27 14C228-24 195 4 139 4 59 4 22-46 18-125c-6-104 99-153 187-111 19 9 31 26 39 46" id="aR"/><g id="p"><use transform="matrix(0.05,0,0,0.05,0,0)" xlink:href="#aR"/><use transform="matrix(0.05,0,0,0.05,12.950000000000001,0)" xlink:href="#aK"/><use transform="matrix(0.05,0,0,0.05,22.950000000000003,0)" xlink:href="#aH"/><use transform="matrix(0.05,0,0,0.05,32.95,0)" xlink:href="#aQ"/><use transform="matrix(0.05,0,0,0.05,37.95,0)" xlink:href="#aK"/><use transform="matrix(0.05,0,0,0.05,47.95,0)" xlink:href="#aJ"/></g><path d="M30-248c118-7 216 8 213 122C240-48 200 0 122 0H30v-248zM63-27c89 8 146-16 146-99s-60-101-146-95v194" id="aS"/><path d="M190 0L58-211 59 0H30v-248h39L202-35l-2-213h31V0h-41" id="aT"/><g id="q"><use transform="matrix(0.05,0,0,0.05,0,0)" xlink:href="#aS"/><use transform="matrix(0.05,0,0,0.05,12.950000000000001,0)" xlink:href="#aT"/><use transform="matrix(0.05,0,0,0.05,25.900000000000002,0)" xlink:href="#ag"/></g><g id="r"><use transform="matrix(0.05,0,0,0.05,0,0)" xlink:href="#ag"/><use transform="matrix(0.05,0,0,0.05,12,0)" xlink:href="#ap"/><use transform="matrix(0.05,0,0,0.05,22,0)" xlink:href="#ai"/><use transform="matrix(0.05,0,0,0.05,27.950000000000003,0)" xlink:href="#aC"/><use transform="matrix(0.05,0,0,0.05,36.95,0)" xlink:href="#ap"/><use transform="matrix(0.05,0,0,0.05,46.95,0)" xlink:href="#ai"/></g><path d="M212-179c-10-28-35-45-73-45-59 0-87 40-87 99 0 60 29 101 89 101 43 0 62-24 78-52l27 14C228-24 195 4 139 4 59 4 22-46 18-125c-6-104 99-153 187-111 19 9 31 26 39 46" id="aU"/><path d="M210-169c-67 3-38 105-44 169h-31v-121c0-29-5-50-35-48C34-165 62-65 56 0H25l-1-190h30c1 10-1 24 2 32 10-44 99-50 107 0 11-21 27-35 58-36 85-2 47 119 55 194h-31v-121c0-29-5-49-35-48" id="aV"/><g id="s"><use transform="matrix(0.05,0,0,0.05,0,0)" xlink:href="#aU"/><use transform="matrix(0.05,0,0,0.05,12.950000000000001,0)" xlink:href="#au"/><use transform="matrix(0.05,0,0,0.05,22.950000000000003,0)" xlink:href="#al"/><use transform="matrix(0.05,0,0,0.05,31.950000000000003,0)" xlink:href="#an"/><use transform="matrix(0.05,0,0,0.05,36.95,0)" xlink:href="#aw"/><use transform="matrix(0.05,0,0,0.05,46.95,0)" xlink:href="#aV"/><use transform="matrix(0.05,0,0,0.05,61.900000000000006,0)" xlink:href="#ap"/><use transform="matrix(0.05,0,0,0.05,71.9,0)" xlink:href="#ai"/></g><path d="M177-190C167-65 218 103 67 71c-23-6-38-20-44-43l32-5c15 47 100 32 89-28v-30C133-14 115 1 83 1 29 1 15-40 15-95c0-56 16-97 71-98 29-1 48 16 59 35 1-10 0-23 2-32h30zM94-22c36 0 50-32 50-73 0-42-14-75-50-75-39 0-46 34-46 75s6 73 46 73" id="aW"/><g id="t"><use transform="matrix(0.05,0,0,0.05,0,0)" xlink:href="#aW"/><use transform="matrix(0.05,0,0,0.05,10,0)" xlink:href="#aj"/><use transform="matrix(0.05,0,0,0.05,20,0)" xlink:href="#an"/><use transform="matrix(0.05,0,0,0.05,25,0)" xlink:href="#ap"/><use transform="matrix(0.05,0,0,0.05,35,0)" xlink:href="#aq"/><use transform="matrix(0.05,0,0,0.05,47.95,0)" xlink:href="#aj"/><use transform="matrix(0.05,0,0,0.05,57.95,0)" xlink:href="#ar"/></g><path d="M137 0h-34L2-248h35l83 218 83-218h36" id="aX"/><path d="M30-248c87 1 191-15 191 75 0 78-77 80-158 76V0H30v-248zm33 125c57 0 124 11 124-50 0-59-68-47-124-48v98" id="aY"/><g id="u"><use transform="matrix(0.05,0,0,0.05,0,0)" xlink:href="#aX"/><use transform="matrix(0.05,0,0,0.05,12,0)" xlink:href="#aY"/><use transform="matrix(0.05,0,0,0.05,24,0)" xlink:href="#aT"/></g><path d="M96-169c-40 0-48 33-48 73s9 75 48 75c24 0 41-14 43-38l32 2c-6 37-31 61-74 61-59 0-76-41-82-99-10-93 101-131 147-64 4 7 5 14 7 22l-32 3c-4-21-16-35-41-35" id="aZ"/><g id="v"><use transform="matrix(0.05,0,0,0.05,0,0)" xlink:href="#aS"/><use transform="matrix(0.05,0,0,0.05,12.950000000000001,0)" xlink:href="#am"/><use transform="matrix(0.05,0,0,0.05,16.900000000000002,0)" xlink:href="#ai"/><use transform="matrix(0.05,0,0,0.05,22.85,0)" xlink:href="#ap"/><use transform="matrix(0.05,0,0,0.05,32.85,0)" xlink:href="#aZ"/><use transform="matrix(0.05,0,0,0.05,41.85,0)" xlink:href="#an"/></g><g id="w"><use transform="matrix(0.05,0,0,0.05,0,0)" xlink:href="#aU"/><use transform="matrix(0.05,0,0,0.05,12.950000000000001,0)" xlink:href="#aw"/><use transform="matrix(0.05,0,0,0.05,22.950000000000003,0)" xlink:href="#ak"/><use transform="matrix(0.05,0,0,0.05,32.95,0)" xlink:href="#ak"/><use transform="matrix(0.05,0,0,0.05,42.95,0)" xlink:href="#ap"/><use transform="matrix(0.05,0,0,0.05,52.95,0)" xlink:href="#aZ"/><use transform="matrix(0.05,0,0,0.05,61.95,0)" xlink:href="#an"/></g><g id="x"><use transform="matrix(0.05,0,0,0.05,0,0)" xlink:href="#aY"/><use transform="matrix(0.05,0,0,0.05,12,0)" xlink:href="#ai"/><use transform="matrix(0.05,0,0,0.05,17.95,0)" xlink:href="#aw"/><use transform="matrix(0.05,0,0,0.05,27.950000000000003,0)" xlink:href="#ax"/></g><g id="y"><use transform="matrix(0.05,0,0,0.05,0,0)" xlink:href="#aX"/><use transform="matrix(0.05,0,0,0.05,12,0)" xlink:href="#aY"/><use transform="matrix(0.05,0,0,0.05,24,0)" xlink:href="#aU"/></g><path d="M197 0v-115H63V0H30v-248h33v105h134v-105h34V0h-34" id="ba"/><g id="z"><use transform="matrix(0.05,0,0,0.05,0,0)" xlink:href="#ba"/><use transform="matrix(0.05,0,0,0.05,12.950000000000001,0)" xlink:href="#aw"/><use transform="matrix(0.05,0,0,0.05,22.950000000000003,0)" xlink:href="#al"/><use transform="matrix(0.05,0,0,0.05,31.950000000000003,0)" xlink:href="#an"/><use transform="matrix(0.05,0,0,0.05,36.95,0)" xlink:href="#ap"/><use transform="matrix(0.05,0,0,0.05,46.95,0)" xlink:href="#ax"/></g><path d="M209 0H11v-25l151-195H24v-28h176v25L50-27h159V0" id="bb"/><g id="A"><use transform="matrix(0.05,0,0,0.05,0,0)" xlink:href="#bb"/><use transform="matrix(0.05,0,0,0.05,10.950000000000001,0)" xlink:href="#aw"/><use transform="matrix(0.05,0,0,0.05,20.950000000000003,0)" xlink:href="#ak"/><use transform="matrix(0.05,0,0,0.05,30.950000000000003,0)" xlink:href="#ap"/></g><path d="M1165-1446v221H730V0H461v-1225H24v-221h1141" id="bc"/><path d="M604-806c-122 5-180 74-225 167V0H132v-1026c83 11 206-35 218 62l15 124c63-106 147-205 295-205 51 0 93 12 126 35l-32 185c-4 23-15 33-40 33-33 0-65-16-110-14" id="bd"/><path d="M556-1045c246 0 380 151 380 397V0c-79-6-181 23-196-53l-22-73C630-49 541 18 379 16 194 13 81-77 81-262c0-184 152-247 321-292 78-21 176-31 293-34 10-155-29-262-170-262-104 0-161 40-224 77-47 28-107 5-127-31l-45-79c118-108 260-162 427-162zM317-275c-3 86 56 121 139 121 117 0 179-51 239-111v-173c-122 6-219 17-297 53-49 22-79 51-81 110" id="be"/><path d="M605-850c-102 1-168 52-226 108V0H132v-1026c80 9 198-29 214 45l17 81c77-76 165-142 317-142 235 0 346 154 346 389V0H779v-653c0-121-55-198-174-197" id="bf"/><path d="M254-198c95 60 334 64 323-83-9-119-156-122-253-159C192-490 72-550 72-729c0-214 163-309 387-313 145-3 264 55 338 127-26 36-45 82-77 111-69 21-111-33-176-48-103-23-247 0-238 102 11 114 156 118 251 155 126 49 251 100 251 270C808-59 575 48 294 6 192-9 106-54 42-110c28-39 43-95 83-120 49-31 96 11 129 32" id="bg"/><path d="M395-1026V0H148v-1026h247zm-123-457c96 0 160 62 160 158 0 94-65 155-160 155-93 0-156-62-156-155 0-95 61-158 156-158" id="bh"/><path d="M738-75c-64 55-158 90-269 91-176 2-277-109-277-284v-573c-65-4-153 21-153-52v-98l165-27 52-280c10-66 115-35 183-42v323h270v176H439v556c-1 59 32 101 88 102 48 1 68-25 104-34 19 1 25 9 33 22" id="bi"/><g id="B"><use transform="matrix(0.009,0,0,0.009,0,0)" xlink:href="#bc"/><use transform="matrix(0.009,0,0,0.009,9.27,0)" xlink:href="#bd"/><use transform="matrix(0.009,0,0,0.009,16.362000000000002,0)" xlink:href="#be"/><use transform="matrix(0.009,0,0,0.009,25.785000000000004,0)" xlink:href="#bf"/><use transform="matrix(0.009,0,0,0.009,36.018,0)" xlink:href="#bg"/><use transform="matrix(0.009,0,0,0.009,43.88399999999999,0)" xlink:href="#bh"/><use transform="matrix(0.009,0,0,0.009,48.76200000000001,0)" xlink:href="#bi"/></g><path d="M4-1446h217c48-1 77 26 90 61 125 326 256 646 373 977 12 34 20 70 29 108 15-77 34-144 57-203l339-882c12-30 45-61 89-61h217L831 0H588" id="bj"/><path d="M1187-985c0 329-222 471-561 476H424V0H155v-1446h471c337 4 561 134 561 461zm-269 0c0-176-112-253-292-253H424v519h202c184-1 292-85 292-266" id="bk"/><path d="M1284-209C1170-69 1008 19 759 16c-347-4-553-182-649-442-66-178-66-423 6-596 108-261 330-435 688-440 220-3 375 79 488 188l-90 125c-16 32-68 39-102 12-71-55-162-101-298-96-304 11-465 201-465 510 0 241 101 401 267 477 125 58 330 39 424-24 42-17 97-111 150-54" id="bl"/><g id="C"><use transform="matrix(0.009,0,0,0.009,0,0)" xlink:href="#bj"/><use transform="matrix(0.009,0,0,0.009,12.78,0)" xlink:href="#bk"/><use transform="matrix(0.009,0,0,0.009,24.03,0)" xlink:href="#bl"/></g><path d="M361-1005c121-49 297-49 417 0 184 74 298 236 298 490 0 330-178 530-506 530C241 15 61-185 61-515c0-254 115-416 300-490zm-45 492c0 201 65 338 254 338 188 0 251-137 251-338s-63-340-251-340c-189 0-254 139-254 340" id="bm"/><path d="M502-1045c120-1 193 43 256 101v-542h247V0c-80-9-199 29-214-45l-20-99C693-58 601 15 441 15 163 15 61-217 61-510c0-241 98-411 259-494 54-27 115-41 182-41zM316-510c0 181 36 329 209 329 118 0 173-54 233-123v-460c-48-59-104-93-198-93-188 0-244 151-244 347" id="bn"/><g id="D"><use transform="matrix(0.009,0,0,0.009,0,0)" xlink:href="#bk"/><use transform="matrix(0.009,0,0,0.009,11.25,0)" xlink:href="#bd"/><use transform="matrix(0.009,0,0,0.009,18.603,0)" xlink:href="#bm"/><use transform="matrix(0.009,0,0,0.009,28.836,0)" xlink:href="#bn"/></g><path d="M9 0v-24l116-142H16v-24h144v24L44-24h123V0H9" id="bo"/><g id="E"><use transform="matrix(0.05,0,0,0.05,0,0)" xlink:href="#ae"/><use transform="matrix(0.05,0,0,0.05,12,0)" xlink:href="#aV"/><use transform="matrix(0.05,0,0,0.05,26.950000000000003,0)" xlink:href="#aj"/><use transform="matrix(0.05,0,0,0.05,36.95,0)" xlink:href="#bo"/><use transform="matrix(0.05,0,0,0.05,45.95,0)" xlink:href="#aw"/><use transform="matrix(0.05,0,0,0.05,55.95,0)" xlink:href="#ak"/></g><g id="F"><use transform="matrix(0.05,0,0,0.05,0,0)" xlink:href="#aS"/><use transform="matrix(0.05,0,0,0.05,12.950000000000001,0)" xlink:href="#aT"/><use transform="matrix(0.05,0,0,0.05,25.900000000000002,0)" xlink:href="#ag"/></g><g id="G"><use transform="matrix(0.05,0,0,0.05,0,0)" xlink:href="#aF"/><use transform="matrix(0.05,0,0,0.05,5,0)" xlink:href="#ak"/><use transform="matrix(0.05,0,0,0.05,15,0)" xlink:href="#al"/><use transform="matrix(0.05,0,0,0.05,24,0)" xlink:href="#an"/><use transform="matrix(0.05,0,0,0.05,29,0)" xlink:href="#aj"/><use transform="matrix(0.05,0,0,0.05,39,0)" xlink:href="#ak"/><use transform="matrix(0.05,0,0,0.05,49,0)" xlink:href="#aZ"/><use transform="matrix(0.05,0,0,0.05,58,0)" xlink:href="#ap"/></g><g id="I"><use transform="matrix(0.05,0,0,0.05,0,0)" xlink:href="#ay"/><use transform="matrix(0.05,0,0,0.05,12.950000000000001,0)" xlink:href="#az"/><use transform="matrix(0.05,0,0,0.05,22.950000000000003,0)" xlink:href="#aA"/></g><g id="J"><use transform="matrix(0.05,0,0,0.05,0,0)" xlink:href="#ay"/><use transform="matrix(0.05,0,0,0.05,12.950000000000001,0)" xlink:href="#au"/><use transform="matrix(0.05,0,0,0.05,22.950000000000003,0)" xlink:href="#aB"/><use transform="matrix(0.05,0,0,0.05,26.900000000000002,0)" xlink:href="#ap"/><use transform="matrix(0.05,0,0,0.05,36.900000000000006,0)" xlink:href="#al"/></g><path fill="#232f3e" d="M101-251c82-7 93 87 43 132L82-64C71-53 59-42 53-27h129V0H18c2-99 128-94 128-182 0-28-16-43-45-43s-46 15-49 41l-32-3c6-41 34-60 81-64" id="bp"/><use transform="matrix(0.05,0,0,0.05,0,0)" xlink:href="#bp" id="K"/><g id="L"><use transform="matrix(0.05,0,0,0.05,0,0)" xlink:href="#ae"/><use transform="matrix(0.05,0,0,0.05,12,0)" xlink:href="#aE"/><use transform="matrix(0.05,0,0,0.05,22,0)" xlink:href="#aE"/></g><g id="M"><use transform="matrix(0.05,0,0,0.05,0,0)" xlink:href="#aX"/><use transform="matrix(0.05,0,0,0.05,12,0)" xlink:href="#aY"/><use transform="matrix(0.05,0,0,0.05,24,0)" xlink:href="#aU"/></g><g id="N"><use transform="matrix(0.05,0,0,0.05,0,0)" xlink:href="#ba"/><use transform="matrix(0.05,0,0,0.05,12.950000000000001,0)" xlink:href="#aw"/><use transform="matrix(0.05,0,0,0.05,22.950000000000003,0)" xlink:href="#al"/><use transform="matrix(0.05,0,0,0.05,31.950000000000003,0)" xlink:href="#an"/><use transform="matrix(0.05,0,0,0.05,36.95,0)" xlink:href="#ap"/><use transform="matrix(0.05,0,0,0.05,46.95,0)" xlink:href="#ax"/></g><path d="M1417 0h-208c-47 1-77-28-90-61l-108-295H412L304-61c-11 30-46 61-89 61H6l568-1446h275zM481-546h461c-77-218-163-424-231-651-66 230-154 432-230 651" id="bq"/><path d="M635 15C514 15 442-25 379-85v420H132v-1361c64 5 145-11 192 11 33 24 28 86 42 129 78-86 174-159 331-159 277 0 379 232 379 524 0 241-96 412-258 495-54 27-116 41-183 41zm186-536c0-181-37-329-209-329-117 0-175 55-233 124v460c48 60 104 93 198 93 188 0 244-152 244-348" id="br"/><g id="O"><use transform="matrix(0.009,0,0,0.009,0,0)" xlink:href="#bq"/><use transform="matrix(0.009,0,0,0.009,12.78,0)" xlink:href="#br"/><use transform="matrix(0.009,0,0,0.009,22.958999999999993,0)" xlink:href="#br"/></g></defs></g></svg>