<svg xmlns="http://www.w3.org/2000/svg" width="819.609" height="482.942"><style>.st2{fill:#333}</style><g id="Layer_1"><linearGradient id="SVGID_1_" gradientUnits="userSpaceOnUse" x1="172.049" y1="386.752" x2="350.965" y2="386.752"><stop offset="0" stop-color="#17c9c0"/><stop offset=".168" stop-color="#00a9d7"/><stop offset=".564" stop-color="#1cd0bb"/><stop offset="1" stop-color="#0fbec8"/></linearGradient><path d="M350.965 455.553H172.049V317.95h178.916v137.603zm-171.882-7.035H343.93V324.985H179.083v123.533z" fill="url(#SVGID_1_)"/><linearGradient id="SVGID_2_" gradientUnits="userSpaceOnUse" x1="185.041" y1="397.964" x2="360.397" y2="397.964"><stop offset="0" stop-color="#17c9c0"/><stop offset=".168" stop-color="#00a9d7"/><stop offset=".564" stop-color="#1cd0bb"/><stop offset="1" stop-color="#0fbec8"/></linearGradient><path opacity=".43" fill="url(#SVGID_2_)" d="M360.396 464.986H185.041v-6.951h168.404V330.942h6.951z"/><path class="st2" d="M240.566 302.561h-2v-73.35h-108.99v-34.929h2v32.929h108.99z"/><path class="st2" d="M232.965 295.63h13.203v13.203h-13.203zM265.024 302.561h-2v-75.35h128.991v-32.929h2v34.929H265.024z"/><path class="st2" d="M257.422 295.63h13.203v13.203h-13.203zM583.853 411.942H445.604v-46.005h-73.351v-2h75.351v46.005h136.249z"/><path class="st2" d="M365.981 358.336h13.203v13.203h-13.203z"/><linearGradient id="SVGID_3_" gradientUnits="userSpaceOnUse" x1="28.523" y1="112.706" x2="232.628" y2="112.706"><stop offset="0" stop-color="#17c9c0"/><stop offset=".168" stop-color="#00a9d7"/><stop offset=".564" stop-color="#1cd0bb"/><stop offset="1" stop-color="#0fbec8"/></linearGradient><path d="M232.628 197.758H28.523V27.654h204.105v170.104zm-197.152-6.952h190.201v-156.2H35.476v156.2z" fill="url(#SVGID_3_)"/><linearGradient id="SVGID_4_" gradientUnits="userSpaceOnUse" x1="271.304" y1="112.706" x2="495.408" y2="112.706"><stop offset="0" stop-color="#17c9c0"/><stop offset=".168" stop-color="#00a9d7"/><stop offset=".564" stop-color="#1cd0bb"/><stop offset="1" stop-color="#0fbec8"/></linearGradient><path d="M495.408 197.758H271.304V27.654h224.104v170.104zm-217.152-6.952h210.201v-156.2H278.256v156.2z" fill="url(#SVGID_4_)"/><linearGradient id="SVGID_5_" gradientUnits="userSpaceOnUse" x1="41.658" y1="123.592" x2="242.287" y2="123.592"><stop offset="0" stop-color="#17c9c0"/><stop offset=".168" stop-color="#00a9d7"/><stop offset=".564" stop-color="#1cd0bb"/><stop offset="1" stop-color="#0fbec8"/></linearGradient><path opacity=".43" fill="url(#SVGID_5_)" d="M242.287 206.906H41.658v-6.951h193.677V40.278h6.952z"/><linearGradient id="SVGID_6_" gradientUnits="userSpaceOnUse" x1="284.438" y1="123.592" x2="505.066" y2="123.592"><stop offset="0" stop-color="#17c9c0"/><stop offset=".168" stop-color="#00a9d7"/><stop offset=".564" stop-color="#1cd0bb"/><stop offset="1" stop-color="#0fbec8"/></linearGradient><path opacity=".43" fill="url(#SVGID_6_)" d="M505.066 206.906H284.438v-6.951h213.677V40.278h6.951z"/><path class="st2" d="M35.394 12.803h-2.875v-1.477h7.358v1.477H37v7.592h-1.606v-7.592zM42.455 11.326h1.594v9.068h-1.594v-9.068zM47.275 11.326h1.697l2.759 4.288 2.759-4.288h1.697v9.068h-1.593v-6.503l-2.863 4.274h-.051l-2.837-4.249v6.478h-1.567v-9.068zM59.324 11.326h6.724v1.425h-5.13v2.358h4.547v1.425h-4.547v2.436h5.194v1.425h-6.788v-9.069zM172.087 307.512l.958-1.141c.868.752 1.749 1.18 2.863 1.18.984 0 1.606-.467 1.606-1.141v-.025c0-.648-.363-.998-2.047-1.387-1.93-.467-3.019-1.037-3.019-2.707v-.027c0-1.555 1.296-2.629 3.096-2.629 1.322 0 2.371.402 3.291 1.141l-.855 1.203c-.816-.607-1.632-.932-2.461-.932-.933 0-1.477.479-1.477 1.074v.027c0 .699.414 1.01 2.163 1.424 1.917.467 2.902 1.154 2.902 2.656v.025c0 1.697-1.335 2.709-3.239 2.709a5.576 5.576 0 0 1-3.781-1.45zM184.809 299.7h1.477l3.99 9.133h-1.684l-.92-2.189h-4.288l-.933 2.189h-1.632l3.99-9.133zm2.28 5.531l-1.567-3.627-1.555 3.627h3.122zM192.636 299.764h1.593v7.617h4.768v1.451h-6.36v-9.068zM201.458 299.764h6.723v1.426h-5.13v2.357h4.547v1.426h-4.547v2.436h5.195v1.424h-6.788v-9.069zM210.333 307.512l.958-1.141c.868.752 1.749 1.18 2.863 1.18.984 0 1.606-.467 1.606-1.141v-.025c0-.648-.363-.998-2.047-1.387-1.931-.467-3.019-1.037-3.019-2.707v-.027c0-1.555 1.295-2.629 3.096-2.629 1.322 0 2.371.402 3.291 1.141l-.855 1.203c-.816-.607-1.632-.932-2.461-.932-.933 0-1.477.479-1.477 1.074v.027c0 .699.415 1.01 2.164 1.424 1.917.467 2.902 1.154 2.902 2.656v.025c0 1.697-1.334 2.709-3.239 2.709a5.58 5.58 0 0 1-3.782-1.45zM273.067 11.326h3.576c2.125 0 3.446 1.205 3.446 3.031v.026c0 2.033-1.632 3.096-3.627 3.096h-1.801v2.915h-1.594v-9.068zm3.447 4.716c1.205 0 1.956-.674 1.956-1.619v-.026c0-1.062-.765-1.619-1.956-1.619h-1.853v3.265h1.853zM282.525 11.326h4.042c1.14 0 2.034.337 2.617.907.479.492.751 1.166.751 1.956v.025c0 1.49-.894 2.384-2.15 2.747l2.448 3.433h-1.891l-2.228-3.161h-1.995v3.161h-1.594v-9.068zm3.926 4.495c1.14 0 1.865-.596 1.865-1.516v-.025c0-.972-.7-1.503-1.878-1.503h-2.319v3.044h2.332zM292.295 15.886v-.026c0-2.552 1.969-4.689 4.754-4.689 2.785 0 4.728 2.111 4.728 4.663v.026c0 2.552-1.969 4.689-4.754 4.689s-4.728-2.111-4.728-4.663zm7.811 0v-.026c0-1.762-1.282-3.226-3.083-3.226s-3.058 1.438-3.058 3.199v.026c0 1.762 1.283 3.213 3.083 3.213 1.802.001 3.058-1.424 3.058-3.186zM304.513 11.326h3.381c2.851 0 4.819 1.956 4.819 4.508v.026c0 2.552-1.969 4.534-4.819 4.534h-3.381v-9.068zm1.592 1.451v6.166h1.788c1.904 0 3.147-1.282 3.147-3.057v-.026c0-1.774-1.243-3.083-3.147-3.083h-1.788zM315.305 16.547v-5.221h1.594v5.156c0 1.684.868 2.578 2.293 2.578 1.412 0 2.28-.843 2.28-2.514v-5.221h1.593v5.144c0 2.707-1.528 4.067-3.898 4.067-2.359.001-3.862-1.359-3.862-3.989zM325.657 15.886v-.026c0-2.578 1.931-4.689 4.677-4.689 1.671 0 2.682.583 3.549 1.412l-1.023 1.179c-.725-.674-1.502-1.127-2.539-1.127-1.723 0-2.992 1.425-2.992 3.199v.026c0 1.774 1.257 3.213 2.992 3.213 1.115 0 1.827-.44 2.604-1.166l1.023 1.036c-.946.984-1.982 1.606-3.679 1.606-2.643.001-4.612-2.059-4.612-4.663zM338.652 12.802h-2.877v-1.477h7.359v1.477h-2.877v7.592h-1.605v-7.592zM52.955 47.418h-2.876v-1.477h7.358v1.477h-2.876v7.592h-1.606v-7.592zM60.017 45.942h1.593v9.068h-1.593v-9.068zM64.836 45.942h1.697l2.759 4.288 2.759-4.288h1.697v9.068h-1.594v-6.503l-2.863 4.274h-.052l-2.837-4.249v6.478h-1.567v-9.068zM76.886 45.942h6.723v1.425h-5.13v2.358h4.547v1.425h-4.547v2.436h5.195v1.425h-6.788v-9.069z"/><g><path class="st2" d="M290.629 45.941h3.575c2.125 0 3.446 1.205 3.446 3.031v.026c0 2.033-1.632 3.096-3.627 3.096h-1.801v2.915h-1.593v-9.068zm3.445 4.716c1.205 0 1.957-.674 1.957-1.619v-.026c0-1.062-.764-1.619-1.957-1.619h-1.853v3.265h1.853zM300.087 45.941h4.042c1.14 0 2.034.337 2.617.907.479.492.751 1.166.751 1.956v.025c0 1.49-.894 2.384-2.15 2.747l2.449 3.433h-1.892l-2.229-3.161h-1.995v3.161h-1.593v-9.068zm3.925 4.495c1.14 0 1.866-.596 1.866-1.516v-.025c0-.972-.7-1.503-1.878-1.503h-2.319v3.044h2.331zM309.855 50.502v-.026c0-2.552 1.97-4.689 4.755-4.689s4.729 2.111 4.729 4.663v.026c0 2.552-1.97 4.689-4.755 4.689s-4.729-2.112-4.729-4.663zm7.813 0v-.026c0-1.762-1.283-3.226-3.084-3.226s-3.057 1.438-3.057 3.199v.026c0 1.762 1.282 3.213 3.083 3.213s3.058-1.425 3.058-3.186zM322.073 45.941h3.382c2.85 0 4.818 1.956 4.818 4.508v.026c0 2.552-1.969 4.534-4.818 4.534h-3.382v-9.068zm1.594 1.451v6.166h1.788c1.904 0 3.147-1.282 3.147-3.057v-.026c0-1.774-1.243-3.083-3.147-3.083h-1.788zM332.866 51.162v-5.221h1.593v5.156c0 1.684.868 2.578 2.293 2.578 1.412 0 2.28-.843 2.28-2.514V45.94h1.594v5.144c0 2.707-1.528 4.067-3.899 4.067-2.358.001-3.861-1.359-3.861-3.989zM343.219 50.502v-.026c0-2.578 1.93-4.689 4.676-4.689 1.672 0 2.682.583 3.55 1.412l-1.023 1.179c-.726-.674-1.503-1.127-2.539-1.127-1.723 0-2.992 1.425-2.992 3.199v.026c0 1.774 1.257 3.213 2.992 3.213 1.114 0 1.827-.44 2.604-1.166l1.023 1.036c-.946.984-1.982 1.606-3.68 1.606-2.642 0-4.611-2.06-4.611-4.663zM356.213 47.418h-2.876v-1.477h7.358v1.477h-2.876v7.592h-1.606v-7.592zM367.965 45.941h1.594v9.068h-1.594v-9.068zM372.784 45.941h3.381c2.851 0 4.819 1.956 4.819 4.508v.026c0 2.552-1.969 4.534-4.819 4.534h-3.381v-9.068zm1.593 1.451v6.166h1.788c1.904 0 3.148-1.282 3.148-3.057v-.026c0-1.774-1.244-3.083-3.148-3.083h-1.788z"/></g><g><path class="st2" d="M50.727 74.216h3.381c2.85 0 4.819 1.956 4.819 4.508v.026c0 2.552-1.969 4.534-4.819 4.534h-3.381v-9.068zm1.593 1.451v6.166h1.788c1.904 0 3.148-1.282 3.148-3.057v-.026c0-1.774-1.244-3.083-3.148-3.083H52.32zM64.24 74.151h1.477l3.99 9.133h-1.684l-.92-2.189h-4.288l-.933 2.189H60.25l3.99-9.133zm2.28 5.531l-1.567-3.627-1.555 3.627h3.122zM73.128 75.692h-2.875v-1.477h7.358v1.477h-2.876v7.592h-1.606v-7.592zM80.099 74.216h6.723v1.425h-5.13v2.358h4.547v1.425h-4.547v2.436h5.195v1.425h-6.788v-9.069zM94.273 74.216h3.381c2.85 0 4.819 1.956 4.819 4.508v.026c0 2.552-1.969 4.534-4.819 4.534h-3.381v-9.068zm1.593 1.451v6.166h1.788c1.904 0 3.148-1.282 3.148-3.057v-.026c0-1.774-1.244-3.083-3.148-3.083h-1.788zM105.208 74.216h6.724v1.425h-5.13v2.358h4.547v1.425h-4.547v2.436h5.194v1.425h-6.788v-9.069zM114.083 81.963l.959-1.14c.868.751 1.749 1.179 2.863 1.179.985 0 1.606-.467 1.606-1.141v-.025c0-.647-.363-.998-2.047-1.387-1.93-.466-3.019-1.036-3.019-2.707v-.026c0-1.555 1.295-2.63 3.096-2.63 1.321 0 2.371.402 3.291 1.141l-.855 1.204c-.816-.608-1.632-.933-2.461-.933-.933 0-1.477.479-1.477 1.075v.026c0 .699.415 1.011 2.164 1.425 1.917.467 2.901 1.153 2.901 2.656v.025c0 1.697-1.334 2.708-3.238 2.708a5.582 5.582 0 0 1-3.783-1.45zM123.386 78.776v-.026c0-2.578 1.931-4.689 4.677-4.689 1.671 0 2.682.583 3.55 1.412l-1.023 1.179c-.726-.674-1.503-1.127-2.539-1.127-1.723 0-2.993 1.425-2.993 3.199v.026c0 1.774 1.256 3.213 2.993 3.213 1.114 0 1.826-.44 2.604-1.166l1.023 1.036c-.945.984-1.982 1.606-3.679 1.606-2.644 0-4.613-2.059-4.613-4.663zM134.152 74.216h4.042c1.14 0 2.034.337 2.617.907.479.492.751 1.166.751 1.956v.025c0 1.49-.894 2.384-2.15 2.747l2.448 3.433h-1.891l-2.228-3.161h-1.995v3.161h-1.594v-9.068zm3.926 4.495c1.14 0 1.865-.596 1.865-1.516v-.025c0-.972-.7-1.503-1.878-1.503h-2.319v3.044h2.332zM144.414 74.216h1.593v9.068h-1.593v-9.068zM149.233 74.216h3.575c2.125 0 3.446 1.205 3.446 3.031v.026c0 2.033-1.632 3.096-3.627 3.096h-1.801v2.915h-1.593v-9.068zm3.446 4.715c1.205 0 1.957-.674 1.957-1.619v-.026c0-1.062-.765-1.619-1.957-1.619h-1.853v3.265h1.853zM160.92 75.692h-2.876v-1.477h7.358v1.477h-2.876v7.592h-1.606v-7.592zM167.981 74.216h1.593v9.068h-1.593v-9.068zM172.399 78.776v-.026c0-2.552 1.969-4.689 4.754-4.689s4.729 2.111 4.729 4.663v.026c0 2.552-1.969 4.689-4.754 4.689-2.786 0-4.729-2.111-4.729-4.663zm7.812 0v-.026c0-1.762-1.283-3.226-3.083-3.226-1.8 0-3.057 1.438-3.057 3.199v.026c0 1.762 1.282 3.213 3.083 3.213s3.057-1.424 3.057-3.186zM184.617 74.216h1.477l4.858 6.271v-6.271h1.568v9.068h-1.335l-5-6.451v6.451h-1.567v-9.068zM50.727 93.216h1.697l2.759 4.288 2.759-4.288h1.697v9.068h-1.594v-6.503l-2.863 4.274h-.052l-2.837-4.249v6.478h-1.567v-9.068zM62.375 97.776v-.026c0-2.552 1.969-4.689 4.754-4.689s4.729 2.111 4.729 4.663v.026c0 2.552-1.969 4.689-4.754 4.689-2.787 0-4.729-2.111-4.729-4.663zm7.811 0v-.026c0-1.762-1.283-3.226-3.083-3.226-1.801 0-3.057 1.438-3.057 3.199v.026c0 1.762 1.282 3.213 3.083 3.213s3.057-1.424 3.057-3.186zM74.593 93.216h1.477l4.858 6.271v-6.271h1.568v9.068H81.16l-5-6.451v6.451h-1.567v-9.068zM87.859 94.692h-2.876v-1.477h7.358v1.477h-2.876v7.592h-1.606v-7.592zM94.83 93.216h1.593v3.77h4.327v-3.77h1.594v9.068h-1.594v-3.821h-4.327v3.821H94.83v-9.068zM50.727 112.216h1.697l2.759 4.288 2.759-4.288h1.697v9.068h-1.594v-6.503l-2.863 4.274h-.052l-2.837-4.249v6.478h-1.567v-9.068zM62.375 116.776v-.026c0-2.552 1.969-4.689 4.754-4.689s4.729 2.111 4.729 4.663v.026c0 2.552-1.969 4.689-4.754 4.689-2.787 0-4.729-2.111-4.729-4.663zm7.811 0v-.026c0-1.762-1.283-3.226-3.083-3.226-1.801 0-3.057 1.438-3.057 3.199v.026c0 1.762 1.282 3.213 3.083 3.213s3.057-1.424 3.057-3.186zM74.593 112.216h1.477l4.858 6.271v-6.271h1.568v9.068H81.16l-5-6.451v6.451h-1.567v-9.068zM87.859 113.692h-2.876v-1.477h7.358v1.477h-2.876v7.592h-1.606v-7.592zM94.83 112.216h1.593v3.77h4.327v-3.77h1.594v9.068h-1.594v-3.821h-4.327v3.821H94.83v-9.068zM110.17 112.216h3.381c2.85 0 4.819 1.956 4.819 4.508v.026c0 2.552-1.969 4.534-4.819 4.534h-3.381v-9.068zm1.594 1.451v6.166h1.788c1.904 0 3.148-1.282 3.148-3.057v-.026c0-1.774-1.244-3.083-3.148-3.083h-1.788zM121.105 112.216h6.723v1.425h-5.13v2.358h4.547v1.425h-4.547v2.436h5.195v1.425h-6.788v-9.069zM129.98 119.963l.958-1.14c.868.751 1.749 1.179 2.863 1.179.985 0 1.606-.467 1.606-1.141v-.025c0-.647-.362-.998-2.047-1.387-1.93-.466-3.019-1.036-3.019-2.707v-.026c0-1.555 1.296-2.63 3.097-2.63 1.321 0 2.371.402 3.29 1.141l-.854 1.204c-.816-.608-1.633-.933-2.462-.933-.933 0-1.477.479-1.477 1.075v.026c0 .699.415 1.011 2.164 1.425 1.917.467 2.902 1.153 2.902 2.656v.025c0 1.697-1.334 2.708-3.239 2.708a5.583 5.583 0 0 1-3.782-1.45zM139.283 116.776v-.026c0-2.578 1.93-4.689 4.676-4.689 1.671 0 2.682.583 3.549 1.412l-1.023 1.179c-.725-.674-1.502-1.127-2.539-1.127-1.723 0-2.992 1.425-2.992 3.199v.026c0 1.774 1.257 3.213 2.992 3.213 1.114 0 1.827-.44 2.604-1.166l1.023 1.036c-.946.984-1.982 1.606-3.68 1.606-2.641 0-4.61-2.059-4.61-4.663zM150.05 112.216h4.042c1.14 0 2.034.337 2.617.907.479.492.751 1.166.751 1.956v.025c0 1.49-.894 2.384-2.15 2.747l2.449 3.433h-1.892l-2.229-3.161h-1.995v3.161h-1.593v-9.068zm3.925 4.495c1.14 0 1.866-.596 1.866-1.516v-.025c0-.972-.7-1.503-1.878-1.503h-2.319v3.044h2.331zM160.311 112.216h1.594v9.068h-1.594v-9.068zM165.131 112.216h3.575c2.125 0 3.446 1.205 3.446 3.031v.026c0 2.033-1.632 3.096-3.627 3.096h-1.801v2.915h-1.593v-9.068zm3.445 4.715c1.205 0 1.957-.674 1.957-1.619v-.026c0-1.062-.764-1.619-1.957-1.619h-1.853v3.265h1.853zM176.816 113.692h-2.875v-1.477h7.358v1.477h-2.876v7.592h-1.606v-7.592zM183.878 112.216h1.594v9.068h-1.594v-9.068zM188.296 116.776v-.026c0-2.552 1.969-4.689 4.754-4.689s4.729 2.111 4.729 4.663v.026c0 2.552-1.969 4.689-4.754 4.689-2.786 0-4.729-2.111-4.729-4.663zm7.812 0v-.026c0-1.762-1.283-3.226-3.083-3.226-1.801 0-3.057 1.438-3.057 3.199v.026c0 1.762 1.282 3.213 3.083 3.213s3.057-1.424 3.057-3.186zM200.514 112.216h1.477l4.858 6.271v-6.271h1.567v9.068h-1.334l-5.001-6.451v6.451h-1.567v-9.068zM53.396 136.709l-3.602-5.493h1.892l2.526 4.003 2.565-4.003h1.827l-3.602 5.454v3.614h-1.606v-3.575zM60.807 131.216h6.724v1.425H62.4v2.358h4.547v1.425H62.4v2.436h5.195v1.425h-6.788v-9.069zM73.503 131.151h1.477l3.99 9.133h-1.684l-.92-2.189h-4.288l-.933 2.189h-1.632l3.99-9.133zm2.28 5.531l-1.567-3.627-1.555 3.627h3.122zM81.329 131.216h4.042c1.14 0 2.034.337 2.617.907.479.492.751 1.166.751 1.956v.025c0 1.49-.894 2.384-2.15 2.747l2.448 3.433h-1.891l-2.228-3.161h-1.995v3.161h-1.594v-9.068zm3.926 4.495c1.14 0 1.865-.596 1.865-1.516v-.025c0-.972-.7-1.503-1.878-1.503h-2.319v3.044h2.332zM50.027 150.216h1.723l2.164 6.724 2.228-6.749h1.348l2.228 6.749 2.164-6.724h1.671l-3.148 9.133h-1.386l-2.228-6.516-2.228 6.516h-1.374l-3.162-9.133zM65.989 150.216h6.724v1.425h-5.13v2.358h4.547v1.425h-4.547v2.436h5.195v1.425H65.99v-9.069zM75.474 150.216h6.723v1.425h-5.13v2.358h4.547v1.425h-4.547v2.436h5.195v1.425h-6.788v-9.069zM84.957 150.216h1.594v4.561l4.313-4.561h1.97l-3.783 3.899 3.951 5.169h-1.943l-3.096-4.081-1.412 1.451v2.63h-1.594v-9.068zM50.027 169.216h1.723l2.164 6.724 2.228-6.749h1.348l2.228 6.749 2.164-6.724h1.671l-3.148 9.133h-1.386l-2.228-6.516-2.228 6.516h-1.374l-3.162-9.133zM65.989 169.216h6.724v1.425h-5.13v2.358h4.547v1.425h-4.547v2.436h5.195v1.425H65.99v-9.069zM75.474 169.216h6.723v1.425h-5.13v2.358h4.547v1.425h-4.547v2.436h5.195v1.425h-6.788v-9.069zM84.957 169.216h1.594v4.561l4.313-4.561h1.97l-3.783 3.899 3.951 5.169h-1.943l-3.096-4.081-1.412 1.451v2.63h-1.594v-9.068zM99.857 169.216h3.381c2.85 0 4.819 1.956 4.819 4.508v.026c0 2.552-1.969 4.534-4.819 4.534h-3.381v-9.068zm1.593 1.451v6.166h1.788c1.904 0 3.147-1.282 3.147-3.057v-.026c0-1.774-1.243-3.083-3.147-3.083h-1.788zM110.792 169.216h6.724v1.425h-5.13v2.358h4.547v1.425h-4.547v2.436h5.195v1.425h-6.788v-9.069zM119.667 176.963l.958-1.14c.868.751 1.749 1.179 2.863 1.179.985 0 1.606-.467 1.606-1.141v-.025c0-.647-.362-.998-2.047-1.387-1.93-.466-3.019-1.036-3.019-2.707v-.026c0-1.555 1.296-2.63 3.097-2.63 1.321 0 2.371.402 3.29 1.141l-.854 1.204c-.816-.608-1.633-.933-2.462-.933-.933 0-1.477.479-1.477 1.075v.026c0 .699.415 1.011 2.164 1.425 1.917.467 2.902 1.153 2.902 2.656v.025c0 1.697-1.334 2.708-3.239 2.708a5.581 5.581 0 0 1-3.782-1.45zM128.97 173.776v-.026c0-2.578 1.93-4.689 4.677-4.689 1.671 0 2.682.583 3.549 1.412l-1.023 1.179c-.725-.674-1.502-1.127-2.539-1.127-1.723 0-2.993 1.425-2.993 3.199v.026c0 1.774 1.257 3.213 2.993 3.213 1.114 0 1.827-.44 2.604-1.166l1.023 1.036c-.946.984-1.982 1.606-3.679 1.606-2.644 0-4.612-2.059-4.612-4.663zM139.736 169.216h4.042c1.14 0 2.034.337 2.617.907.479.492.751 1.166.751 1.956v.025c0 1.49-.894 2.384-2.15 2.747l2.448 3.433h-1.892l-2.228-3.161h-1.995v3.161h-1.593v-9.068zm3.926 4.495c1.14 0 1.866-.596 1.866-1.516v-.025c0-.972-.7-1.503-1.879-1.503h-2.319v3.044h2.332zM149.998 169.216h1.593v9.068h-1.593v-9.068zM154.817 169.216h3.575c2.125 0 3.446 1.205 3.446 3.031v.026c0 2.033-1.632 3.096-3.627 3.096h-1.801v2.915h-1.593v-9.068zm3.446 4.715c1.205 0 1.957-.674 1.957-1.619v-.026c0-1.062-.764-1.619-1.957-1.619h-1.853v3.265h1.853zM166.503 170.692h-2.876v-1.477h7.358v1.477h-2.876v7.592h-1.606v-7.592zM173.565 169.216h1.593v9.068h-1.593v-9.068zM177.983 173.776v-.026c0-2.552 1.969-4.689 4.754-4.689s4.729 2.111 4.729 4.663v.026c0 2.552-1.969 4.689-4.754 4.689-2.786 0-4.729-2.111-4.729-4.663zm7.811 0v-.026c0-1.762-1.283-3.226-3.083-3.226-1.801 0-3.057 1.438-3.057 3.199v.026c0 1.762 1.282 3.213 3.083 3.213s3.057-1.424 3.057-3.186zM190.201 169.216h1.477l4.858 6.271v-6.271h1.568v9.068h-1.335l-5-6.451v6.451h-1.567v-9.068z"/></g><g><path class="st2" d="M193.559 344.356l.958-1.141c.868.752 1.749 1.18 2.863 1.18.984 0 1.606-.467 1.606-1.141v-.025c0-.648-.363-.998-2.047-1.387-1.93-.467-3.019-1.037-3.019-2.707v-.027c0-1.555 1.296-2.629 3.096-2.629 1.322 0 2.371.402 3.291 1.141l-.855 1.203c-.816-.607-1.632-.932-2.461-.932-.933 0-1.477.479-1.477 1.074v.027c0 .699.414 1.01 2.163 1.424 1.917.467 2.902 1.154 2.902 2.656v.025c0 1.697-1.335 2.709-3.239 2.709a5.579 5.579 0 0 1-3.781-1.45zM205.296 338.085h-2.875v-1.477h7.358v1.477h-2.876v7.592h-1.606v-7.592zM211.374 341.169v-.025c0-2.553 1.969-4.689 4.754-4.689s4.729 2.111 4.729 4.662v.027c0 2.551-1.969 4.689-4.754 4.689-2.787 0-4.729-2.112-4.729-4.664zm7.811 0v-.025c0-1.762-1.283-3.227-3.083-3.227-1.801 0-3.057 1.438-3.057 3.199v.027c0 1.762 1.282 3.213 3.083 3.213s3.057-1.426 3.057-3.187zM223.591 336.608h4.042c1.14 0 2.034.338 2.617.908.479.492.751 1.166.751 1.955v.025c0 1.49-.894 2.385-2.15 2.748l2.448 3.432h-1.891l-2.228-3.16h-1.995v3.16h-1.594v-9.068zm3.926 4.496c1.14 0 1.865-.596 1.865-1.516v-.025c0-.973-.7-1.504-1.878-1.504h-2.319v3.045h2.332zM233.762 336.608h6.724v1.426h-5.13v2.357h4.547v1.426h-4.547v2.436h5.195v1.424h-6.788v-9.069zM248.026 336.608h1.594v9.068h-1.594v-9.068zM252.846 336.608h3.381c2.85 0 4.819 1.957 4.819 4.508v.027c0 2.551-1.969 4.533-4.819 4.533h-3.381v-9.068zm1.593 1.451v6.166h1.788c1.904 0 3.148-1.281 3.148-3.057v-.025c0-1.775-1.244-3.084-3.148-3.084h-1.788zM268.121 341.96c0-2.449 1.231-4.25 3.589-5.545l.687 1.049c-1.84 1.219-2.708 2.564-2.708 4.496 0 1.93.868 3.264 2.708 4.494l-.687 1.049c-2.358-1.295-3.589-3.096-3.589-5.543zM274.988 336.608h6.749v1.451h-5.156v2.475h4.573v1.451h-4.573v3.691h-1.593v-9.068zM284.291 336.608h1.593v4.561l4.314-4.561h1.969l-3.783 3.9 3.951 5.168h-1.943l-3.096-4.08-1.412 1.451v2.629h-1.593v-9.068zM293.956 346.454c1.84-1.23 2.708-2.564 2.708-4.494 0-1.932-.868-3.277-2.708-4.496l.687-1.049c2.358 1.295 3.589 3.096 3.589 5.545 0 2.447-1.231 4.248-3.589 5.543l-.687-1.049zM194.167 355.608h3.576c2.125 0 3.446 1.205 3.446 3.031v.027c0 2.033-1.632 3.096-3.627 3.096h-1.801v2.914h-1.594v-9.068zm3.446 4.717c1.205 0 1.956-.674 1.956-1.619v-.027c0-1.062-.765-1.619-1.956-1.619h-1.853v3.266h1.853zM203.625 355.608h4.042c1.14 0 2.034.338 2.617.908.479.492.751 1.166.751 1.955v.025c0 1.49-.894 2.385-2.15 2.748l2.448 3.432h-1.891l-2.228-3.16h-1.995v3.16h-1.594v-9.068zm3.926 4.496c1.14 0 1.865-.596 1.865-1.516v-.025c0-.973-.7-1.504-1.878-1.504h-2.319v3.045h2.332zM213.395 360.169v-.025c0-2.553 1.969-4.689 4.754-4.689 2.785 0 4.728 2.111 4.728 4.662v.027c0 2.551-1.969 4.689-4.754 4.689s-4.728-2.112-4.728-4.664zm7.811 0v-.025c0-1.762-1.282-3.227-3.083-3.227s-3.058 1.438-3.058 3.199v.027c0 1.762 1.283 3.213 3.083 3.213 1.801 0 3.058-1.426 3.058-3.187zM225.612 355.608h3.381c2.85 0 4.819 1.957 4.819 4.508v.027c0 2.551-1.969 4.533-4.819 4.533h-3.381v-9.068zm1.593 1.451v6.166h1.788c1.904 0 3.148-1.281 3.148-3.057v-.025c0-1.775-1.244-3.084-3.148-3.084h-1.788zM236.404 360.829v-5.221h1.594v5.156c0 1.684.868 2.578 2.293 2.578 1.412 0 2.28-.842 2.28-2.514v-5.221h1.593v5.145c0 2.707-1.528 4.066-3.899 4.066-2.358.001-3.861-1.358-3.861-3.989zM246.757 360.169v-.025c0-2.578 1.93-4.689 4.677-4.689 1.671 0 2.682.582 3.549 1.412l-1.023 1.178c-.725-.674-1.502-1.127-2.539-1.127-1.723 0-2.993 1.426-2.993 3.199v.027c0 1.773 1.257 3.213 2.993 3.213 1.114 0 1.827-.441 2.604-1.166l1.023 1.035c-.946.984-1.982 1.607-3.679 1.607-2.643 0-4.612-2.061-4.612-4.664zM259.751 357.085h-2.876v-1.477h7.358v1.477h-2.876v7.592h-1.606v-7.592zM271.503 355.608h1.594v9.068h-1.594v-9.068zM276.323 355.608h3.381c2.85 0 4.819 1.957 4.819 4.508v.027c0 2.551-1.969 4.533-4.819 4.533h-3.381v-9.068zm1.593 1.451v6.166h1.788c1.904 0 3.147-1.281 3.147-3.057v-.025c0-1.775-1.243-3.084-3.147-3.084h-1.788zM291.598 360.96c0-2.449 1.231-4.25 3.589-5.545l.687 1.049c-1.84 1.219-2.708 2.564-2.708 4.496 0 1.93.868 3.264 2.708 4.494l-.687 1.049c-2.358-1.295-3.589-3.096-3.589-5.543zM298.465 355.608h6.749v1.451h-5.156v2.475h4.573v1.451h-4.573v3.691h-1.593v-9.068zM307.768 355.608h1.593v4.561l4.314-4.561h1.969l-3.782 3.9 3.951 5.168h-1.943l-3.097-4.08-1.412 1.451v2.629h-1.593v-9.068zM317.433 365.454c1.84-1.23 2.708-2.564 2.708-4.494 0-1.932-.868-3.277-2.708-4.496l.687-1.049c2.357 1.295 3.589 3.096 3.589 5.545 0 2.447-1.231 4.248-3.589 5.543l-.687-1.049zM194.167 374.608h3.381c2.85 0 4.819 1.957 4.819 4.508v.027c0 2.551-1.969 4.533-4.819 4.533h-3.381v-9.068zm1.594 1.451v6.166h1.788c1.904 0 3.148-1.281 3.148-3.057v-.025c0-1.775-1.244-3.084-3.148-3.084h-1.788zM207.68 374.544h1.477l3.99 9.133h-1.684l-.92-2.189h-4.288l-.933 2.189h-1.632l3.99-9.133zm2.28 5.531l-1.567-3.627-1.555 3.627h3.122zM216.568 376.085h-2.875v-1.477h7.358v1.477h-2.876v7.592h-1.606v-7.592zM223.54 374.608h6.723v1.426h-5.13v2.357h4.547v1.426h-4.547v2.436h5.195v1.424h-6.788v-9.069zM237.364 379.96c0-2.449 1.231-4.25 3.588-5.545l.687 1.049c-1.839 1.219-2.708 2.564-2.708 4.496 0 1.93.868 3.264 2.708 4.494l-.687 1.049c-2.357-1.295-3.588-3.096-3.588-5.543zM244.23 374.608h6.749v1.451h-5.156v2.475h4.573v1.451h-4.573v3.691h-1.593v-9.068zM253.533 374.608h1.593v4.561l4.314-4.561h1.969l-3.783 3.9 3.951 5.168h-1.943l-3.097-4.08-1.412 1.451v2.629h-1.593v-9.068zM263.198 384.454c1.84-1.23 2.708-2.564 2.708-4.494 0-1.932-.868-3.277-2.708-4.496l.687-1.049c2.358 1.295 3.589 3.096 3.589 5.545 0 2.447-1.23 4.248-3.589 5.543l-.687-1.049zM194.258 405.608h1.594v9.068h-1.594v-9.068zM201.306 407.085h-2.876v-1.477h7.358v1.477h-2.876v7.592h-1.606v-7.592zM208.276 405.608H215v1.426h-5.13v2.357h4.547v1.426h-4.547v2.436h5.194v1.424h-6.788v-9.069zM217.761 405.608h1.697l2.759 4.289 2.759-4.289h1.697v9.068h-1.593v-6.502l-2.863 4.273h-.052l-2.837-4.248v6.477h-1.567v-9.068zM229.201 413.356l.958-1.141c.868.752 1.749 1.18 2.863 1.18.984 0 1.606-.467 1.606-1.141v-.025c0-.648-.363-.998-2.047-1.387-1.93-.467-3.019-1.037-3.019-2.707v-.027c0-1.555 1.296-2.629 3.096-2.629 1.322 0 2.371.402 3.291 1.141l-.855 1.203c-.816-.607-1.632-.932-2.461-.932-.933 0-1.477.479-1.477 1.074v.027c0 .699.414 1.01 2.163 1.424 1.917.467 2.902 1.154 2.902 2.656v.025c0 1.697-1.335 2.709-3.239 2.709a5.582 5.582 0 0 1-3.781-1.45zM242.986 413.356l.958-1.141c.868.752 1.749 1.18 2.863 1.18.985 0 1.606-.467 1.606-1.141v-.025c0-.648-.362-.998-2.047-1.387-1.93-.467-3.019-1.037-3.019-2.707v-.027c0-1.555 1.296-2.629 3.097-2.629 1.321 0 2.371.402 3.29 1.141l-.854 1.203c-.816-.607-1.633-.932-2.462-.932-.933 0-1.477.479-1.477 1.074v.027c0 .699.415 1.01 2.164 1.424 1.917.467 2.902 1.154 2.902 2.656v.025c0 1.697-1.334 2.709-3.239 2.709a5.583 5.583 0 0 1-3.782-1.45zM252.289 410.169v-.025c0-2.553 1.969-4.689 4.754-4.689s4.729 2.111 4.729 4.662v.027c0 2.551-1.969 4.689-4.754 4.689-2.786 0-4.729-2.112-4.729-4.664zm7.812 0v-.025c0-1.762-1.283-3.227-3.083-3.227-1.8 0-3.057 1.438-3.057 3.199v.027c0 1.762 1.282 3.213 3.083 3.213s3.057-1.426 3.057-3.187zM264.507 405.608h1.593v7.617h4.768v1.451h-6.36v-9.068zM273.33 405.608h3.381c2.85 0 4.819 1.957 4.819 4.508v.027c0 2.551-1.969 4.533-4.819 4.533h-3.381v-9.068zm1.593 1.451v6.166h1.788c1.904 0 3.147-1.281 3.147-3.057v-.025c0-1.775-1.243-3.084-3.147-3.084h-1.788zM193.559 432.356l.958-1.141c.868.752 1.749 1.18 2.863 1.18.984 0 1.606-.467 1.606-1.141v-.025c0-.648-.363-.998-2.047-1.387-1.93-.467-3.019-1.037-3.019-2.707v-.027c0-1.555 1.296-2.629 3.096-2.629 1.322 0 2.371.402 3.291 1.141l-.855 1.203c-.816-.607-1.632-.932-2.461-.932-.933 0-1.477.479-1.477 1.074v.027c0 .699.414 1.01 2.163 1.424 1.917.467 2.902 1.154 2.902 2.656v.025c0 1.697-1.335 2.709-3.239 2.709a5.579 5.579 0 0 1-3.781-1.45zM206.281 424.544h1.477l3.99 9.133h-1.684l-.92-2.189h-4.288l-.933 2.189h-1.632l3.99-9.133zm2.28 5.531l-1.567-3.627-1.555 3.627h3.122zM214.107 424.608h1.593v7.617h4.768v1.451h-6.36v-9.068zM222.93 424.608h6.723v1.426h-5.13v2.357h4.547v1.426h-4.547v2.436h5.195v1.424h-6.788v-9.069zM231.805 432.356l.958-1.141c.868.752 1.749 1.18 2.863 1.18.984 0 1.606-.467 1.606-1.141v-.025c0-.648-.363-.998-2.047-1.387-1.931-.467-3.019-1.037-3.019-2.707v-.027c0-1.555 1.295-2.629 3.096-2.629 1.322 0 2.371.402 3.291 1.141l-.855 1.203c-.816-.607-1.632-.932-2.461-.932-.933 0-1.477.479-1.477 1.074v.027c0 .699.415 1.01 2.164 1.424 1.917.467 2.902 1.154 2.902 2.656v.025c0 1.697-1.334 2.709-3.239 2.709a5.585 5.585 0 0 1-3.782-1.45zM249.412 424.544h1.477l3.99 9.133h-1.684l-.919-2.189h-4.288l-.933 2.189h-1.633l3.99-9.133zm2.28 5.531l-1.567-3.627-1.555 3.627h3.122zM257.238 424.608h1.697l2.759 4.289 2.76-4.289h1.697v9.068h-1.594v-6.502l-2.863 4.273h-.052l-2.837-4.248v6.477h-1.567v-9.068zM268.886 429.169v-.025c0-2.553 1.969-4.689 4.754-4.689s4.729 2.111 4.729 4.662v.027c0 2.551-1.969 4.689-4.754 4.689-2.786 0-4.729-2.112-4.729-4.664zm7.812 0v-.025c0-1.762-1.283-3.227-3.083-3.227-1.801 0-3.057 1.438-3.057 3.199v.027c0 1.762 1.282 3.213 3.083 3.213s3.057-1.426 3.057-3.187zM280.961 429.829v-5.221h1.594v5.156c0 1.684.868 2.578 2.293 2.578 1.412 0 2.28-.842 2.28-2.514v-5.221h1.593v5.145c0 2.707-1.528 4.066-3.899 4.066-2.358.001-3.861-1.358-3.861-3.989zM291.715 424.608h1.477l4.858 6.271v-6.271h1.567v9.068h-1.334l-5-6.451v6.451h-1.567v-9.068zM304.981 426.085h-2.875v-1.477h7.358v1.477h-2.876v7.592h-1.606v-7.592z"/></g><g><path class="st2" d="M290.629 74.216h3.575c2.125 0 3.446 1.205 3.446 3.031v.026c0 2.033-1.632 3.096-3.627 3.096h-1.801v2.915h-1.593v-9.068zm3.445 4.715c1.205 0 1.957-.674 1.957-1.619v-.026c0-1.062-.764-1.619-1.957-1.619h-1.853v3.265h1.853zM300.087 74.216h4.042c1.14 0 2.034.337 2.617.907.479.492.751 1.166.751 1.956v.025c0 1.49-.894 2.384-2.15 2.747l2.449 3.433h-1.892l-2.229-3.161h-1.995v3.161h-1.593v-9.068zm3.925 4.495c1.14 0 1.866-.596 1.866-1.516v-.025c0-.972-.7-1.503-1.878-1.503h-2.319v3.044h2.331zM309.855 78.776v-.026c0-2.552 1.97-4.689 4.755-4.689s4.729 2.111 4.729 4.663v.026c0 2.552-1.97 4.689-4.755 4.689s-4.729-2.111-4.729-4.663zm7.813 0v-.026c0-1.762-1.283-3.226-3.084-3.226s-3.057 1.438-3.057 3.199v.026c0 1.762 1.282 3.213 3.083 3.213s3.058-1.424 3.058-3.186zM322.073 74.216h3.382c2.85 0 4.818 1.956 4.818 4.508v.026c0 2.552-1.969 4.534-4.818 4.534h-3.382v-9.068zm1.594 1.451v6.166h1.788c1.904 0 3.147-1.282 3.147-3.057v-.026c0-1.774-1.243-3.083-3.147-3.083h-1.788zM332.866 79.436v-5.221h1.593v5.156c0 1.684.868 2.578 2.293 2.578 1.412 0 2.28-.843 2.28-2.514v-5.221h1.594v5.144c0 2.707-1.528 4.067-3.899 4.067-2.358.002-3.861-1.359-3.861-3.989zM343.219 78.776v-.026c0-2.578 1.93-4.689 4.676-4.689 1.672 0 2.682.583 3.55 1.412l-1.023 1.179c-.726-.674-1.503-1.127-2.539-1.127-1.723 0-2.992 1.425-2.992 3.199v.026c0 1.774 1.257 3.213 2.992 3.213 1.114 0 1.827-.44 2.604-1.166l1.023 1.036c-.946.984-1.982 1.606-3.68 1.606-2.642 0-4.611-2.059-4.611-4.663zM356.213 75.692h-2.876v-1.477h7.358v1.477h-2.876v7.592h-1.606v-7.592zM367.965 74.216h1.594v9.068h-1.594v-9.068zM372.784 74.216h3.381c2.851 0 4.819 1.956 4.819 4.508v.026c0 2.552-1.969 4.534-4.819 4.534h-3.381v-9.068zm1.593 1.451v6.166h1.788c1.904 0 3.148-1.282 3.148-3.057v-.026c0-1.774-1.244-3.083-3.148-3.083h-1.788zM290.227 97.776v-.026c0-2.578 1.93-4.689 4.676-4.689 1.671 0 2.682.583 3.55 1.412l-1.023 1.179c-.726-.674-1.503-1.127-2.539-1.127-1.723 0-2.992 1.425-2.992 3.199v.026c0 1.774 1.256 3.213 2.992 3.213 1.114 0 1.827-.44 2.604-1.166l1.023 1.036c-.946.984-1.982 1.606-3.679 1.606-2.643 0-4.612-2.059-4.612-4.663zM304.206 93.151h1.477l3.991 9.133h-1.685l-.92-2.189h-4.288l-.933 2.189h-1.632l3.99-9.133zm2.28 5.531l-1.567-3.627-1.555 3.627h3.122zM313.095 94.692h-2.876v-1.477h7.358v1.477h-2.876v7.592h-1.606v-7.592zM320.065 93.216h6.724v1.425h-5.131v2.358h4.548v1.425h-4.548v2.436h5.195v1.425h-6.788v-9.069zM329.147 97.776v-.026c0-2.539 1.943-4.689 4.677-4.689 1.58 0 2.553.44 3.484 1.23l-1.01 1.205c-.699-.596-1.387-.972-2.539-.972-1.672 0-2.941 1.464-2.941 3.199v.026c0 1.865 1.231 3.238 3.084 3.238.854 0 1.632-.271 2.189-.687v-1.696h-2.319v-1.387h3.86v3.809a5.778 5.778 0 0 1-3.783 1.412c-2.835.001-4.702-2.019-4.702-4.662zM340.109 97.776v-.026c0-2.552 1.969-4.689 4.754-4.689s4.729 2.111 4.729 4.663v.026c0 2.552-1.969 4.689-4.754 4.689-2.786 0-4.729-2.111-4.729-4.663zm7.811 0v-.026c0-1.762-1.282-3.226-3.082-3.226-1.801 0-3.058 1.438-3.058 3.199v.026c0 1.762 1.282 3.213 3.083 3.213s3.057-1.424 3.057-3.186zM352.326 93.216h4.042c1.141 0 2.034.337 2.617.907.479.492.751 1.166.751 1.956v.025c0 1.49-.894 2.384-2.15 2.747l2.449 3.433h-1.892l-2.229-3.161h-1.995v3.161h-1.594v-9.068zm3.926 4.495c1.14 0 1.865-.596 1.865-1.516v-.025c0-.972-.699-1.503-1.879-1.503h-2.318v3.044h2.332zM364.842 98.709l-3.602-5.493h1.892l2.526 4.003 2.565-4.003h1.826l-3.602 5.454v3.614h-1.606v-3.575zM290.227 116.776v-.026c0-2.578 1.93-4.689 4.676-4.689 1.671 0 2.682.583 3.55 1.412l-1.023 1.179c-.726-.674-1.503-1.127-2.539-1.127-1.723 0-2.992 1.425-2.992 3.199v.026c0 1.774 1.256 3.213 2.992 3.213 1.114 0 1.827-.44 2.604-1.166l1.023 1.036c-.946.984-1.982 1.606-3.679 1.606-2.643 0-4.612-2.059-4.612-4.663zM304.206 112.151h1.477l3.991 9.133h-1.685l-.92-2.189h-4.288l-.933 2.189h-1.632l3.99-9.133zm2.28 5.531l-1.567-3.627-1.555 3.627h3.122zM313.095 113.692h-2.876v-1.477h7.358v1.477h-2.876v7.592h-1.606v-7.592zM320.065 112.216h6.724v1.425h-5.131v2.358h4.548v1.425h-4.548v2.436h5.195v1.425h-6.788v-9.069zM329.147 116.776v-.026c0-2.539 1.943-4.689 4.677-4.689 1.58 0 2.553.44 3.484 1.23l-1.01 1.205c-.699-.596-1.387-.972-2.539-.972-1.672 0-2.941 1.464-2.941 3.199v.026c0 1.865 1.231 3.238 3.084 3.238.854 0 1.632-.271 2.189-.687v-1.696h-2.319v-1.387h3.86v3.809a5.778 5.778 0 0 1-3.783 1.412c-2.835.001-4.702-2.019-4.702-4.662zM340.109 116.776v-.026c0-2.552 1.969-4.689 4.754-4.689s4.729 2.111 4.729 4.663v.026c0 2.552-1.969 4.689-4.754 4.689-2.786 0-4.729-2.111-4.729-4.663zm7.811 0v-.026c0-1.762-1.282-3.226-3.082-3.226-1.801 0-3.058 1.438-3.058 3.199v.026c0 1.762 1.282 3.213 3.083 3.213s3.057-1.424 3.057-3.186zM352.326 112.216h4.042c1.141 0 2.034.337 2.617.907.479.492.751 1.166.751 1.956v.025c0 1.49-.894 2.384-2.15 2.747l2.449 3.433h-1.892l-2.229-3.161h-1.995v3.161h-1.594v-9.068zm3.926 4.495c1.14 0 1.865-.596 1.865-1.516v-.025c0-.972-.699-1.503-1.879-1.503h-2.318v3.044h2.332zM364.842 117.709l-3.602-5.493h1.892l2.526 4.003 2.565-4.003h1.826l-3.602 5.454v3.614h-1.606v-3.575zM376.943 112.216h3.381c2.851 0 4.819 1.956 4.819 4.508v.026c0 2.552-1.969 4.534-4.819 4.534h-3.381v-9.068zm1.594 1.451v6.166h1.787c1.904 0 3.148-1.282 3.148-3.057v-.026c0-1.774-1.244-3.083-3.148-3.083h-1.787zM387.879 112.216h6.723v1.425h-5.13v2.358h4.548v1.425h-4.548v2.436h5.195v1.425h-6.788v-9.069zM396.754 119.963l.958-1.14c.868.751 1.749 1.179 2.863 1.179.984 0 1.606-.467 1.606-1.141v-.025c0-.647-.363-.998-2.047-1.387-1.93-.466-3.019-1.036-3.019-2.707v-.026c0-1.555 1.296-2.63 3.097-2.63 1.321 0 2.37.402 3.29 1.141l-.854 1.204c-.816-.608-1.633-.933-2.462-.933-.933 0-1.477.479-1.477 1.075v.026c0 .699.414 1.011 2.163 1.425 1.918.467 2.902 1.153 2.902 2.656v.025c0 1.697-1.335 2.708-3.239 2.708a5.58 5.58 0 0 1-3.781-1.45zM406.057 116.776v-.026c0-2.578 1.93-4.689 4.676-4.689 1.672 0 2.682.583 3.55 1.412l-1.023 1.179c-.726-.674-1.503-1.127-2.539-1.127-1.723 0-2.992 1.425-2.992 3.199v.026c0 1.774 1.257 3.213 2.992 3.213 1.114 0 1.827-.44 2.604-1.166l1.023 1.036c-.946.984-1.982 1.606-3.68 1.606-2.643 0-4.611-2.059-4.611-4.663zM416.823 112.216h4.042c1.14 0 2.033.337 2.616.907.479.492.751 1.166.751 1.956v.025c0 1.49-.894 2.384-2.15 2.747l2.449 3.433h-1.892l-2.229-3.161h-1.995v3.161h-1.593v-9.068zm3.925 4.495c1.141 0 1.865-.596 1.865-1.516v-.025c0-.972-.699-1.503-1.878-1.503h-2.319v3.044h2.332zM427.084 112.216h1.594v9.068h-1.594v-9.068zM431.904 112.216h3.575c2.124 0 3.446 1.205 3.446 3.031v.026c0 2.033-1.633 3.096-3.628 3.096h-1.801v2.915h-1.593v-9.068zm3.446 4.715c1.205 0 1.957-.674 1.957-1.619v-.026c0-1.062-.765-1.619-1.957-1.619h-1.853v3.265h1.853zM443.59 113.692h-2.875v-1.477h7.357v1.477h-2.876v7.592h-1.606v-7.592zM450.651 112.216h1.594v9.068h-1.594v-9.068zM455.07 116.776v-.026c0-2.552 1.969-4.689 4.754-4.689s4.729 2.111 4.729 4.663v.026c0 2.552-1.969 4.689-4.754 4.689-2.786 0-4.729-2.111-4.729-4.663zm7.811 0v-.026c0-1.762-1.282-3.226-3.082-3.226-1.801 0-3.058 1.438-3.058 3.199v.026c0 1.762 1.282 3.213 3.083 3.213s3.057-1.424 3.057-3.186zM467.287 112.216h1.478l4.857 6.271v-6.271h1.567v9.068h-1.334l-5-6.451v6.451h-1.568v-9.068zM290.486 136.436v-5.221h1.593v5.156c0 1.684.868 2.578 2.293 2.578 1.412 0 2.28-.843 2.28-2.514v-5.221h1.594v5.144c0 2.707-1.529 4.067-3.899 4.067-2.358.001-3.861-1.359-3.861-3.989zM301.24 131.216h1.477l4.857 6.271v-6.271h1.568v9.068h-1.335l-5-6.451v6.451h-1.567v-9.068zM312.369 131.216h1.594v9.068h-1.594v-9.068zM319.417 132.692h-2.876v-1.477h7.358v1.477h-2.876v7.592h-1.606v-7.592zM331.078 131.216h3.575c2.124 0 3.446 1.205 3.446 3.031v.026c0 2.033-1.633 3.096-3.628 3.096h-1.801v2.915h-1.593v-9.068zm3.445 4.715c1.205 0 1.957-.674 1.957-1.619v-.026c0-1.062-.765-1.619-1.957-1.619h-1.853v3.265h1.853zM340.536 131.216h4.042c1.14 0 2.033.337 2.616.907.479.492.751 1.166.751 1.956v.025c0 1.49-.894 2.384-2.15 2.747l2.449 3.433h-1.892l-2.229-3.161h-1.995v3.161h-1.593v-9.068zm3.925 4.495c1.141 0 1.865-.596 1.865-1.516v-.025c0-.972-.699-1.503-1.878-1.503h-2.319v3.044h2.332zM350.797 131.216h1.594v9.068h-1.594v-9.068zM355.215 135.776v-.026c0-2.578 1.931-4.689 4.677-4.689 1.671 0 2.682.583 3.55 1.412l-1.023 1.179c-.726-.674-1.503-1.127-2.539-1.127-1.723 0-2.992 1.425-2.992 3.199v.026c0 1.774 1.256 3.213 2.992 3.213 1.114 0 1.826-.44 2.604-1.166l1.023 1.036c-.945.984-1.981 1.606-3.679 1.606-2.643 0-4.613-2.059-4.613-4.663zM365.982 131.216h6.723v1.425h-5.13v2.358h4.547v1.425h-4.547v2.436h5.194v1.425h-6.787v-9.069zM290.227 154.776v-.026c0-2.578 1.93-4.689 4.676-4.689 1.671 0 2.682.583 3.55 1.412l-1.023 1.179c-.726-.674-1.503-1.127-2.539-1.127-1.723 0-2.992 1.425-2.992 3.199v.026c0 1.774 1.256 3.213 2.992 3.213 1.114 0 1.827-.44 2.604-1.166l1.023 1.036c-.946.984-1.982 1.606-3.679 1.606-2.643 0-4.612-2.059-4.612-4.663zM300.994 150.216h4.042c1.141 0 2.034.337 2.617.907.479.492.751 1.166.751 1.956v.025c0 1.49-.894 2.384-2.15 2.747l2.448 3.433h-1.891l-2.229-3.161h-1.995v3.161h-1.593v-9.068zm3.925 4.495c1.14 0 1.865-.596 1.865-1.516v-.025c0-.972-.699-1.503-1.878-1.503h-2.319v3.044h2.332zM311.164 150.216h6.724v1.425h-5.13v2.358h4.547v1.425h-4.547v2.436h5.195v1.425h-6.789v-9.069zM323.861 150.151h1.477l3.99 9.133h-1.685l-.919-2.189h-4.289l-.932 2.189h-1.633l3.991-9.133zm2.28 5.531l-1.566-3.627-1.555 3.627h3.121zM332.749 151.692h-2.876v-1.477h7.358v1.477h-2.876v7.592h-1.606v-7.592zM339.721 150.216h6.723v1.425h-5.13v2.358h4.548v1.425h-4.548v2.436h5.195v1.425h-6.788v-9.069zM349.204 150.216h3.382c2.85 0 4.818 1.956 4.818 4.508v.026c0 2.552-1.969 4.534-4.818 4.534h-3.382v-9.068zm1.594 1.451v6.166h1.788c1.904 0 3.147-1.282 3.147-3.057v-.026c0-1.774-1.243-3.083-3.147-3.083h-1.788z"/></g><linearGradient id="SVGID_7_" gradientUnits="userSpaceOnUse" x1="41.658" y1="62.382" x2="217.874" y2="62.382"><stop offset="0" stop-color="#17c9c0"/><stop offset=".168" stop-color="#00a9d7"/><stop offset=".564" stop-color="#1cd0bb"/><stop offset="1" stop-color="#0fbec8"/></linearGradient><path opacity=".43" fill="url(#SVGID_7_)" d="M41.658 61.382h176.216v2H41.658z"/><linearGradient id="SVGID_8_" gradientUnits="userSpaceOnUse" x1="285.316" y1="62.382" x2="480.532" y2="62.382"><stop offset="0" stop-color="#17c9c0"/><stop offset=".168" stop-color="#00a9d7"/><stop offset=".564" stop-color="#1cd0bb"/><stop offset="1" stop-color="#0fbec8"/></linearGradient><path opacity=".43" fill="url(#SVGID_8_)" d="M285.316 61.382h195.216v2H285.316z"/><linearGradient id="SVGID_9_" gradientUnits="userSpaceOnUse" x1="580.377" y1="404.106" x2="772.481" y2="404.106"><stop offset="0" stop-color="#17c9c0"/><stop offset=".168" stop-color="#00a9d7"/><stop offset=".564" stop-color="#1cd0bb"/><stop offset="1" stop-color="#0fbec8"/></linearGradient><path d="M772.48 471.658H580.377V336.553H772.48v135.105zm-185.152-6.951h178.201V343.505H587.328v121.202z" fill="url(#SVGID_9_)"/><linearGradient id="SVGID_10_" gradientUnits="userSpaceOnUse" x1="593.511" y1="414.991" x2="782.14" y2="414.991"><stop offset="0" stop-color="#17c9c0"/><stop offset=".168" stop-color="#00a9d7"/><stop offset=".564" stop-color="#1cd0bb"/><stop offset="1" stop-color="#0fbec8"/></linearGradient><path opacity=".43" fill="url(#SVGID_10_)" d="M782.14 480.805H593.511v-6.951h181.677V349.177h6.952z"/><g><path class="st2" d="M581.531 327.972l.959-1.14c.867.751 1.749 1.179 2.863 1.179.984 0 1.605-.467 1.605-1.141v-.025c0-.647-.362-.998-2.047-1.387-1.93-.466-3.018-1.036-3.018-2.707v-.026c0-1.555 1.295-2.63 3.096-2.63 1.321 0 2.371.402 3.291 1.141l-.855 1.204c-.816-.608-1.633-.933-2.461-.933-.934 0-1.478.479-1.478 1.075v.026c0 .699.415 1.011 2.164 1.425 1.917.467 2.901 1.153 2.901 2.656v.025c0 1.697-1.334 2.708-3.238 2.708a5.573 5.573 0 0 1-3.782-1.45zM593.27 321.702h-2.876v-1.477h7.358v1.477h-2.876v7.592h-1.606v-7.592zM599.347 324.786v-.026c0-2.552 1.969-4.689 4.755-4.689 2.785 0 4.728 2.111 4.728 4.663v.026c0 2.552-1.969 4.689-4.754 4.689s-4.729-2.111-4.729-4.663zm7.811 0v-.026c0-1.762-1.282-3.226-3.083-3.226s-3.058 1.438-3.058 3.199v.026c0 1.762 1.283 3.213 3.084 3.213 1.8 0 3.057-1.424 3.057-3.186zM611.564 320.225h4.041c1.141 0 2.034.337 2.617.907.479.492.752 1.166.752 1.956v.025c0 1.49-.895 2.384-2.15 2.747l2.448 3.433h-1.892l-2.229-3.161h-1.995v3.161h-1.593v-9.068zm3.925 4.495c1.14 0 1.866-.596 1.866-1.516v-.025c0-.972-.7-1.503-1.879-1.503h-2.319v3.044h2.332zM621.734 320.225h6.724v1.425h-5.13v2.358h4.547v1.425h-4.547v2.436h5.195v1.425h-6.789v-9.069z"/></g><g><path class="st2" d="M599.093 362.588l.958-1.14c.868.751 1.749 1.179 2.863 1.179.984 0 1.606-.467 1.606-1.141v-.025c0-.647-.362-.998-2.047-1.387-1.931-.466-3.019-1.036-3.019-2.707v-.026c0-1.555 1.296-2.63 3.096-2.63 1.322 0 2.371.402 3.291 1.141l-.855 1.204c-.815-.608-1.632-.933-2.461-.933-.933 0-1.477.479-1.477 1.075v.026c0 .699.414 1.011 2.163 1.425 1.917.467 2.902 1.153 2.902 2.656v.025c0 1.697-1.335 2.708-3.239 2.708a5.58 5.58 0 0 1-3.781-1.45zM610.83 356.317h-2.875v-1.477h7.357v1.477h-2.876v7.592h-1.606v-7.592zM616.908 359.401v-.026c0-2.552 1.969-4.689 4.754-4.689s4.729 2.111 4.729 4.663v.026c0 2.552-1.969 4.689-4.754 4.689-2.786 0-4.729-2.111-4.729-4.663zm7.811 0v-.026c0-1.762-1.282-3.226-3.082-3.226-1.801 0-3.058 1.438-3.058 3.199v.026c0 1.762 1.282 3.213 3.083 3.213s3.057-1.424 3.057-3.186zM629.125 354.841h4.042c1.14 0 2.034.337 2.617.907.479.492.751 1.166.751 1.956v.025c0 1.49-.894 2.384-2.15 2.747l2.448 3.433h-1.892l-2.228-3.161h-1.995v3.161h-1.594v-9.068zm3.926 4.495c1.14 0 1.865-.596 1.865-1.516v-.025c0-.972-.699-1.503-1.879-1.503h-2.318v3.044h2.332zM639.296 354.841h6.724v1.425h-5.131v2.358h4.548v1.425h-4.548v2.436h5.195v1.425h-6.788v-9.069zM653.561 354.841h1.594v9.068h-1.594v-9.068zM658.38 354.841h3.382c2.85 0 4.818 1.956 4.818 4.508v.026c0 2.552-1.969 4.534-4.818 4.534h-3.382v-9.068zm1.594 1.451v6.166h1.788c1.904 0 3.147-1.282 3.147-3.057v-.026c0-1.774-1.243-3.083-3.147-3.083h-1.788z"/></g><g><path class="st2" d="M599.093 390.862l.958-1.14c.868.751 1.749 1.179 2.863 1.179.984 0 1.606-.467 1.606-1.141v-.025c0-.647-.362-.998-2.047-1.387-1.931-.466-3.019-1.036-3.019-2.707v-.026c0-1.555 1.296-2.63 3.096-2.63 1.322 0 2.371.402 3.291 1.141l-.855 1.204c-.815-.608-1.632-.933-2.461-.933-.933 0-1.477.479-1.477 1.075v.026c0 .699.414 1.011 2.163 1.425 1.917.467 2.902 1.153 2.902 2.656v.025c0 1.697-1.335 2.708-3.239 2.708a5.576 5.576 0 0 1-3.781-1.45zM610.83 384.592h-2.875v-1.477h7.357v1.477h-2.876v7.592h-1.606v-7.592zM616.908 387.676v-.026c0-2.552 1.969-4.689 4.754-4.689s4.729 2.111 4.729 4.663v.026c0 2.552-1.969 4.689-4.754 4.689-2.786 0-4.729-2.112-4.729-4.663zm7.811 0v-.026c0-1.762-1.282-3.226-3.082-3.226-1.801 0-3.058 1.438-3.058 3.199v.026c0 1.762 1.282 3.213 3.083 3.213s3.057-1.425 3.057-3.186zM629.125 383.115h4.042c1.14 0 2.034.337 2.617.907.479.492.751 1.166.751 1.956v.025c0 1.49-.894 2.384-2.15 2.747l2.448 3.433h-1.892l-2.228-3.161h-1.995v3.161h-1.594v-9.068zm3.926 4.495c1.14 0 1.865-.596 1.865-1.516v-.025c0-.972-.699-1.503-1.879-1.503h-2.318v3.044h2.332zM639.296 383.115h6.724v1.425h-5.131v2.358h4.548v1.425h-4.548v2.436h5.195v1.425h-6.788v-9.069zM653.47 383.115h3.382c2.85 0 4.818 1.956 4.818 4.508v.026c0 2.552-1.969 4.534-4.818 4.534h-3.382v-9.068zm1.593 1.451v6.166h1.788c1.904 0 3.147-1.282 3.147-3.057v-.026c0-1.774-1.243-3.083-3.147-3.083h-1.788zM664.405 383.115h6.724v1.425h-5.131v2.358h4.547v1.425h-4.547v2.436h5.195v1.425h-6.788v-9.069zM673.28 390.862l.958-1.14c.869.751 1.75 1.179 2.863 1.179.984 0 1.606-.467 1.606-1.141v-.025c0-.647-.362-.998-2.047-1.387-1.93-.466-3.019-1.036-3.019-2.707v-.026c0-1.555 1.296-2.63 3.097-2.63 1.321 0 2.37.402 3.29 1.141l-.854 1.204c-.816-.608-1.633-.933-2.462-.933-.933 0-1.477.479-1.477 1.075v.026c0 .699.414 1.011 2.164 1.425 1.917.467 2.901 1.153 2.901 2.656v.025c0 1.697-1.335 2.708-3.239 2.708a5.577 5.577 0 0 1-3.781-1.45zM682.583 387.676v-.026c0-2.578 1.93-4.689 4.677-4.689 1.671 0 2.682.583 3.549 1.412l-1.023 1.179c-.725-.674-1.502-1.127-2.539-1.127-1.723 0-2.992 1.425-2.992 3.199v.026c0 1.774 1.257 3.213 2.992 3.213 1.114 0 1.827-.44 2.604-1.166l1.023 1.036c-.946.984-1.982 1.606-3.68 1.606-2.642 0-4.611-2.06-4.611-4.663zM693.35 383.115h4.041c1.141 0 2.034.337 2.617.907.479.492.752 1.166.752 1.956v.025c0 1.49-.895 2.384-2.15 2.747l2.448 3.433h-1.892l-2.229-3.161h-1.995v3.161h-1.593v-9.068zm3.924 4.495c1.14 0 1.866-.596 1.866-1.516v-.025c0-.972-.7-1.503-1.879-1.503h-2.319v3.044h2.332zM703.61 383.115h1.594v9.068h-1.594v-9.068zM708.431 383.115h3.575c2.125 0 3.445 1.205 3.445 3.031v.026c0 2.033-1.632 3.096-3.627 3.096h-1.801v2.915h-1.593v-9.068zm3.445 4.716c1.205 0 1.956-.674 1.956-1.619v-.026c0-1.062-.764-1.619-1.956-1.619h-1.853v3.265h1.853zM720.116 384.592h-2.876v-1.477h7.358v1.477h-2.876v7.592h-1.606v-7.592zM727.178 383.115h1.594v9.068h-1.594v-9.068zM731.596 387.676v-.026c0-2.552 1.97-4.689 4.755-4.689s4.729 2.111 4.729 4.663v.026c0 2.552-1.97 4.689-4.755 4.689s-4.729-2.112-4.729-4.663zm7.812 0v-.026c0-1.762-1.283-3.226-3.084-3.226s-3.057 1.438-3.057 3.199v.026c0 1.762 1.282 3.213 3.083 3.213s3.058-1.425 3.058-3.186zM743.813 383.115h1.478l4.857 6.271v-6.271h1.567v9.068h-1.334l-5.001-6.451v6.451h-1.567v-9.068zM599.701 402.115h4.042c1.14 0 2.034.337 2.617.907.479.492.751 1.166.751 1.956v.025c0 1.49-.894 2.384-2.15 2.747l2.448 3.433h-1.892l-2.228-3.161h-1.995v3.161H599.7v-9.068zm3.926 4.495c1.14 0 1.865-.596 1.865-1.516v-.025c0-.972-.699-1.503-1.879-1.503h-2.318v3.044h2.332zM609.872 402.115h6.724v1.425h-5.131v2.358h4.548v1.425h-4.548v2.436h5.195v1.425h-6.788v-9.069zM618.955 406.676v-.026c0-2.539 1.942-4.689 4.676-4.689 1.581 0 2.553.44 3.485 1.23l-1.011 1.205c-.699-.596-1.387-.972-2.539-.972-1.671 0-2.94 1.464-2.94 3.199v.026c0 1.865 1.23 3.238 3.083 3.238.855 0 1.633-.271 2.189-.687v-1.696h-2.319v-1.387h3.86v3.809a5.777 5.777 0 0 1-3.782 1.412c-2.837.001-4.702-2.02-4.702-4.662zM630.408 402.115h1.593v9.068h-1.593v-9.068zM634.826 406.676v-.026c0-2.552 1.969-4.689 4.754-4.689s4.729 2.111 4.729 4.663v.026c0 2.552-1.969 4.689-4.754 4.689-2.786 0-4.729-2.112-4.729-4.663zm7.811 0v-.026c0-1.762-1.282-3.226-3.082-3.226-1.801 0-3.058 1.438-3.058 3.199v.026c0 1.762 1.282 3.213 3.083 3.213s3.057-1.425 3.057-3.186zM647.043 402.115h1.478l4.857 6.271v-6.271h1.567v9.068h-1.334l-5-6.451v6.451h-1.568v-9.068zM599.701 421.115h4.042c1.14 0 2.034.337 2.617.907.479.492.751 1.166.751 1.956v.025c0 1.49-.894 2.384-2.15 2.747l2.448 3.433h-1.892l-2.228-3.161h-1.995v3.161H599.7v-9.068zm3.926 4.495c1.14 0 1.865-.596 1.865-1.516v-.025c0-.972-.699-1.503-1.879-1.503h-2.318v3.044h2.332zM609.872 421.115h6.724v1.425h-5.131v2.358h4.548v1.425h-4.548v2.436h5.195v1.425h-6.788v-9.069zM618.955 425.676v-.026c0-2.539 1.942-4.689 4.676-4.689 1.581 0 2.553.44 3.485 1.23l-1.011 1.205c-.699-.596-1.387-.972-2.539-.972-1.671 0-2.94 1.464-2.94 3.199v.026c0 1.865 1.23 3.238 3.083 3.238.855 0 1.633-.271 2.189-.687v-1.696h-2.319v-1.387h3.86v3.809a5.777 5.777 0 0 1-3.782 1.412c-2.837.001-4.702-2.02-4.702-4.662zM630.408 421.115h1.593v9.068h-1.593v-9.068zM634.826 425.676v-.026c0-2.552 1.969-4.689 4.754-4.689s4.729 2.111 4.729 4.663v.026c0 2.552-1.969 4.689-4.754 4.689-2.786 0-4.729-2.112-4.729-4.663zm7.811 0v-.026c0-1.762-1.282-3.226-3.082-3.226-1.801 0-3.058 1.438-3.058 3.199v.026c0 1.762 1.282 3.213 3.083 3.213s3.057-1.425 3.057-3.186zM647.043 421.115h1.478l4.857 6.271v-6.271h1.567v9.068h-1.334l-5-6.451v6.451h-1.568v-9.068zM662.771 421.115h1.478l4.857 6.271v-6.271h1.567v9.068h-1.334l-5-6.451v6.451h-1.568v-9.068zM677.023 421.051h1.477l3.99 9.133h-1.684l-.92-2.189h-4.288l-.933 2.189h-1.633l3.991-9.133zm2.281 5.531l-1.567-3.627-1.555 3.627h3.122zM684.85 421.115h1.697l2.759 4.288 2.759-4.288h1.697v9.068h-1.593v-6.503l-2.863 4.274h-.052l-2.837-4.249v6.478h-1.567v-9.068zM696.898 421.115h6.724v1.425h-5.13v2.358h4.547v1.425h-4.547v2.436h5.194v1.425h-6.788v-9.069zM599.3 444.676v-.026c0-2.578 1.931-4.689 4.677-4.689 1.671 0 2.682.583 3.549 1.412l-1.023 1.179c-.725-.674-1.502-1.127-2.539-1.127-1.723 0-2.992 1.425-2.992 3.199v.026c0 1.774 1.257 3.213 2.992 3.213 1.115 0 1.827-.44 2.604-1.166l1.023 1.036c-.946.984-1.982 1.606-3.679 1.606-2.643 0-4.612-2.06-4.612-4.663zM610.066 440.115h4.042c1.14 0 2.034.337 2.616.907.479.492.752 1.166.752 1.956v.025c0 1.49-.895 2.384-2.15 2.747l2.448 3.433h-1.892l-2.229-3.161h-1.994v3.161h-1.594v-9.068zm3.926 4.495c1.14 0 1.865-.596 1.865-1.516v-.025c0-.972-.7-1.503-1.879-1.503h-2.318v3.044h2.332zM620.237 440.115h6.724v1.425h-5.131v2.358h4.548v1.425h-4.548v2.436h5.195v1.425h-6.788v-9.069zM632.934 440.051h1.477l3.99 9.133h-1.684l-.92-2.189h-4.288l-.933 2.189h-1.633l3.991-9.133zm2.28 5.531l-1.567-3.627-1.555 3.627h3.122zM641.822 441.592h-2.876v-1.477h7.358v1.477h-2.876v7.592h-1.606v-7.592zM648.793 440.115h6.724v1.425h-5.13v2.358h4.547v1.425h-4.547v2.436h5.194v1.425h-6.788v-9.069zM658.277 440.115h3.381c2.85 0 4.819 1.956 4.819 4.508v.026c0 2.552-1.97 4.534-4.819 4.534h-3.381v-9.068zm1.593 1.451v6.166h1.788c1.904 0 3.148-1.282 3.148-3.057v-.026c0-1.774-1.244-3.083-3.148-3.083h-1.788z"/></g><linearGradient id="SVGID_11_" gradientUnits="userSpaceOnUse" x1="594.389" y1="371.281" x2="757.605" y2="371.281"><stop offset="0" stop-color="#17c9c0"/><stop offset=".168" stop-color="#00a9d7"/><stop offset=".564" stop-color="#1cd0bb"/><stop offset="1" stop-color="#0fbec8"/></linearGradient><path opacity=".43" fill="url(#SVGID_11_)" d="M594.389 370.281h163.216v2H594.389z"/><linearGradient id="SVGID_12_" gradientUnits="userSpaceOnUse" x1="188.731" y1="394.226" x2="330.519" y2="394.226"><stop offset="0" stop-color="#17c9c0"/><stop offset=".168" stop-color="#00a9d7"/><stop offset=".564" stop-color="#1cd0bb"/><stop offset="1" stop-color="#0fbec8"/></linearGradient><path opacity=".43" fill="url(#SVGID_12_)" d="M188.731 393.226h141.788v2H188.731z"/></g></svg>