<svg xmlns="http://www.w3.org/2000/svg" viewBox="0 0 2254 1130"><defs><style>.a{fill:#fff;}.b{fill:#d6ecd4;opacity:0.5;}.c{fill:#ddeefd;}.d{fill:#0d47a1;}.e{fill:#5ab552;}.f{fill:#09264a;}</style></defs><rect class="a" width="2254" height="1132"/><polygon class="b" points="1128 69.3 1701.3 1053.3 1674.7 1056 573.3 1053.3 554.7 1042.7 1128 69.3"/><polygon class="c" points="877.3 586 1126.7 1011.3 641.3 1011.3 633.3 1010 637.3 1000.7 877.3 586"/><path class="d" d="M875.6,580.4c-3.6,5.9-7,11.9-10.5,17.8l-19.5,33.4L819.2,677l-30.9,53.2q-16.8,28.8-33.5,57.6t-33.5,57.6q-15.9,27.3-31.7,54.6l-27.3,46.8-20.9,35.9-12.2,20.9-1.5,2.4c-1,1.7,8.7,7.3,9.9,5.3,3.3-5.5,6.6-11.1,9.8-16.7l19-32.5,26.1-44.8,30.6-52.8L756.6,807l33.5-57.7q16-27.4,31.9-54.9L849.6,647,871,610.4l12.8-22c.6-.9,1.1-1.8,1.6-2.7s-8.7-7.3-9.8-5.3Z"/><path class="d" d="M659,1014.5c25.2-.1,50.4,0,75.6.1l76.2.4q56.4.4,112.8.5,48,0,96-.4l59.1-.4c14.2,0,28.4.2,42.6-.3,1.6-.1,4.6.2,6.1-.6l.8-.6c-.1-1.2-5.2-1.8-5.8-1.9a132.5,132.5,0,0,0-14.1-1.8l-10.8-.5H1094c-2.8,0-5.7-.1-8.5,0s-8.9-.5-11.1.6l-.8.5c.8,1.3,4.7,1.8,5.8,2,2.9.5,5.8.9,8.8,1.2s7.3.7,10.9.9l7.3.2,14.4.2a52.4,52.4,0,0,0,5.6-.2,14.2,14.2,0,0,0,3.6-.4c.9-.3,1-.5.5-.9a3.7,3.7,0,0,0-2.3-1c-8.7-2.3-18.4-2.7-27.3-2.8l-12.7-.2h.5c6.3.3,18,1.2,22.2,2.6l2.7,1.3h0l-.8.6c-.3.1-7.1.6-4.5.5s-4.8,0-3.3,0h8.1c-6.7-.3-20.5-1.4-24.2-3.3l-.6-.7h0l.7-.5c1-.6,4.3-.5,4.8-.5h-23.3l-61.1.4-96.2.5q-54.9,0-109.8-.5l-78.2-.4-80.3-.2h-5.8a51.9,51.9,0,0,0-5.6.1,15,15,0,0,0-3.7.5c-.8.2-1,.5-.4.8a2.9,2.9,0,0,0,2.3,1,79.7,79.7,0,0,0,11.9,1.9c5.1.5,10.2,1,15.4,1Z"/><path class="d" d="M877.6,587.6c3.5,6.5,7.2,12.8,10.9,19.2,6.6,11.6,13.3,23.2,20,34.8,9,15.5,17.9,31,26.9,46.4l31.3,54.2,33.6,57.9c11.3,19.3,22.5,38.7,33.7,58s20.9,36,31.3,54L1092,958l19.7,34,10.5,18.3.9,1.6c1.2,2.1,4.4,4,6.8,2.9s1.8-4.3.7-6.2c-2.5-4.6-5.3-9.2-7.9-13.8-5.9-10.2-11.8-20.5-17.8-30.7l-25.1-43.3-30.3-52.3-33.3-57.2-33.9-58.5c-10.7-18.5-21.5-37-32.2-55.6L922,648.6l-21.9-37.9-13.3-23.3-1.7-3c-1.2-2.1-4.4-4-6.8-3s-1.8,4.3-.7,6.2Z"/><polygon class="c" points="1373.3 586 1622.7 1011.3 1137.3 1011.3 1129.3 1010 1133.3 1000.7 1373.3 586"/><path class="d" d="M1371.6,580.4c-3.6,5.9-7,11.9-10.5,17.8l-19.5,33.4L1315.2,677l-30.9,53.2q-16.8,28.8-33.5,57.6t-33.5,57.6q-15.9,27.3-31.7,54.6l-27.3,46.8-20.9,35.9-12.2,20.9-1.5,2.4c-1,1.7,8.7,7.3,9.9,5.3,3.3-5.5,6.6-11.1,9.8-16.7l19-32.5,26.1-44.8,30.6-52.8,33.5-57.5,33.5-57.7q16.1-27.4,31.9-54.9l27.6-47.4,21.4-36.6,12.8-22c.6-.9,1.1-1.8,1.6-2.7s-8.7-7.3-9.8-5.3Z"/><path class="d" d="M1155,1014.5c25.2-.1,50.4,0,75.6.1l76.2.4q56.4.4,112.8.5,48,0,96-.4l59.1-.4c14.2,0,28.4.2,42.6-.3,1.6-.1,4.6.2,6.1-.6l.8-.6c-.1-1.2-5.2-1.8-5.8-1.9a132.5,132.5,0,0,0-14.1-1.8l-10.8-.5H1590c-2.8,0-5.7-.1-8.5,0s-8.9-.5-11.1.6l-.8.5c.8,1.3,4.7,1.8,5.8,2,2.9.5,5.8.9,8.8,1.2s7.3.7,10.9.9l7.3.2,14.4.2a52.4,52.4,0,0,0,5.6-.2,14.2,14.2,0,0,0,3.6-.4c.9-.3,1-.5.5-.9a3.7,3.7,0,0,0-2.3-1c-8.7-2.3-18.4-2.7-27.3-2.8l-12.7-.2h.5c6.3.3,18,1.2,22.2,2.6l2.7,1.3h0l-.8.6c-.3.1-7.1.6-4.5.5s-4.8,0-3.3,0h8.1c-6.7-.3-20.5-1.4-24.2-3.3l-.6-.7h0l.7-.5c1-.6,4.3-.5,4.8-.5h-23.3l-61.1.4-96.2.5q-54.9,0-109.8-.5l-78.2-.4-80.3-.2h-5.8a51.9,51.9,0,0,0-5.6.1,15,15,0,0,0-3.7.5c-.8.2-1,.5-.4.8a2.9,2.9,0,0,0,2.3,1,79.7,79.7,0,0,0,11.9,1.9c5.1.5,10.2,1,15.4,1Z"/><path class="d" d="M1373.6,587.6c3.5,6.5,7.2,12.8,10.9,19.2,6.6,11.6,13.3,23.2,20,34.8,9,15.5,17.9,31,26.9,46.4l31.3,54.2,33.6,57.9c11.3,19.3,22.5,38.7,33.7,58s20.9,36,31.3,54L1588,958l19.7,34,10.5,18.3.9,1.6c1.2,2.1,4.4,4,6.8,2.9s1.8-4.3.7-6.2c-2.5-4.6-5.3-9.2-7.9-13.8-5.9-10.2-11.8-20.5-17.8-30.7l-25.1-43.3-30.3-52.3-33.3-57.2-33.9-58.5c-10.7-18.5-21.5-37-32.2-55.6L1418,648.6l-21.9-37.9-13.3-23.3-1.7-3c-1.2-2.1-4.4-4-6.8-3s-1.8,4.3-.7,6.2Z"/><polygon class="c" points="1125.3 161 1374.7 586.3 889.3 586.3 881.3 585 885.3 575.7 1125.3 161"/><path class="d" d="M1123.6,155.4c-3.6,5.9-7,11.9-10.5,17.8l-19.5,33.4L1067.2,252l-30.9,53.2q-16.8,28.8-33.5,57.6t-33.5,57.6q-15.9,27.3-31.7,54.6l-27.3,46.8-20.9,35.9-12.2,20.9-1.5,2.4c-1,1.7,8.7,7.3,9.9,5.3,3.3-5.5,6.6-11.1,9.8-16.7l19-32.5,26.1-44.8,30.6-52.8,33.5-57.5,33.5-57.7q16.1-27.4,31.9-54.9l27.6-47.4,21.4-36.6,12.8-22c.6-.9,1.1-1.8,1.6-2.7s-8.7-7.3-9.8-5.3Z"/><path class="d" d="M907,589.5c25.2-.1,50.4,0,75.6.1l76.2.4q56.4.4,112.8.5,48,0,96-.4l59.1-.4c14.2,0,28.4.2,42.6-.3,1.6-.1,4.6.2,6.1-.6l.8-.6c-.1-1.2-5.2-1.8-5.8-1.9a132.5,132.5,0,0,0-14.1-1.8l-10.8-.5H1342c-2.8,0-5.7-.1-8.5,0s-8.9-.5-11.1.6l-.8.5c.8,1.3,4.7,1.8,5.8,2,2.9.5,5.8.9,8.8,1.2s7.3.7,10.9.9l7.3.2,14.4.2a52.4,52.4,0,0,0,5.6-.2,14.2,14.2,0,0,0,3.6-.4c.9-.3,1-.5.5-.9a3.7,3.7,0,0,0-2.3-1c-8.7-2.3-18.4-2.7-27.3-2.8l-12.7-.2h.5c6.3.3,18,1.2,22.2,2.6l2.7,1.3h0l-.8.6c-.3.1-7.1.6-4.5.5s-4.8,0-3.3,0h8.1c-6.7-.3-20.5-1.4-24.2-3.3l-.6-.7h0l.7-.5c1-.6,4.3-.5,4.8-.5h-23.3l-61.1.4-96.2.5q-54.9,0-109.8-.5l-78.2-.4-80.3-.2h-5.8a51.9,51.9,0,0,0-5.6.1,15,15,0,0,0-3.7.5c-.8.2-1,.5-.4.8a2.9,2.9,0,0,0,2.3,1,79.7,79.7,0,0,0,11.9,1.9c5.1.5,10.2,1,15.4,1Z"/><path class="d" d="M1125.6,162.6c3.5,6.5,7.2,12.8,10.9,19.2,6.6,11.6,13.3,23.2,20,34.8,9,15.5,17.9,31,26.9,46.4l31.3,54.2,33.6,57.9c11.3,19.3,22.5,38.7,33.7,58s20.9,36,31.3,54L1340,533l19.7,34,10.5,18.3.9,1.6c1.2,2.1,4.4,4,6.8,2.9s1.8-4.3.7-6.2c-2.5-4.6-5.3-9.2-7.9-13.8-5.9-10.2-11.8-20.5-17.8-30.7l-25.1-43.3-30.3-52.3-33.3-57.2-33.9-58.5c-10.7-18.5-21.5-37-32.2-55.6L1170,223.6l-21.9-37.9-13.3-23.3-1.7-3c-1.2-2.1-4.4-4-6.8-3s-1.8,4.3-.7,6.2Z"/><path class="e" d="M1124.5,60c-8.1,13.6-16.1,27.4-24.2,41.2q-22.5,38.4-44.9,77-30.6,52.5-61.1,104.9L922.9,405.8,845.5,539,768.1,672.1,694.9,798Q663.4,852.2,632,906.2l-48.3,82.9q-14.1,24.1-28.3,48.3l-3.2,5.5c-1.1,1.7,8.6,7.3,9.8,5.3,7.7-12.8,15.2-25.7,22.7-38.7l43.8-75L688.7,831l70.8-121.8,77.3-132.9L914.3,443l73.6-126.6,63.8-109.5q24.6-42.5,49.3-84.7,14.9-25.5,29.7-50.7l3.7-6.2c1-1.7-8.7-7.3-9.9-5.3Z"/><path class="e" d="M612.3,1057.4q87.3,0,174.7.4t176,.8q130.2,1.2,260.5,1.3c73.9.1,147.7-.4,221.6-.9l136.4-.9c32.1-.2,64.3.3,96.3-.8,3.1-.1,8.3.5,11.2-1.1l1.3-.9c-.2-2.2-9-3.3-10.1-3.5a204.8,204.8,0,0,0-24.8-3c-6.5-.5-12.8-.7-19.3-.9h-27.6c-4.3,0-16.4-.9-20.5,1.2l-1.3.9c1.4,2.2,8.2,3.1,10.1,3.5,5.1.9,10.2,1.5,15.4,2.1s12.9,1.1,19.3,1.5l14.1.4,33.2.4c2.1.1,13.8,1,16.2-1,1.5-.4,1.8-.9.8-1.5a5.5,5.5,0,0,0-4.1-1.7c-15.1-4.1-32.1-4.8-47.6-5l-29.3-.4h-7c-5.1-.2,10.3.3,6.1.1h-.7c10.8.5,31.3,2.2,38.7,4.7l4.6,2.3h0l-1.3.9c-.8.4-12.6,1.1-7.4.9s-8,.1-5.4.1H1670l-6.8-.2h.6c-11.6-.6-35.7-2.5-42.1-5.9l-1.2-1.1h0l1.3-.9a19.8,19.8,0,0,0,3.3-.6c-1.3.2,7.3-.3,4.9-.3h-22.9l-33.2.2-141.2,1q-111,.8-222.1,1c-84.5.1-169.1-.4-253.7-1q-90.3-.7-180.6-1-92.7-.5-185.3-.5H577.5c-2.1,0-13.7-.9-16.2,1.1-1.5.4-1.7.9-.7,1.4a5.2,5.2,0,0,0,4,1.8c15,4,32.2,5,47.7,4.9Z"/><path class="e" d="M1126.3,71.6c8.3,14.8,16.8,29.5,25.2,44.3q23.1,40.2,46.4,80.4,30.9,53.7,62,107.2l72.4,125q38.7,66.9,77.6,133.8l77.8,134L1560,821l61.5,105.9,45.5,78.6c8.1,14,16.3,28.1,24.3,42.2l2.1,3.7c1.6,2.8,5.9,5.4,9.1,4s2.4-5.8,1-8.4c-6-10.7-12.2-21.3-18.4-31.9q-20.4-35.4-41-70.8-28.9-50.1-58.1-100.2l-70-120.7-76.7-132.1L1361,456.2l-74.4-128.3-65-112.3-50.5-87.5c-10.3-18-20.6-35.9-30.8-53.9l-3.9-7c-1.5-2.8-5.9-5.3-9.1-3.9s-2.4,5.7-1,8.3Z"/><path class="f" d="M1109.8,380.4h-8.6c-.3,0-.8.4-1,.4s-2.2.1-3,.3a29.6,29.6,0,0,1-4.3.7l-.3.4c-1.5-.3-2.6.2-4.1.4h0c0,.1-.1.1-.2.1s-1.3.3-2.1.3a2.2,2.2,0,0,0-.9.7,48.4,48.4,0,0,0-1.7,5.4c-.8,2.2-1.3,4.3-2.3,6.5l.3.2.9-.3c.4,0,.2.1.4.3l.5-.4h.4c.5,0,11-2.5,11.5-2.5s.1.2.4.2l4.3-1-.3.3a1.2,1.2,0,0,1,.5.9c0,.5-.4.5-.6.9s.3.4.3.6-1.7.8-2.5,1-.7.7-.1.7a3.4,3.4,0,0,0-1.6.4c.2.2.4.1.7.1l-9.6,3.8a10.4,10.4,0,0,0-3.5,1.2,17.7,17.7,0,0,1-3.3.4c-.4,0,.1-.1-.3-.1s-1.3,3.8-1.4,5.1-1,5.8-1,6.2.2.4.2.6-.3.8.7,2.1.4.2.8.2.2-.3.7-.3.6.5,1,.5l1.3-.2,1.7-.6a21.1,21.1,0,0,0,3.6-1.6c1-.5,1.9-1.7,2.8-1.7s.2.3.5.3-.4.9.4,1.5-.5,1-1,1.6.3.2.5.2a8,8,0,0,0-1.8,1.9,2.2,2.2,0,0,1-.8,1,15.5,15.5,0,0,1-4.6,2.1h-2.4c-.5,0-.4-.1-.6-.2a5.5,5.5,0,0,1-3.4-1.5,10,10,0,0,1-4.3-5.1,16.7,16.7,0,0,1-.8-4.2v-4.3c.2-.2.3-.3.3-.4.8-5.1,2.3-7.2,1.4-9a.8.8,0,0,0,.9-.4c1.1-3.2,2.2-6.6,3.3-10a8.8,8.8,0,0,0,.9-2c0-.5-.9-1-1.5-1.2s-.7-.9-.9-1.7a25.6,25.6,0,0,1-.9-2.6v-.5h.1c.1-.2.2-.2.3-.2s0,.2.3.2.3-.3.5-.4l5.5-1.4c1.7-2.5.5-2.5,2.7-2.5.3,0,.5.2.8.4a3.6,3.6,0,0,0,1.4,1.3h.4c.4,0,2.8-.5,4.2-.5,3.7-.2,10.3,0,10.8,0s3.4.7,5.1,1.2a10.3,10.3,0,0,1,3.1,1.4c.7.5.3,1.1.8,1.7A5.6,5.6,0,0,1,1109.8,380.4Z"/><path class="f" d="M1123.4,393.5h.4c0,.3-.3.5-.4.7s.3.2.8.4-1.7,1.8-1.6,2.6a19.6,19.6,0,0,1-1.8,2.1c.2.2.4.2.5.1-1,1.6-2.6,4.1-3.4,5.2s-4.3,7.3-5.3,9-2.1,3.7-2.5,5.2a11,11,0,0,0-1.2,2.9l-.8.5h-.9c-2.2.4-4.7-4.3-4.9-5.2s-.5-7.6-.8-11.2a42.9,42.9,0,0,0-.7-7.6,2.7,2.7,0,0,1-.5-1.3v-1.1h.8c.5-.2.3.1.7.1h.3a8.5,8.5,0,0,1,3.2,2c.5.9.7,2.2,1.2,3.4a33.9,33.9,0,0,0,1.4,7.8,64.3,64.3,0,0,1,7.2-9.7c.8-.7,3.4-3.8,4.9-4.5l.6-.8,2.5-1.4c.8-.4.5-.2,1.2.1Zm-1.5,5.4-.4.5-.2-.2.4-.4Z"/><path class="f" d="M1136.8,415.8c0,.3.3.5.7.6s-.4,1-.7,1.6-1.7,1.1-1.7,2.2a9.3,9.3,0,0,1-2.5.4c-.3.2,0,.2.3.2s-1.7.7-2.5.8h0c0,.1,0,.2-.2.2s-2.7-1.3-2.9,0l-.7-1c-1.9-.5-2.4-.9-4-2.7s-.6.6-1.8-4.6a9.7,9.7,0,0,1,.5-5,27.3,27.3,0,0,1,2.2-5.8c.5-1,1.2-2.5,2.1-4.1a11.3,11.3,0,0,0,1.7-2.4c1-.8,1.1-1.5,2.4-2.2s2-.7,1.8-1.4h-.1c0,.1,0,.2.2.2s-.1-.2.4-.2,1.2.6,1.8.8,0,1.2.5,1.2,0-.2.4-.2.6.4.8.6c0,2.8,1.3,1.3,1.3,3a42.9,42.9,0,0,1-1.2,5.3,28.5,28.5,0,0,1-3,4.3c-1.9,2.3-5.6,6-5.6,6.6s1.2,1.3,2,1.6,1.4.2,1.8.2,1.3-.6,2.3-.2l4.7-1.4a.9.9,0,0,0,.6.3C1137.7,415.1,1137.4,415.6,1136.8,415.8Zm-9-11.3c-.7,1.4-1.2,2.2-1.3,2.5l-.3,1.7,2.8-3.6c.9-1.3,2.5-3.2,2.8-5.8C1130.1,400.3,1129.5,401.6,1127.8,404.5Z"/><path class="f" d="M1166.1,413.9c-.2.2.2.6.1.6l-.6.6h.5c-.2.1-.2.2-.3.1s-.1.8-.5,1.1,0,.8.2,1.1-.8.6-.9,1.1-1.5,1-2,1.6a3.6,3.6,0,0,0-1.1,1.4,18.6,18.6,0,0,1-2.6-.1c-.8,0-3.8-1.5-4-2.2a19.8,19.8,0,0,1-2.2-6,33.9,33.9,0,0,1-.3-5.8c-.2,0,0-.2-.2-.3-1.7,2-3.8,5-5.6,7.2-.1,0-.1.2,0,.4a23,23,0,0,1-2.1,3.3,9.9,9.9,0,0,1-2.4,2.3c-.4,0-.7-.6-1.1-.6s.1.2-.3.2-1.9-3-2.2-3.3a1.4,1.4,0,0,1-.6-1.2,33.4,33.4,0,0,0,.5-3.7,11.3,11.3,0,0,0,.9-2c.2-1,.2-2.2.4-3.2,1.3-3.5,3.1-8.7,4.9-13.4,0-.2-.1-.8-.1-1.3a10.9,10.9,0,0,1,1.8-1.5,13.1,13.1,0,0,0,1.2,1.5,2.2,2.2,0,0,0,.2-1.1,4.8,4.8,0,0,0,1.6.9c0,.3-.3.8,0,1.1h.5v.7c.1.4-.3.9-.5,1.5s-.3,2.8-.6,4.1a1.5,1.5,0,0,1-.4.9,9,9,0,0,0-.4,2.8c1-.9,2.6-3.6,3.9-4.1s1.3-.1,2-.6a3.1,3.1,0,0,1,.8,1c.4-.2.5-.4.9-.4s1.2.8,1.7,1.3h0c0,.1,0,.2-.1.2s.3.3.4.3c1.5,3,1.2,1.9,1.4,3.6s-.4,5.7-.2,8.3a15,15,0,0,0,.2,3.6c.1.2.5.2.8.2s3.4-1.9,4.5-2.3h-.1c-.1,0-.2,0-.1.1h.2c.4,0,1.4-1,2.4-1.5A3.5,3.5,0,0,0,1166.1,413.9Zm-10.3-14.5v-.3h-.4v.3Z"/><path class="f" d="M1188.2,398.5c0,.2.2.2.4.2s-.9.5-.2,1.1l-2.2,1c0,.3.3.3.5.5s-2,1.5-3.3,1.7-1,1.5-1.5,1.5.1-.1-.2-.3-.2.2-.2.6a32.6,32.6,0,0,0-4.5,1.4c-.2.1,0,.2,0,.4s0-.1-.5-.1l-3,1-.5.8a6.9,6.9,0,0,0-1.9,1,60.4,60.4,0,0,0-1.3,6.7c0,.5.7,2.9.7,3.3s-.8.9-.8,1.5h-1c-.5,0-.6-.8-.8-1-2-1.9-1.7-3.5-2-5.1s.3-3.5.2-6.7c0-.5-1.8-2.6-1.8-3s.3-1.6.3-2.6.4-.4.4-.5l.7-.2c.6,0,.1.2.6.2a1.2,1.2,0,0,0,.9-1c.8-1.9,1.5-8.1,2.2-10.8s1.7-5.8,2.5-8.8c.3-1.3.9-3.1,1.4-4.8s.6-3.4,1.9-4.3a2.5,2.5,0,0,1,1.1-.4c.5,0,.9,1,1.4,1h.5v.4c0,.5,1.3,2.5,1.3,3.1a10.7,10.7,0,0,1-.8,2.7,6.5,6.5,0,0,1,.2,1.1c-1.3,4.4-2.7,8.7-4,12.8-.3,1.8-.8,3.8-1.3,5.7v.4a2.8,2.8,0,0,0,1.3.1l1.4-.2c.4,0,0,.3.6.3l1.6-.4c2.9-.5,6.2-.8,10.3-1.1C1188.8,398.1,1188.5,398.2,1188.2,398.5Z"/><path class="f" d="M1068.5,462.1l-.5,1.1a.9.9,0,0,1-.6-.3l-.5.6h.1v-.2h0a2.3,2.3,0,0,0-1.1.8,1.5,1.5,0,0,0-.1-.7,9.4,9.4,0,0,1-1.6-1.4v-.5c.1-.2,0-.7.2-1.1h-.1c-.1,0-.2,0-.2-.2a3,3,0,0,1,.1-1.3c.1-.1.2,0,.3-.2l.2-.3c-.1-.2,0,.1,0-.3s-.7-4.1-1.6-4.8a6.9,6.9,0,0,0-2.3-1.3c-.4,0,.1.2-.4.2s-.3-.3-.6-.4h-.7c-.6,0-3.5,2.1-3.7,2.4a11.4,11.4,0,0,0-1.3,3,2.8,2.8,0,0,0-.3,1.3,11.3,11.3,0,0,0,.3,2.9c0,.4.5.9.6,1.4s0,2.4.8,3.5l1.5,4.6c0,.2.3.5.5.8,1,3,1.5,5.1,3.1,8.9a29.3,29.3,0,0,1,1.7,8.9,12.4,12.4,0,0,1-.6,3.1c0,.3.2.6,0,1a4.9,4.9,0,0,1-2,2.7,5.7,5.7,0,0,1-1.1,1h-.5a8.9,8.9,0,0,1-3.5.8h-1.4c-.5,0-3-1.1-3.4-1.1s.1.2-.3.2-1-.7-1.1-1-2.3-1.2-3.2-2.3-2.6-3.1-2.8-4.4-.6-1.4-1.1-2.2.4-.3.2-.5l-.4-.5a8.3,8.3,0,0,0-.1-2.2c0-.3-.4-.4-.4-.9s.2-.3.2-.6.1.3.5.5a4.9,4.9,0,0,1,0-2.1l.4.5a3.4,3.4,0,0,0-.3-2.2c.3,0-.1-.3.4-.3h.4c0-.5.2-.8.2-1.3a3.3,3.3,0,0,0,0,1.4c0,.2.2.1.2.1s0,1.3.7,1.4a3.7,3.7,0,0,0,.4,1.4l.3-.3c0,1.8.9,4.6,1.6,5.3s1,2,1.5,2,0-.1,0-.3,4.8,2.7,6.6,2.7h.8l.4.2a8.1,8.1,0,0,1,1.3-.6,3.9,3.9,0,0,0,1.5-1.8,8.6,8.6,0,0,0,.1-1.6c0-.5-.1-.3-.1-.3a10.8,10.8,0,0,0,0-1.8,119.7,119.7,0,0,0-4.9-13c0-.3-3.7-11-3.7-14.1v-1.5a11.2,11.2,0,0,1,.4-2.1,19.9,19.9,0,0,1,1.9-4.5c0-.2-.2-.1-.2-.4s1.1-.9,1.4-.9-.1.3.2.3,1.7-1.5,2.3-1.5l4-.2,3.3,1.1a9.9,9.9,0,0,0,2.3,1c2.9.3,4.3,7.7,4.3,10.1A17.6,17.6,0,0,1,1068.5,462.1Z"/><path class="f" d="M1076.6,495.2c-.3.2-.3.7-.5,1a7.8,7.8,0,0,1-4.1,1.3c-2,0-3-1.2-4.3-2.2s-.7-2-1.5-2a22.4,22.4,0,0,1-.5-2.6c0-2.8,2.5-8.2,3.1-9.1s.1-.8.3-1.1a15,15,0,0,0,1.5-2.3l.5-.2c.3-.1.2-.5.4-.8s1.2-.9,1.6-1.5.2-.8.4-1.3-.5-.3-.8.1-.1-.3-.1-.4-.2.3-.2.6-.2-.5-.5-.5h.1c.1,0,.2,0,.3-.2-.3-2.4,4.1-3.3,4.8-4s.9.3,1.6.6l2,2v.2l.3.5a.7.7,0,0,1,.6.2c2,2.8,3.4,5.3,3.4,8.1C1085.1,486.2,1081.3,491,1076.6,495.2Zm2.3-18.2a38.6,38.6,0,0,1-2.8,4c-1.4,2.6-4.1,7.9-4.1,8.4v.6a25.5,25.5,0,0,1,2.6-1.9c.5,0-.3.3.2.3s3.3-4.2,3.4-4.5a33.6,33.6,0,0,0,1.5-4.5A6.7,6.7,0,0,0,1078.9,477Zm-.7-.5v-1h-.3v1Z"/><path class="f" d="M1114,488.4l-1.1,1c.3.3.4.7.7,1a11.4,11.4,0,0,0-.9,1.6.2.2,0,0,0,0,.4l-1,1c.3.3.4.2.7,0a.5.5,0,0,1-.5.5c-.5,0-.1-.1-.3-.3s-.1.5-.4.8a3.7,3.7,0,0,1-1.1,1,7.7,7.7,0,0,1-2.8,1.5,14.1,14.1,0,0,1-4.6-1.1,7.1,7.1,0,0,1-1.3-1.2c-.8-1.6-1.4-3.4-2-4.7s-.1-1.4-.1-1.8a2,2,0,0,0-.2-1.1c-2.4,2.9-5.1,5.7-7,9.3l-1.3.8h-2c-.2-.6-1.1-1-1.7-1.6s-1-1-1-1.6a6.8,6.8,0,0,1-.5-2.3c0-3.1.8-4.9,1.3-7.8a4.6,4.6,0,0,0,1.1-2.2,4.9,4.9,0,0,1-.1-1.2,3.2,3.2,0,0,1,1-1.2c.3-.3.2-1.1.4-1.7s.4-.3.6-.5-.1-.3,0-.6c1.3-2.4,2.2-6.5,5.2-6.5.4,0,.7.4,1.3.2s.7,1.1,1,1.7a6.4,6.4,0,0,1,.2.9c0,1.7-1.7,4.5-2.7,6.7l-1.7,3.8c-.6,1.3-1.3,2.7-2,4.4a.9.9,0,0,0,.1.7,10.8,10.8,0,0,0-1,2.7v.5h.1c4.4-5,8.4-9.1,11.1-14.3a22.3,22.3,0,0,1,1.9-3.2l1,.7c.3,0,.1-.3.1-.5s.2.5.7.5-.1-.2.3-.2a3.8,3.8,0,0,0,1.8,1.2,5.4,5.4,0,0,1,.9,2.5c0,.3-.9,1.8-1.3,2.8a33.6,33.6,0,0,0-1.4,4.8h-.1c-.1.1-.2.2-.2.3a28.3,28.3,0,0,0-.5,4c0,.4.1.5.4.6h.5l1.7-.3,2.4-.6a19.8,19.8,0,0,0,3.8-2Z"/><path class="f" d="M1131.3,478.5a8.6,8.6,0,0,0-2.8,0,8.9,8.9,0,0,0-.3-1.9c-2.6,1-4.7,4-6.4,6.6,0-.2,0-.3-.2-.3s-.3.6-.2.7h-.2a.8.8,0,0,0-.1.3c-.1.2.1.2.1.5h-.7c-.2.3.3.4.3.5a14.3,14.3,0,0,1-1.6,2.4c0,.3.2.4.2.5a6.9,6.9,0,0,1-1.1,1.3c-.4.5-.3,1.1-.6,1.6s-1.7,3.9-1.1,5.8a2.5,2.5,0,0,1-1.2.4,8.3,8.3,0,0,1-1.8-.8c-.3-.2,0-1.1-.7-.9a10.3,10.3,0,0,1-1.1-3.4c0-.3,1-3.9,1.1-5.7a44.6,44.6,0,0,0,1.3-7.3c.2-1.5.4-3.5.6-5.3s.3-2.7.6-3.9h.8a3.1,3.1,0,0,1,2.3,1.8,14.3,14.3,0,0,1,.7,2.8c0,.7-.2,1.3-.2,2.3.6-1.6,4.2-4.3,6.3-4.3a9,9,0,0,1,6.2,2.9c.3.3.4.9.7,1.4S1131,477.9,1131.3,478.5Z"/><path class="f" d="M1150.2,486.4c-.5,0-.2-.2-.4,0s-.3.4,0,.4.2-.1.5-.1-.6,1-.4,1.2-1.8,1.4-2.5,2.1a.3.3,0,0,0,.3.3v.6l-5.6,3.4a3.8,3.8,0,0,1-.8,1.1,18.9,18.9,0,0,1-5.5,1.6c-3.4,0-6.3-3.6-6.5-6.5,0-.5-.1-1.1-.1-1.6a23,23,0,0,1,.5-3.9,13.8,13.8,0,0,1,1.4-4.2c.2-.1.2-.5.2-.9a17.1,17.1,0,0,1,2.1-3.5,6.3,6.3,0,0,0,1.5-1.8c0-.1,0-.1-.1-.2l-.2.3c.8-.9,1.7-2.8,2.7-3.9s1-.4,1.5-.6.6-.7,1.1-.7a12.2,12.2,0,0,1,2.7.6,8.8,8.8,0,0,1,2.6,2.5,9.9,9.9,0,0,1,.6,2.5c0,.7-.7,4.5-1.4,4.9l-1,.2c-1,0-1.5-.8-1.8-1.8s-.9-1.3-.6-2h-.2a44.6,44.6,0,0,0-5.4,8.8,49.2,49.2,0,0,0-1.7,5.6v.9a4.5,4.5,0,0,0,1.8.4,19.3,19.3,0,0,0,2.9-1.1c2.3-1,5.3-2,8.4-3.5.8-.5,2.9-1.7,4.4-2.4C1150.9,485.5,1150.7,486.4,1150.2,486.4Z"/><path class="f" d="M1161.7,489.9c.2.1.5,0,.7.3a2.3,2.3,0,0,1-.8.9,2,2,0,0,0-.2,1.1,15.9,15.9,0,0,0-3.4,3c0,.2.2.7-.4.9a6.2,6.2,0,0,1-2.6.9c-4.3.3-6.6-5.2-6.8-8a24.7,24.7,0,0,1,.5-4.3l.7-2.8a34.5,34.5,0,0,1,2.1-6.8,3.9,3.9,0,0,1,.1-.9c.3-.2.3-.7.8-1.2a8,8,0,0,0,1.5-.3,3.5,3.5,0,0,1,2.6,1.1,2.8,2.8,0,0,1,1.5,2.3,10.3,10.3,0,0,1-.3,1.2,34.8,34.8,0,0,0-.6,3.5,9.9,9.9,0,0,1-1,3.4,21,21,0,0,0-.6,2.4c-.8,2.6-1.4,3.5-.9,5a27.3,27.3,0,0,0,8.2-5.9C1162,486.4,1163.2,488.7,1161.7,489.9Zm-2.9-23.3a5.3,5.3,0,0,1-2.6-.8.6.6,0,0,0-.2-.5c-1-.5-1.5-2.1-1.9-3.2s0-1.7-.4-2.3c3,.2,3.3-.5,4.9-.7s1.1.9,1.3,1.4-.2,1.2.6,1.9C1159.4,464.1,1161.9,466.4,1158.8,466.6Z"/><path class="f" d="M1189.2,490.2c-.2.2.2.5.1.6l-.6.6h.5c-.2.1-.2.2-.3.1s-.1.8-.5,1.1,0,.7.3,1-.9.6-1,1.1-1.5,1.1-2,1.7-.9,1.1-1.1,1.4a18.6,18.6,0,0,1-2.6-.1c-.8,0-3.8-1.6-4-2.2a20.4,20.4,0,0,1-2.2-6.1,32.7,32.7,0,0,1-.3-5.7c-.2-.1,0-.3-.2-.3-1.7,2-3.8,5-5.6,7.1-.1.1-.1.2,0,.5a30.2,30.2,0,0,1-2.1,3.3,12.2,12.2,0,0,1-2.3,2.3c-.5,0-.8-.7-1.2-.6s.1.2-.3.2-1.9-3.1-2.2-3.3a1.7,1.7,0,0,1-.6-1.2,36.1,36.1,0,0,0,.5-3.8,8.8,8.8,0,0,0,.9-2c.3-1,.2-2.1.4-3.1,1.3-3.6,3.1-8.8,4.9-13.4,0-.3-.1-.9-.1-1.4a9.8,9.8,0,0,1,1.8-1.4,13,13,0,0,0,1.2,1.4c.2-.2.2-.8.2-1.1a4.8,4.8,0,0,0,1.6.9c0,.4-.3.8,0,1.1h.5v.7c.1.5-.3.9-.5,1.5s-.3,2.8-.6,4.1a1.1,1.1,0,0,1-.4.9,10.1,10.1,0,0,0-.4,2.9c1-1,2.6-3.7,3.9-4.2s1.3,0,2.1-.5a3,3,0,0,1,.7,1c.4-.2.5-.4.9-.5s1.2.9,1.7,1.3h0v.2c0,.2.3.2.4.2,1.6,3.1,1.2,1.9,1.4,3.7s-.4,5.6-.2,8.3a15.3,15.3,0,0,0,.2,3.6,1.1,1.1,0,0,0,.8.1c1.1,0,3.4-1.8,4.5-2.3h-.1c-.1,0-.2.1-.1.2h.2c.4-.1,1.4-1,2.4-1.6A3.9,3.9,0,0,0,1189.2,490.2Zm-10.3-14.5v-.3h-.4v.4Z"/><path class="f" d="M1210.6,481.2c-2.3,10.9-2.8,15.2-4.6,21.7a73.3,73.3,0,0,1-1.9,8.2c-.8,2.3-2.2,5.4-2.9,7.9-.1.5-.6.7-.8,1s-.8,2.6-1.5,3.4a21.1,21.1,0,0,1-2.5,2.7,3.2,3.2,0,0,1-1.8,1.2l-1.3.2-2.3-.2c-.2-.1-.1-.2-.3-.4a9.9,9.9,0,0,1-2.3-1.3c-.5-.3-1.4-1.3-2.2-2s-.2-.7-.5-1.2-2.8-4-2.8-5.1l-.2-5.5c0-.1.6-1.9.8-2.8l.3.5c0-.3.5-.8,0-1.2s1.5-2.5,2.4-3.6,1-1,1.5-1.6-.5,1.2-1.1,2.1h.3c.2,0,.3-.2.5-.6s.3,0,.3.4-1.4,2.5-1.6,3.5h0c0,.1,0,.2.1.2a1.8,1.8,0,0,0,.4-.9,9.5,9.5,0,0,1-.5,1.8l-.4-.2h0a.5.5,0,0,0,.4.5.9.9,0,0,1-.3.5c0,1.1-.4,2.9-.3,3.4s.3,1.9.5,2.9,2.8,6.5,3.8,6.5.3.1.8.1a3.7,3.7,0,0,0,1.6-.4c.5-.1,1.1-1.6,1.7-2.2a14.1,14.1,0,0,0,3.3-5.6,5.8,5.8,0,0,1,.5-1.4c3.6-8.5,5.3-21.5,6.3-28-.2-.2.3-.7.3-1.1h0a6.9,6.9,0,0,0-1,1.2,1.2,1.2,0,0,0,.2-1c-1,1.5-2.4,3-3,3.8a3.4,3.4,0,0,0-.1,1,32.8,32.8,0,0,1-4.3,4.9,25.1,25.1,0,0,1-2.3,2.5c0,.2.1.3.1.5a11.4,11.4,0,0,1-1.5.6,7.7,7.7,0,0,1-2.7-.9l-.8-1a.4.4,0,0,0-.1-.3c-.9-1.1-.7-1.5-.9-2.6,0-3.3,2.6-8.4,4.3-10.7,4.8-7,7.1-12.6,12.8-12.9.3,0,1,1.3,1.5,1.8s-.1.8.2,1.1,2.2,1,3.1,1.6,1.4,1.4,1.5,2.5S1210.9,479.6,1210.6,481.2Zm-6.9-4.1c-.2,0-.2.2-.4.4a.6.6,0,0,0-.5-.2v-.8l-.3.4a1.1,1.1,0,0,1,0-1.1,17.2,17.2,0,0,0-2.4,3.4,17,17,0,0,1-2.1,2.8c-1.3,2.5-2.7,6-3.9,8.4,1.8-1.8,3.8-4.2,5.1-5.7s4.6-5.9,4.6-7.1Zm-2.2,11-.8.7h0l.6-.7Zm1.7-2.1-1.4,1.8v-.2l1.3-1.6Zm.5-1.2c.5-.3,1-.4.9-1.1Z"/><path class="f" d="M845.8,887.1l.3,1a12.5,12.5,0,0,0-2.7,2.3,14.5,14.5,0,0,1-2.3,1.9,3.5,3.5,0,0,0-.9,1.1,58.6,58.6,0,0,0-5.6,3.6c0,.2.2.5-.1.5s0,.3-.5.3-.2.1-.4-.2a3.3,3.3,0,0,0-.3.6l-3.2.8c-.3,0-.8.4-1.1.2s.1.4-.3.4l-2.1-.2c-.5,0-.1.2-.6.2s-5.6-3.4-6-4.1a20.9,20.9,0,0,1-1.9-2.9,23.2,23.2,0,0,1-2.6-6.9,10.1,10.1,0,0,0-.2-2.5c0-3.6,1.5-9,2.9-12.9.3-.8,1.4-2.5,1.9-3.6a14.6,14.6,0,0,0,.7-1.9c2-3.7,6.9-10.8,9.8-12.2.4-.2.9-.7,1.3-.7s.5.4,1,.4-.1-.1.4-.1l2.2.5c.5.1,1,.8,1.7,1.1a4.3,4.3,0,0,1,2.4,2,8.7,8.7,0,0,1,.6,3.1c0,1.1-.5.9-.7,1.7a5.6,5.6,0,0,1-.4,1.5,11.6,11.6,0,0,1-1.4,2.4c-.5.2-.7.9-1,.9a3.8,3.8,0,0,0-1.5,0c-.2-.2,0-.3,0-.5s-.3-.1-.6-.2-.9-1-1.4-1.2,1.7-4.2,1.7-4.6V858h-.2c-.8,0-3.7,3.6-3.7,3.9a24.9,24.9,0,0,0-2,3.2c-1,1.8-2.2,3.3-3,5s-1.2,3.9-2,5.9a20.2,20.2,0,0,0-.8,2.9,32.1,32.1,0,0,0-1.3,7.3c0,.3-.2.6-.2,1.1s.3.8.3,1.1v1.5c0,.2,1.5,5.1,3,5.1s.4-.3.4-.5.2.5.7.5h1.2c1.4-.6,3.3-1,4.8-1.5l3.6-1.7c.3,0,.5-.5.8-.7a19.1,19.1,0,0,1,3.2-1.6,1.8,1.8,0,0,0,.9-1h.8c.3,0,0,.2.2.4s2.7-1.9,3.7-2,.1-.5.4-.7,1-.3,1.2.3Zm-6.3,2.9h-.3l-.2.4.2.2Zm1.6-1v-.2l-.6.4.2.2Z"/><path class="f" d="M874.2,877.7c-1,1.6-3.2,4.4-3.7,5.7s0-.4-.2-.5-.5.4-.5.9a1.1,1.1,0,0,0,.2.7c0,.3-.1.6,0,.8a51.5,51.5,0,0,1,1.2,7.2c0,.8,1.4,2.8.7,3.7a9.6,9.6,0,0,1,1,3c-.4.6-.1,1.3.1,1.9s-.8.7-.1,1.5a5.3,5.3,0,0,1-1.5-1.1,44.1,44.1,0,0,1-3.5-7.6c-.5-1.9-1.4-3.6-2-5.4-.5.3-.7.8-1.1,1.3a21.8,21.8,0,0,0-2.5,2.2c-.1,0,0,.5-.2.7l-1.4,1.1.2-.4c-.3-.2-.4.3-.6.3s-1.3,1.4-1.9,1.9-3.2,1.7-4.1,1.7h-2.8c-5.1-1.8-6.3-7.6-6.3-10.6,0-5.6,1.9-10.2,4.7-16v-.4c.2-.5.8-1.1,1-1.5a1.2,1.2,0,0,0,.3-.9l.7-.5c-.3-.2-.3-.1-.5-.1,1.1-1.8,2.1-3.8,3.2-4.8s.2-.4.1-.7a4.3,4.3,0,0,0,1-.9c2.3-4.2,10-12.1,13.3-12.1.5,0,.1.2.6.2s.1-.2.4-.2.9.4,1.3.4,0-.2.4-.2,4.2,2,4.5,2.2.7.4.7.9-.4,0-.1.8v.3h0c-.3.3-1,.1-1.3.4a22.4,22.4,0,0,0-3.2,4,.8.8,0,0,0,.2-.5c-.3-.2-.5,0-.7,0a16.5,16.5,0,0,1,.9-2.1,5.3,5.3,0,0,0,.6-1.5V853a.8.8,0,0,0-.7-.2c-1.1,0-4.7,2.6-5.1,3a3,3,0,0,0,1.6.5l3.6,2.6a10.2,10.2,0,0,1,5.3,8.6C878,869.5,874.4,877.3,874.2,877.7Zm-3.1-16.4a6.6,6.6,0,0,0-4.6-3c-.3,0-1.2,1-1.9,1.5s-.5-.1-.5-.4-.8.4-.8.6a7.1,7.1,0,0,0-1.2,1.5c-.9,2.2-2.8,3.9-4,6.7,0,.2-.4.2-.4.4-3.5,6-6.4,11.5-6.9,17.1a2.1,2.1,0,0,1-.4.6v4.3a18.6,18.6,0,0,0,.4,2.6h.9c.4,0,.1-.1.3-.2,2-.5,3.9-2.1,6.6-4.3a27.5,27.5,0,0,0,2.3-2.1c.1-.2,0-.5.3-.7h.4c-.2-.2-.2-.3,0-.5a23.1,23.1,0,0,0,2-2.4l.3.2h.1v-.3c-.1-.3.4-.7.4-1.2a66.6,66.6,0,0,1-1.5-7c-.2-2.2-.4-4.8-.4-5.2A1.5,1.5,0,0,1,864,868c.5,0,1-.1,1.2.2s0-.2.1-.3h0a20.4,20.4,0,0,1,3.3,2.5c.2.3.4.9.6,1.2a8.2,8.2,0,0,0-.7,2.5,4.1,4.1,0,0,0,.5,1.6,9.2,9.2,0,0,1,1.1-1.5,31.8,31.8,0,0,0,2-4.5,20,20,0,0,0,.6-2.3A15.6,15.6,0,0,0,871.1,861.3Z"/><path class="f" d="M916.3,896.8c-.1,0-.3.4-.8.4h-1.3a13.5,13.5,0,0,1-3-.8,2.7,2.7,0,0,1-1.3-.2c-5-2-10.3-6-15.2-11.1a58.3,58.3,0,0,0-6.2-5.1c-.2,0-.2.2-.3.4a66,66,0,0,0-1.3,7.3c-.2.6-.2.9-.4,1.4v1.4a8.4,8.4,0,0,1-.6,2.4c-.3,1.3.3,2.8,0,4.1a1.3,1.3,0,0,1-1.1.5c-.3,0-.6-.3-1.1-.7s-1.1-.6-1.3-1.1a8.2,8.2,0,0,1-.9-3.2c0-6.6,2.9-18.8,4.1-23.9.5-1.7,2.5-7.2,3.7-10.8a7.7,7.7,0,0,1-2.6-.7c-.6-.6-.4-1.5-1.3-1.7h0a.4.4,0,0,0-.1-.3c0-.2.3-.4.3-.6a3.3,3.3,0,0,0,.1-1.4l1.7-1.6a4.4,4.4,0,0,1,1.7-.7c.2,0,.2-.4.5-.4l4.8-.6c3.2,0,10.7,2.9,12.4,4.9a1.4,1.4,0,0,1,.2.7,7.9,7.9,0,0,1,2.5,4,3.2,3.2,0,0,1,.5,1.3,5.6,5.6,0,0,1-.4,1.5,10.5,10.5,0,0,1-1.2,2.9c-.4.6-1.1,1.1-1.5,1.6a2.8,2.8,0,0,1-.4.8l-1.7,1.6a43.7,43.7,0,0,1-4.6,3.7c-1.3.9-2.8,1.9-4.2,2.7s-1.9.7-2.7,1.2a2.2,2.2,0,0,1-.9.7c4.5,4.3,10.4,11.2,16.4,13.7,2.4,1.2,5.8,2.5,7.6,3.9a2.9,2.9,0,0,1,.3,1.4C916.7,896.6,916.2,896.7,916.3,896.8Zm-20.6-42.6-.9.2a9.6,9.6,0,0,1,.7,2.3,13.6,13.6,0,0,1-.3,3.1,48.6,48.6,0,0,1-2,6.1l-1.8,4.7a.4.4,0,0,1,.6,0c0-.3.5-.7.8-.9,2.6-1.9,5.2-3,7.9-5.6v-.6c1.8-1.8,3.8-4,4.2-5.7C903.2,855.9,898.9,854.2,895.7,854.2Z"/><path class="f" d="M943.9,862.4a7.8,7.8,0,0,1-.5,1.2.9.9,0,0,1-.6-.3l-.5.6h.1v-.2h0a1.9,1.9,0,0,0-1.1.8,1.5,1.5,0,0,0-.1-.7,6.7,6.7,0,0,1-1.6-1.4v-.5c.1-.2,0-.7.2-1.1h-.1c-.2,0-.2,0-.2-.2a3,3,0,0,1,.1-1.3c.1-.1.2,0,.3-.2l.2-.3c-.1-.2,0,.1,0-.3s-.8-4.1-1.6-4.8a8,8,0,0,0-2.3-1.3c-.4,0,.1.2-.4.2s-.4-.4-.6-.4h-.7c-.6,0-3.5,2.1-3.7,2.4a8.8,8.8,0,0,0-1.3,3,2.7,2.7,0,0,0-.3,1.2,11.6,11.6,0,0,0,.3,3c0,.4.5.9.5,1.4s.1,2.4.9,3.4l1.5,4.7a2,2,0,0,0,.4.8c1.1,3,1.6,5.1,3.2,8.9a29.3,29.3,0,0,1,1.7,8.9,12.4,12.4,0,0,1-.6,3.1c0,.3.2.6,0,1a5.4,5.4,0,0,1-2,2.7,5.7,5.7,0,0,1-1.1,1h-.5a8.9,8.9,0,0,1-3.5.8h-1.4c-.5,0-3-1.1-3.4-1.1s.1.2-.4.2-.9-.7-1.1-1-2.2-1.2-3.1-2.3-2.6-3.1-2.8-4.4-.6-1.4-1.1-2.2.3-.4.2-.5l-.4-.5a8.3,8.3,0,0,0-.1-2.2c0-.3-.4-.4-.4-.9s.2-.3.2-.6.1.3.5.4a4.4,4.4,0,0,1,0-2,1.4,1.4,0,0,1,.3.5,3.4,3.4,0,0,0-.2-2.2c.2,0-.1-.3.4-.3h.4c0-.5.2-.8.2-1.3s-.2.8,0,1.3.2.2.2.2,0,1.3.7,1.4a3.7,3.7,0,0,0,.4,1.4l.3-.3c0,1.8.9,4.6,1.6,5.3s1,2,1.4,2,.1-.1.1-.3,4.8,2.7,6.6,2.7h.8l.3.2c.2-.2,1-.4,1.3-.6a3,3,0,0,0,1.5-1.8,4.4,4.4,0,0,0,.2-1.6c0-.5-.2-.3-.2-.3a3.7,3.7,0,0,0,0-1.8,117.8,117.8,0,0,0-4.8-13c0-.3-3.7-11-3.7-14.2v-1.4q.1-1.2.3-2.1a20.8,20.8,0,0,1,2-4.5c0-.2-.2-.1-.2-.4s1-.9,1.4-.9-.2.3.2.3,1.7-1.5,2.2-1.5l4.1-.2c.3,0,2.4.9,3.3,1.1a9.9,9.9,0,0,0,2.3,1c2.9.3,4.3,7.7,4.3,10.1A14.8,14.8,0,0,1,943.9,862.4Z"/><path class="f" d="M1357.1,818.1h-8.6l-1,.3c-.8.3-2.2.2-3,.4s-2.5.4-4.3.7l-.3.3c-1.5-.3-2.6.2-4.1.5h0c0,.1-.1.1-.2.1l-2,.2a2,2,0,0,0-1,.7c-.7,1.8-1.2,3.7-1.7,5.5s-1.3,4.3-2.3,6.4l.3.3.9-.3c.4,0,.2.1.4.3l.5-.5.2.2h.2c.5,0,11-2.5,11.5-2.5s.1.1.4.1l4.3-1-.3.3a1.6,1.6,0,0,1,.5,1c0,.4-.4.4-.6.9s.3.3.3.6-1.7.8-2.5,1-.7.6-.1.6a2.7,2.7,0,0,0-1.6.5c.2.2.4,0,.7,0l-9.6,3.9a12.8,12.8,0,0,0-3.5,1.1,13,13,0,0,1-3.3.5c-.4,0,.1-.1-.3-.1s-1.2,3.8-1.4,5-1,5.8-1,6.3.2.4.2.5-.3.9.7,2.1l.8.2c.5,0,.2-.3.7-.3s.6.5,1,.5l1.3-.2,1.7-.6a19.9,19.9,0,0,0,3.6-1.5c1-.5,1.9-1.8,2.9-1.8s.1.4.4.4-.4.9.4,1.4-.5,1.1-1,1.6.3.2.5.2a10.8,10.8,0,0,0-1.8,2c-.2.2-.2.6-.8.9a16.4,16.4,0,0,1-4.6,2.2h-2.4c-.5,0-.4-.2-.6-.2a6.1,6.1,0,0,1-3.4-1.5,10.2,10.2,0,0,1-4.3-5.2,16.9,16.9,0,0,1-.8-4.1v-4.4c.2-.2.3-.3.3-.4.8-5,2.3-7.1,1.4-8.9a.9.9,0,0,0,.9-.5c1.1-3.1,2.2-6.6,3.3-9.9a15.9,15.9,0,0,0,.9-2c0-.5-.9-1.1-1.4-1.3s-.8-.9-1-1.6l-.9-2.7V816h.1l.3-.2c.3,0,0,.2.3.2s.3-.3.5-.3a48.6,48.6,0,0,1,5.5-1.4c1.7-2.5.5-2.6,2.7-2.6.3,0,.5.2.8.4s.8.9,1.4,1.4h.4c.4,0,2.8-.5,4.2-.5,3.7-.2,10.3.1,10.8.1a30.7,30.7,0,0,1,5.1,1.2,7.9,7.9,0,0,1,3.1,1.3c.7.5.3,1.1.8,1.7S1357.4,818.1,1357.1,818.1Z"/><path class="f" d="M1370.7,831.1c0,.1.1.1.2.1h.2c0,.2-.3.4-.4.7s.3.1.8.3-1.7,1.8-1.5,2.7l-1.9,2.1c.2.2.4.2.5,0a42.8,42.8,0,0,1-3.4,5.2c-1.6,2.6-4.3,7.3-5.3,9s-2.1,3.8-2.5,5.2a13.4,13.4,0,0,0-1.2,3l-.8.5h-.9c-2.2.3-4.7-4.3-4.9-5.2s-.4-7.6-.8-11.3a42.7,42.7,0,0,0-.7-7.5,3.9,3.9,0,0,1-.5-1.3v-1.2h.8c.5-.2.3.1.7,0h.3c.3-.2,2.5,1.1,3.2,2a25.8,25.8,0,0,1,1.2,3.4c0,2,.5,4.1,1.4,7.8a71.1,71.1,0,0,1,7.2-9.8c.8-.6,3.4-3.8,4.9-4.4l.6-.9a20.7,20.7,0,0,1,2.5-1.3c.8-.5.5-.2,1.2,0Zm-1.5,5.4-.4.5v-.2l.3-.4Z"/><path class="f" d="M1384.1,853.4c0,.3.3.5.7.7s-.4.9-.7,1.5-1.7,1.2-1.7,2.2a6.2,6.2,0,0,1-2.5.4c-.3.2,0,.3.3.3a16.8,16.8,0,0,0-2.4.7v.2c0,.1-.1.1-.3.1s-2.7-1.3-2.9,0l-.7-1c-1.9-.4-2.4-.9-4-2.6s-.6.6-1.8-4.6a9.5,9.5,0,0,1,.5-5,25.4,25.4,0,0,1,2.2-5.8,40.4,40.4,0,0,1,2.1-4.1,14.6,14.6,0,0,0,1.7-2.4c1-.9,1.1-1.5,2.4-2.3s2-.6,1.8-1.4-.1.1-.1.2,0,.2.2.2-.1-.2.4-.2,1.2.6,1.8.7,0,1.3.5,1.3,0-.2.4-.2.6.3.8.6c0,2.7,1.3,1.3,1.3,3a42.3,42.3,0,0,1-1.2,5.2,28.8,28.8,0,0,1-3,4.4c-1.9,2.3-5.6,6-5.6,6.5s1.2,1.3,2,1.7a5.5,5.5,0,0,0,1.8.2c.8,0,1.3-.7,2.3-.2l4.7-1.5.6.3C1385,852.8,1384.7,853.2,1384.1,853.4Zm-8.9-11.3-1.4,2.5-.3,1.8,2.8-3.6c.9-1.3,2.5-3.2,2.8-5.8C1377.4,837.9,1376.8,839.2,1375.2,842.1Z"/><path class="f" d="M1413.4,851.6c-.2.2.2.5.1.6a3.4,3.4,0,0,0-.6.6h.5c-.2.1-.2.2-.3.1s-.1.8-.5,1.1,0,.7.2,1-.8.6-.9,1.1-1.5,1.1-2,1.7a3.6,3.6,0,0,0-1.1,1.4,18.6,18.6,0,0,1-2.6-.1c-.8,0-3.8-1.6-4-2.2a20.4,20.4,0,0,1-2.2-6.1,32.7,32.7,0,0,1-.3-5.7c-.2-.1,0-.3-.2-.3-1.7,2-3.8,5-5.6,7.1-.1.1-.1.2,0,.5a30.2,30.2,0,0,1-2.1,3.3,9.9,9.9,0,0,1-2.4,2.3c-.4,0-.7-.7-1.1-.6s.1.2-.3.2-1.9-3.1-2.2-3.3a1.4,1.4,0,0,1-.6-1.2,36.1,36.1,0,0,0,.5-3.8,8.8,8.8,0,0,0,.9-2c.2-1,.2-2.1.4-3.1,1.3-3.6,3.1-8.8,4.9-13.4,0-.3-.1-.9-.1-1.4a9.8,9.8,0,0,1,1.8-1.4l1.2,1.4c.2-.2.2-.8.2-1.1a4.8,4.8,0,0,0,1.6.9c0,.4-.3.8,0,1.1h.5v.7c.1.5-.3.9-.5,1.5s-.3,2.8-.6,4.1a1.1,1.1,0,0,1-.4.9,10.1,10.1,0,0,0-.4,2.9c1-1,2.6-3.7,3.9-4.2s1.3,0,2-.5a1.9,1.9,0,0,1,.8,1c.4-.2.5-.4.9-.5s1.2.9,1.7,1.3h0v.2c0,.2.3.2.4.2,1.5,3.1,1.2,1.9,1.4,3.7s-.4,5.6-.2,8.3a15.3,15.3,0,0,0,.2,3.6,1,1,0,0,0,.8.1c1.1,0,3.4-1.8,4.5-2.3h-.1c-.1,0-.2.1-.1.2h.2c.4-.1,1.4-1,2.4-1.6A3.9,3.9,0,0,0,1413.4,851.6Zm-10.3-14.5v-.3h-.4v.4Z"/><path class="f" d="M1435.5,836.1c0,.2.2.3.4.3s-.9.4-.2,1a15.1,15.1,0,0,0-2.2,1.1c0,.2.3.3.5.5s-2,1.4-3.3,1.7-1,1.5-1.5,1.5.1-.2-.2-.4-.2.2-.2.6a33.9,33.9,0,0,0-4.5,1.5c-.2,0,0,.2,0,.3s0-.1-.5-.1a14.4,14.4,0,0,0-3,1.1l-.5.7a7.2,7.2,0,0,0-1.9,1.1c-.5,2.1-1.3,6.2-1.3,6.7s.7,2.9.7,3.2-.8.9-.8,1.5h-1c-.5,0-.6-.7-.8-1-2-1.8-1.7-3.4-2-5.1s.3-3.5.2-6.7c0-.4-1.8-2.6-1.8-2.9s.3-1.7.3-2.6l.4-.5a1.5,1.5,0,0,1,.7-.3c.6,0,.1.2.6.2a1.1,1.1,0,0,0,.9-.9c.8-2,1.5-8.1,2.2-10.9s1.7-5.8,2.5-8.7c.3-1.4.9-3.2,1.4-4.8s.6-3.5,1.9-4.3a1.8,1.8,0,0,1,1.1-.5c.5,0,.9,1.1,1.4,1.1h.5v.3c0,.6,1.3,2.5,1.3,3.1a12.5,12.5,0,0,1-.8,2.8,4.3,4.3,0,0,1,.2,1.1c-1.3,4.4-2.7,8.7-4,12.8-.3,1.7-.8,3.8-1.3,5.7v.3c.5.3.7.1,1.3.1l1.4-.2c.4,0,0,.4.6.4s1-.4,1.6-.4c2.9-.5,6.2-.8,10.3-1.1C1436.1,835.7,1435.8,835.9,1435.5,836.1Z"/><path class="f" d="M1337.1,912.3a26.7,26.7,0,0,1-2,4.2c-.2.6-.4,1.5-.7,2.2a34.2,34.2,0,0,1-2.7,4.7c-1.1,1.3-2.6,3.1-4.2,5.4a23.2,23.2,0,0,1-2.1,1.8,14.6,14.6,0,0,1-3.4,2.9c-.2.1-.1.3-.3.5s.1-.2-.2-.4-.3.8-.8,1.1a5.5,5.5,0,0,1-2.4,1.4h-1.1l-.4-.3h-.1c-.5,0-1.5-1-2.1-1.5s.1-.3,0-.4a9,9,0,0,1-1.3-2.9,20.7,20.7,0,0,0,.8-2c0-.5-.8-1-1-1.5a1.1,1.1,0,0,1-.3-.9,1.4,1.4,0,0,1,0-1.3c0-.2-.3-.1-.3-.6s.1,0,.3-.2a72.1,72.1,0,0,1,1.5-7.2c.3-1.2,6.6-23,6.6-25.7,0-.2-.2-1-.3-1.6s-.7-.8-.7-1.1.1-.5.4-.5a1.3,1.3,0,0,0,.8.3,19.9,19.9,0,0,1,2.5.7c.1,0,.3.6.7.6a9.7,9.7,0,0,1,2.1,1c2.7,1.6,6.6,4.2,8.5,6.8a16.5,16.5,0,0,1,2.9,9.2A28.3,28.3,0,0,1,1337.1,912.3Zm-7.5-15.3h.1a13.9,13.9,0,0,0-3.8-2.5c.6,4.8-2.2,11-3,15.6s-2,6.7-3,10.2c-.5,1.1-1.5,3-1.5,3.9s-.2,0-.3.2a43,43,0,0,1-.9,4.7c-.1-.1-.1-.2-.1-.5l-.5.7c0,.3.2.5.1.7a.9.9,0,0,0-.6-.3,1.6,1.6,0,0,0,0,1c.3-.2.4-.5.6-.5s-.2.3.1.3.2-.6.4-.8-.2.1.3.1,4.9-4.5,5.1-4.6,1.1-1.7,1.5-2.3,3.1-3.9,3.9-5.2a23.3,23.3,0,0,0-1.9,2.3c1.6-2.6,3.4-5.2,4.7-7.8a23.4,23.4,0,0,0,2-7.8C1332.8,901.7,1332,898.2,1329.6,897Z"/><path class="f" d="M1357.5,916.1a12,12,0,0,0-2.7,0c-.1-.4-.1-1-.3-1.8-2.6.9-4.8,4-6.4,6.5,0-.2-.1-.3-.2-.3s-.3.7-.2.8h-.2l-.2.3c0,.2.2.3.2.5s-.2.2-.4.2h-.1c-.1,0-.2,0-.2.1s.3.4.3.4a11.1,11.1,0,0,1-1.6,2.4c0,.3.2.4.1.5a3.6,3.6,0,0,1-1.1,1.4c-.3.4-.2,1.1-.5,1.6s-1.7,3.9-1.1,5.7a1.9,1.9,0,0,1-1.2.4,10.8,10.8,0,0,1-1.8-.7c-.3-.3,0-1.1-.8-.9-.4-1.4-1.1-2.4-1.1-3.4s1.1-4,1.2-5.7a44,44,0,0,0,1.2-7.4c.2-1.5.5-3.4.7-5.3s.3-2.7.6-3.9h.8a3.4,3.4,0,0,1,2.3,1.8,10,10,0,0,1,.6,2.9,20.2,20.2,0,0,1-.1,2.3c.6-1.7,4.2-4.4,6.3-4.4a9.2,9.2,0,0,1,6.2,2.9,10.7,10.7,0,0,1,.7,1.5C1358.3,915,1357.3,915.6,1357.5,916.1Z"/><path class="f" d="M1370.3,927.6c.2.1.4,0,.6.2s-.5.8-.8,1a1.8,1.8,0,0,0-.1,1.1,13.8,13.8,0,0,0-3.4,3,.9.9,0,0,1-.4.9,9.2,9.2,0,0,1-2.6.8c-4.4.3-6.6-5.1-6.8-8a17.6,17.6,0,0,1,.4-4.3l.7-2.7a27.1,27.1,0,0,1,2.2-6.8v-.9c.3-.2.4-.8.8-1.2s1-.3,1.5-.3a3.6,3.6,0,0,1,2.6,1,3.4,3.4,0,0,1,1.6,2.3,9.3,9.3,0,0,1-.4,1.3c-.1.8-.4,1.9-.6,3.5a8.1,8.1,0,0,1-1,3.4c-.2.6-.4,1.7-.6,2.3-.7,2.7-1.3,3.5-.9,5.1a31.8,31.8,0,0,0,8.3-5.9C1370.5,924.1,1371.7,926.4,1370.3,927.6Zm-2.9-23.3a6.7,6.7,0,0,1-2.6-.9c-.1-.2,0-.3-.2-.4s-1.6-2.2-1.9-3.3-.1-1.6-.4-2.2c2.9.2,3.2-.5,4.9-.7s1,.9,1.2,1.3-.1,1.3.6,2C1367.9,901.7,1370.5,904.1,1367.4,904.3Z"/><path class="f" d="M1394.1,907.4h.4c0,.3-.3.5-.4.8l.8.3c-.7.8-1.7,1.8-1.6,2.6a19.6,19.6,0,0,1-1.8,2.1c.2.2.4.2.5.1-1,1.6-2.6,4.1-3.4,5.2s-4.3,7.3-5.3,9-2.1,3.7-2.5,5.2a10.4,10.4,0,0,0-1.2,3l-.8.4h-.9c-2.2.4-4.7-4.3-4.9-5.2s-.5-7.6-.8-11.2a42.9,42.9,0,0,0-.7-7.6,2.7,2.7,0,0,1-.5-1.3v-1.1h.8c.5-.2.3.1.7.1h.3a8.5,8.5,0,0,1,3.2,2c.5.9.7,2.2,1.2,3.4a33.9,33.9,0,0,0,1.4,7.8,64.3,64.3,0,0,1,7.2-9.7c.8-.7,3.4-3.8,4.9-4.5l.6-.8,2.5-1.4c.8-.4.5-.2,1.2.1Zm-1.5,5.4-.4.5-.2-.2.4-.4Z"/><path class="f" d="M1407.5,929.7c0,.3.3.5.7.6s-.4,1-.7,1.6-1.7,1.1-1.7,2.2a9.3,9.3,0,0,1-2.5.4c-.3.2,0,.2.3.2s-1.7.7-2.5.8v.2h-.2c-.8,0-2.7-1.3-2.9,0l-.7-1c-1.9-.5-2.4-.9-4-2.7s-.6.6-1.8-4.6a9.7,9.7,0,0,1,.5-5,27.3,27.3,0,0,1,2.2-5.8c.5-1,1.2-2.5,2.1-4.1a9.2,9.2,0,0,0,1.7-2.4c1-.8,1.1-1.5,2.4-2.2s2-.7,1.8-1.4h-.1c0,.2,0,.2.2.2s-.1-.2.4-.2,1.2.6,1.8.8,0,1.2.5,1.2,0-.2.4-.2.6.4.8.6c0,2.8,1.3,1.3,1.3,3a42.9,42.9,0,0,1-1.2,5.3,28.5,28.5,0,0,1-3,4.3c-1.9,2.3-5.6,6-5.6,6.6s1.2,1.3,2,1.6,1.4.2,1.8.2,1.3-.6,2.3-.2l4.7-1.4a.9.9,0,0,0,.6.3C1408.4,929,1408.1,929.5,1407.5,929.7Zm-9-11.3c-.7,1.4-1.2,2.2-1.3,2.5l-.3,1.7,2.8-3.6c.9-1.3,2.5-3.2,2.8-5.8C1400.8,914.2,1400.2,915.5,1398.5,918.4Z"/><path class="f" d="M1436.8,927.8c-.2.2.2.6.1.6l-.6.6h.5c-.2.1-.2.2-.3.1s-.1.8-.5,1.2,0,.7.2,1-.8.6-.9,1.1-1.5,1-2,1.6a3.3,3.3,0,0,0-1.1,1.5l-2.6-.2c-.8,0-3.8-1.5-4-2.2a19.8,19.8,0,0,1-2.2-6,33.9,33.9,0,0,1-.3-5.8c-.2,0,0-.2-.2-.3-1.7,2-3.8,5-5.6,7.2-.1,0-.1.2,0,.4a23,23,0,0,1-2.1,3.3,9.9,9.9,0,0,1-2.4,2.3c-.4,0-.7-.6-1.1-.6s.1.2-.3.2-1.9-3-2.2-3.3a1.4,1.4,0,0,1-.6-1.2,33.4,33.4,0,0,0,.5-3.7,11.3,11.3,0,0,0,.9-2c.2-1,.2-2.2.4-3.2,1.3-3.5,3.1-8.7,4.9-13.4,0-.2-.1-.8-.1-1.3a10.9,10.9,0,0,1,1.8-1.5,13.1,13.1,0,0,0,1.2,1.5,2.2,2.2,0,0,0,.2-1.1,4.8,4.8,0,0,0,1.6.9c0,.3-.3.8,0,1.1h.5v.7c.1.4-.3.9-.5,1.5s-.3,2.8-.6,4.1a1.5,1.5,0,0,1-.4.9,9,9,0,0,0-.4,2.8c1-.9,2.6-3.6,3.9-4.1s1.3-.1,2-.5a2.2,2.2,0,0,1,.8.9c.4-.2.5-.4.9-.4s1.2.8,1.7,1.3h0c0,.1,0,.2-.1.2s.3.3.4.3c1.5,3,1.2,1.9,1.4,3.6s-.4,5.7-.2,8.4a14.5,14.5,0,0,0,.2,3.5c.1.2.5.2.8.2s3.4-1.9,4.5-2.3h-.1c-.1,0-.2,0-.1.1h.2c.4,0,1.4-1,2.4-1.5A3.5,3.5,0,0,0,1436.8,927.8Zm-10.3-14.4V913h-.4v.3Z"/><path class="e" d="M1014.1,649.4h-8.6c-.3,0-.7.4-1,.4s-2.1.1-2.9.3a32.1,32.1,0,0,1-4.3.7l-.3.3a12.4,12.4,0,0,0-4.2.5h-.1c-.5,0-1.4.3-2.1.3a1.1,1.1,0,0,0-.9.7,34.2,34.2,0,0,0-1.8,5.4c-.8,2.2-1.3,4.3-2.2,6.5l.2.2.9-.3c.5,0,.3.1.5.3l.4-.4c.2,0,.2.1.2.1h.2c.5,0,11-2.5,11.5-2.5s.2.2.4.2l4.4-1-.3.2a1.4,1.4,0,0,1,.4,1c0,.5-.3.5-.5.9s.2.4.2.6-1.6.8-2.4,1-.7.6-.2.6a3.7,3.7,0,0,0-1.5.5c.2.2.4.1.6.1l-9.6,3.8a11.2,11.2,0,0,0-3.5,1.2,16,16,0,0,1-3.2.4c-.5,0,.1-.1-.4-.1s-1.2,3.8-1.4,5.1-.9,5.7-.9,6.2.1.4.1.6a3,3,0,0,0,.7,2.1c.4,0,.4.2.9.2s.2-.4.6-.4.7.6,1,.6l1.3-.2a12.4,12.4,0,0,0,1.8-.6,33.2,33.2,0,0,0,3.5-1.6c1-.5,1.9-1.7,2.9-1.7s.2.3.4.3-.3.9.4,1.5-.4,1-.9,1.5.2.2.5.2a6.5,6.5,0,0,0-1.8,2,4.8,4.8,0,0,1-.8,1,20.4,20.4,0,0,1-4.6,2.1h-2.5c-.5,0-.3-.1-.6-.2a6,6,0,0,1-3.4-1.5,10.4,10.4,0,0,1-4.3-5.1,22.5,22.5,0,0,1-.7-4.2v-4.3a.6.6,0,0,0,.2-.4c.9-5.1,2.4-7.2,1.5-9,.1.1.6,0,.8-.5,1.1-3.1,2.3-6.5,3.4-9.9a10.4,10.4,0,0,0,.8-2c0-.5-.9-1.1-1.4-1.2s-.8-1-1-1.7-.6-1.7-.8-2.6v-.5h0a.5.5,0,0,1,.4-.2c.3,0-.1.2.2.2s.3-.2.5-.3c1.7-.4,3.5-1,5.5-1.4,1.8-2.5.6-2.5,2.7-2.5a1,1,0,0,1,.8.3c.2.6.9,1,1.4,1.4h.4c.4,0,2.8-.5,4.3-.5,3.6-.2,10.2,0,10.8,0s3.4.7,5,1.2a8.3,8.3,0,0,1,3.1,1.4c.8.5.3,1.1.8,1.6S1014.5,649.4,1014.1,649.4Z"/><path class="e" d="M1027.8,662.5h.3c.1.3-.3.5-.3.7l.8.4c-.8.7-1.8,1.8-1.6,2.6s-1.3,1.5-1.8,2.1.4.2.4.1a47,47,0,0,1-3.4,5.2c-1.5,2.5-4.2,7.2-5.3,8.9s-2.1,3.8-2.5,5.2a13.4,13.4,0,0,0-1.2,3,1.8,1.8,0,0,1-.8.5h-.8c-2.3.3-4.8-4.3-5-5.2s-.4-7.6-.7-11.2a55,55,0,0,0-.7-7.6,3.2,3.2,0,0,1-.6-1.3v-1.1h.8c.5-.2.3.1.8.1s-.1-.1.2-.1a7.8,7.8,0,0,1,3.2,2,15,15,0,0,1,1.2,3.4c0,2,.6,4.1,1.4,7.8a80.3,80.3,0,0,1,7.2-9.8c.9-.6,3.5-3.7,4.9-4.4s.3-.5.6-.8l2.5-1.4c.8-.4.5-.2,1.3.1Zm-1.5,5.3-.4.6-.2-.2.4-.4Z"/><path class="e" d="M1041.2,684.7c0,.4.2.6.7.7a4.8,4.8,0,0,0-.7,1.6c-1.1-.3-1.7,1.1-1.7,2.2a10.1,10.1,0,0,1-2.6.4c-.3.2,0,.2.3.2a21.7,21.7,0,0,1-2.4.7v.2c0,.1-.1.2-.3.2s-2.6-1.3-2.8,0l-.7-1c-1.9-.5-2.4-.9-4.1-2.7s-.6.6-1.8-4.6a12.3,12.3,0,0,1,.5-5,45.7,45.7,0,0,1,2.2-5.8c.6-1,1.2-2.5,2.2-4.1s1.2-1.5,1.7-2.4,1.1-1.5,2.4-2.3,1.9-.6,1.7-1.3h-.1c0,.1.1.2.3.2s-.2-.2.4-.2,1.2.6,1.8.8,0,1.2.4,1.2,0-.2.5-.2.5.3.8.6c0,2.7,1.3,1.3,1.3,3a54.4,54.4,0,0,1-1.3,5.3,28.5,28.5,0,0,1-3,4.3c-1.8,2.3-5.6,6-5.6,6.6s1.2,1.3,2,1.6a4.1,4.1,0,0,0,1.9.2c.7,0,1.2-.6,2.3-.2l4.6-1.4a1,1,0,0,0,.7.2C1042.1,684.1,1041.7,684.6,1041.2,684.7Zm-9-11.3a27.5,27.5,0,0,0-1.3,2.6l-.4,1.7a43.9,43.9,0,0,0,2.8-3.6,12.6,12.6,0,0,0,2.9-5.8C1034.4,669.3,1033.8,670.6,1032.2,673.4Z"/><path class="e" d="M1070.5,682.9c-.2.2.1.5,0,.6l-.5.6h.4c-.1.1-.2.2-.2.1s-.1.8-.6,1.1,0,.7.3,1.1-.9.6-.9,1.1-1.5,1-2,1.6-1,1.1-1.2,1.4a20.1,20.1,0,0,1-2.6-.1c-.7,0-3.8-1.6-4-2.2a19.2,19.2,0,0,1-2.1-6.1,44.8,44.8,0,0,1-.4-5.7c-.2,0,.1-.2-.1-.3-1.8,2-3.9,5-5.7,7.1-.1.1-.1.2,0,.5a16.7,16.7,0,0,1-2.1,3.3,12.2,12.2,0,0,1-2.3,2.3c-.5,0-.8-.7-1.1-.6s.1.2-.4.2-1.9-3.1-2.1-3.3a1.8,1.8,0,0,1-.7-1.2c0-.3.5-2.5.6-3.8a11.9,11.9,0,0,0,.8-2c.3-.9.2-2.1.5-3.1,1.2-3.6,3-8.8,4.8-13.4,0-.2-.1-.8-.1-1.3a6.2,6.2,0,0,1,1.9-1.5l1.1,1.5a1.1,1.1,0,0,0,.2-1.1,6.1,6.1,0,0,0,1.6.9c0,.3-.2.7,0,1.1h.1c.2,0,.1-.1.4-.2v.8c0,.4-.4.9-.6,1.4s-.3,2.8-.5,4.1a1.5,1.5,0,0,1-.4,1,5.5,5.5,0,0,0-.4,2.8c1-1,2.5-3.6,3.8-4.1s1.3-.1,2.1-.6l.8,1c.3-.2.4-.4.9-.4s1.2.8,1.7,1.3h0c0,.1-.1.1-.2.2s.4.3.4.3c1.6,3,1.2,1.9,1.4,3.6s-.3,5.7-.1,8.3a14.7,14.7,0,0,0,.1,3.6,1.1,1.1,0,0,0,.8.1c1.1,0,3.4-1.8,4.5-2.2h0c-.2,0-.2,0-.2.1h.2c.5,0,1.5-1,2.4-1.5A3.3,3.3,0,0,0,1070.5,682.9Zm-10.4-14.5v-.3h-.5v.3Z"/><path class="e" d="M1092.6,667.5c0,.2.1.2.3.2s-.8.5-.1,1.1l-2.2,1c0,.3.2.3.5.5s-2,1.4-3.3,1.7-1.1,1.5-1.5,1.5,0-.1-.2-.3-.3.2-.3.6a37.4,37.4,0,0,0-4.5,1.4c-.2.1,0,.2,0,.4s0-.1-.5-.1a16.6,16.6,0,0,0-3,1l-.5.8c-.6,0-1.4.7-1.9,1-.5,2.2-1.2,6.3-1.2,6.7s.6,2.9.6,3.3-.7.9-.7,1.5H1073c-.4,0-.5-.8-.8-1.1-2-1.8-1.7-3.4-1.9-5s.2-3.5.2-6.7c0-.5-1.8-2.6-1.8-3s.3-1.6.3-2.6a.9.9,0,0,0,.3-.5l.8-.2c.5,0,.1.2.6.2s.8-.6.9-1c.7-2,1.5-8.1,2.2-10.9s1.7-5.7,2.5-8.7a40.8,40.8,0,0,1,1.4-4.8c.4-1.3.5-3.4,1.8-4.3l1.1-.4c.5,0,1,1,1.4,1h.6v.3c0,.6,1.2,2.6,1.2,3.2a8.3,8.3,0,0,1-.8,2.7,2.3,2.3,0,0,1,.2,1.1c-1.3,4.4-2.6,8.7-3.9,12.8-.3,1.8-.8,3.8-1.3,5.7v.3c.4.3.7.2,1.3.2a2.4,2.4,0,0,1,1.3-.2c.5,0,.1.3.6.3a12.4,12.4,0,0,0,1.6-.4c3-.5,6.2-.8,10.3-1.1C1093.1,667.1,1092.8,667.2,1092.6,667.5Z"/><path class="e" d="M1127,654.8a6.4,6.4,0,0,0-.6,1.2c-.2,0-.3-.2-.5-.4l-.6.6h.1c0-.1,0-.1.1-.2h0c0-.1,0-.1-.1-.2a3.1,3.1,0,0,0-1.1.8c0-.3,0-.5-.1-.6a7.1,7.1,0,0,1-1.5-1.5l-.2-.4c.1-.3,0-.8.2-1.1h-.1a.2.2,0,0,1-.2-.2,3.4,3.4,0,0,1,.1-1.4c.1-.1.2.1.3-.1l.2-.4c-.1-.1.1.2.1-.3s-.8-4.1-1.7-4.7a6.6,6.6,0,0,0-2.2-1.3c-.5,0,0,.1-.4.1s-.4-.3-.7-.4h-.6c-.7,0-3.6,2-3.8,2.4a10.8,10.8,0,0,0-1.3,2.9,2.8,2.8,0,0,0-.3,1.3,12.4,12.4,0,0,0,.3,3c0,.3.5.8.6,1.3s.1,2.4.8,3.5l1.5,4.7c0,.2.3.4.5.7,1,3,1.5,5.1,3.1,8.9a29.4,29.4,0,0,1,1.7,9,20.5,20.5,0,0,1-.5,3.1c-.1.2.2.6,0,.9a5.7,5.7,0,0,1-2.1,2.7l-1,1.1h-.6a8.6,8.6,0,0,1-3.5.9h-1.4c-.5,0-2.9-1.1-3.4-1.1s.1.2-.3.2-.9-.8-1.1-1.1-2.2-1.2-3.2-2.3-2.5-3.1-2.8-4.4-.6-1.3-1.1-2.1.4-.4.2-.6l-.4-.5c.3-.5-.1-1.6-.1-2.2s-.4-.4-.4-.8.2-.4.2-.7.2.3.5.5a4.9,4.9,0,0,1,0-2.1c.1,0,.2.2.4.5a3.4,3.4,0,0,0-.3-2.2c.3,0,0-.3.4-.3s.1.1.4.1.3-.8.3-1.3-.3.9-.1,1.4.2.1.3.2-.1,1.3.6,1.3a8.3,8.3,0,0,0,.4,1.5l.3-.4c0,1.8.9,4.7,1.7,5.4s.9,1.9,1.4,1.9,0-.1,0-.3,4.8,2.7,6.7,2.7h.8l.3.3c.2-.2,1-.4,1.3-.6a4.5,4.5,0,0,0,1.5-1.8,4.9,4.9,0,0,0,.1-1.7c0-.4-.1-.2-.1-.3a4.9,4.9,0,0,0,0-1.7,105.9,105.9,0,0,0-4.9-13c0-.4-3.7-11.1-3.7-14.2a11.3,11.3,0,0,1,.1-1.4,11.7,11.7,0,0,1,.3-2.2,19.9,19.9,0,0,1,1.9-4.5c0-.2-.2-.1-.2-.4s1.1-.9,1.4-.9-.1.3.2.3,1.7-1.4,2.3-1.4l4.1-.3,3.2,1.1a5.4,5.4,0,0,0,2.3,1c2.9.4,4.4,7.7,4.4,10.2A16.7,16.7,0,0,1,1127,654.8Z"/><path class="e" d="M1135,687.9c-.2.2-.3.7-.5,1a8,8,0,0,1-4,1.4c-2,0-3.1-1.3-4.4-2.3s-.7-2-1.5-2a16.6,16.6,0,0,1-.5-2.6c0-2.8,2.5-8.2,3.1-9.1s.1-.8.3-1.1a11.4,11.4,0,0,0,1.5-2.3l.6-.2c.2-.1.1-.4.4-.8s1.1-.9,1.6-1.5.1-.8.4-1.3-.6-.3-.9.2,0-.4-.1-.4-.2.2-.2.5-.1-.5-.5-.5h.2l.2-.2c-.3-2.5,4.1-3.3,4.8-4.1.4.8.9.3,1.6.6l2,2a.3.3,0,0,1,.1.2l.3.5c.2.1.5,0,.7.2,2,2.8,3.3,5.3,3.3,8.1C1143.5,679,1139.8,683.8,1135,687.9Zm2.4-18.2c-.8,1.4-2.2,3.1-2.8,4.1a66,66,0,0,0-4.1,8.3v.6c.8-.6,2.2-1.9,2.6-1.9s-.4.4.2.4,3.2-4.3,3.3-4.6a29.5,29.5,0,0,0,1.5-4.5A9,9,0,0,0,1137.4,669.7Zm-.8-.5v-1h-.3v1Z"/><path class="e" d="M1172.4,681.2a3.5,3.5,0,0,0-1,.9,3,3,0,0,0,.7,1,8.6,8.6,0,0,0-1,1.6c-.1.2-.1.4,0,.4l-1,1.1c.3.2.5.2.7-.1s0,.5-.5.5,0-.1-.2-.3-.2.5-.4.8a5.7,5.7,0,0,1-1.1,1,9.7,9.7,0,0,1-2.8,1.5,14.7,14.7,0,0,1-4.7-1.1,4.6,4.6,0,0,1-1.2-1.2c-.8-1.6-1.5-3.3-2.1-4.7a5.4,5.4,0,0,1,0-1.8,2.6,2.6,0,0,0-.3-1.1c-2.3,2.9-5.1,5.8-6.9,9.3a7.4,7.4,0,0,1-1.3.8h-.2l.2.2-2.1-.2c-.2-.6-1.1-1-1.7-1.6a4,4,0,0,1-1-1.5,7.1,7.1,0,0,1-.4-2.4c0-3,.7-4.9,1.3-7.8a5.7,5.7,0,0,0,1.1-2.2c0-.3-.2-.8-.2-1.2a4.2,4.2,0,0,1,1-1.2c.3-.3.3-1.1.5-1.7s.4-.2.5-.5-.1-.3,0-.5c1.3-2.4,2.2-6.5,5.2-6.5.4,0,.8.4,1.3.2s.7,1.1,1,1.6.2.5.2,1-1.7,4.4-2.6,6.7-1.3,2.5-1.8,3.7-1.3,2.8-2,4.4a1.2,1.2,0,0,0,.1.8,20,20,0,0,0-1,2.6v.5h.2c4.3-4.9,8.3-9.1,11-14.3.5-.9,1.2-2.2,1.9-3.2l1,.7c.3,0,.1-.3.1-.5s.3.5.7.5,0-.2.3-.2.6.9,1.9,1.3a5.9,5.9,0,0,1,.9,2.4c0,.3-1,1.9-1.3,2.8a24.4,24.4,0,0,0-1.5,4.8v.2l-.2.2c-.2,1.4-.5,3.5-.5,4.1s.1.5.5.5l.4.2,1.8-.4,2.3-.6a15.4,15.4,0,0,0,3.8-2Z"/><path class="e" d="M1189.7,671.2a12,12,0,0,0-2.7,0l-.4-1.9c-2.6,1-4.7,4.1-6.3,6.6a.3.3,0,0,0-.3-.3c-.2.4-.3.6-.1.8h-.2c-.2.2-.2.3-.2.3s.2.2.2.5h-.5c-.2,0-.2.1-.2.2s.2.4.2.4a22.9,22.9,0,0,1-1.5,2.4c0,.3.2.4.1.5a4.7,4.7,0,0,1-1.1,1.3,10.9,10.9,0,0,0-.5,1.7c-.9,1.7-1.7,3.9-1.1,5.7a2,2,0,0,1-1.3.4l-1.8-.7c-.3-.3,0-1.1-.7-.9-.5-1.4-1.1-2.4-1.1-3.4s1-4,1.2-5.7a60.1,60.1,0,0,0,1.2-7.4c.2-1.5.4-3.4.6-5.3s.3-2.7.6-3.9h.8a3.4,3.4,0,0,1,2.3,1.8,10.2,10.2,0,0,1,.7,2.9,19.9,19.9,0,0,1-.2,2.2c.6-1.6,4.2-4.3,6.3-4.3a8.8,8.8,0,0,1,6.2,2.9c.3.3.4.9.8,1.4S1189.4,670.6,1189.7,671.2Z"/><path class="e" d="M1208.6,679.2c-.5,0-.2-.3-.4,0s-.3.3.1.3.2-.1.4-.1-.6,1-.4,1.3-1.8,1.3-2.5,2a.3.3,0,0,0,.3.3v.6c-1.5.9-3.2,2.1-5.6,3.4-.2.3-.4.9-.7,1.1a19.6,19.6,0,0,1-5.6,1.6c-3.3,0-6.3-3.6-6.5-6.4v-1.7a23.1,23.1,0,0,1,.4-3.9,11.5,11.5,0,0,1,1.5-4.2,1.7,1.7,0,0,0,.1-.8,17.9,17.9,0,0,1,2.1-3.6,6.3,6.3,0,0,0,1.5-1.8v-.2c-.2.2-.3.3-.3.4s1.7-2.8,2.7-3.9,1-.4,1.5-.7.6-.7,1.1-.7a12.9,12.9,0,0,1,2.8.6,7.8,7.8,0,0,1,2.5,2.6,8.4,8.4,0,0,1,.6,2.4c0,.7-.7,4.5-1.4,4.9s-.5.2-1,.2-1.5-.8-1.8-1.7-.8-1.3-.6-2.1h-.2a44.6,44.6,0,0,0-5.4,8.8,49.2,49.2,0,0,0-1.7,5.6v.9a5.4,5.4,0,0,0,1.9.5,16.1,16.1,0,0,0,2.8-1.2,85.1,85.1,0,0,0,8.4-3.5l4.4-2.3C1209.3,678.2,1209.1,679.2,1208.6,679.2Z"/><path class="e" d="M1220.2,682.7a.7.7,0,0,1,.6.2c0,.4-.5.7-.8.9a2,2,0,0,0-.2,1.1,15.7,15.7,0,0,0-3.3,3c0,.2.1.7-.4.9a7.3,7.3,0,0,1-2.6.9c-4.4.3-6.7-5.1-6.9-8a24.7,24.7,0,0,1,.5-4.3l.7-2.7a29.5,29.5,0,0,1,2.2-6.9v-.9c.3-.2.4-.7.8-1.1a8.3,8.3,0,0,0,1.5-.4,4.5,4.5,0,0,1,2.6,1.1,3.4,3.4,0,0,1,1.6,2.3c0,.3-.3.7-.4,1.3a26.7,26.7,0,0,0-.6,3.5,7.6,7.6,0,0,1-1,3.3c-.2.6-.4,1.8-.6,2.4-.8,2.7-1.3,3.5-.9,5.1a30,30,0,0,0,8.3-6C1220.4,679.2,1221.6,681.4,1220.2,682.7Zm-3-23.4a6.1,6.1,0,0,1-2.6-.8.6.6,0,0,0-.2-.5c-.9-.5-1.5-2.1-1.8-3.2s-.1-1.6-.4-2.2c2.9.2,3.2-.5,4.8-.7a7.9,7.9,0,0,1,1.3,1.3c.3.3-.1,1.3.6,2C1217.8,656.8,1220.4,659.1,1217.2,659.3Z"/><path class="e" d="M1247.7,682.9c-.2.2.1.5,0,.6a3.4,3.4,0,0,0-.6.6h.5c-.1.1-.2.2-.3.1s0,.8-.5,1.1,0,.7.3,1.1-.9.6-.9,1.1-1.5,1-2,1.6-1,1.1-1.2,1.4a18.6,18.6,0,0,1-2.6-.1c-.7,0-3.8-1.6-4-2.2a17,17,0,0,1-2.1-6.1,24.6,24.6,0,0,1-.4-5.7c-.2,0,0-.2-.1-.3-1.8,2-3.9,5-5.7,7.1-.1.1-.1.2,0,.5a16.7,16.7,0,0,1-2.1,3.3,12.2,12.2,0,0,1-2.3,2.3c-.5,0-.8-.7-1.1-.6s0,.2-.4.2-1.9-3.1-2.2-3.3a2.2,2.2,0,0,1-.6-1.2c0-.3.5-2.5.6-3.8a11.9,11.9,0,0,0,.8-2c.3-.9.2-2.1.5-3.1,1.2-3.6,3-8.8,4.8-13.4,0-.2-.1-.8-.1-1.3a7.5,7.5,0,0,1,1.8-1.5l1.2,1.5a1.1,1.1,0,0,0,.2-1.1,6.1,6.1,0,0,0,1.6.9c0,.3-.2.7,0,1.1h.1l.4-.2v.8c.1.4-.3.9-.5,1.4s-.3,2.8-.6,4.1a2.4,2.4,0,0,1-.3,1,5.5,5.5,0,0,0-.4,2.8c.9-1,2.5-3.6,3.8-4.1s1.3-.1,2.1-.6l.8,1c.3-.2.4-.4.9-.4s1.1.8,1.7,1.3h0c0,.1-.1.1-.2.2s.4.3.4.3c1.6,3,1.2,1.9,1.4,3.6s-.3,5.7-.1,8.3a14.7,14.7,0,0,0,.1,3.6,1.1,1.1,0,0,0,.8.1c1.1,0,3.4-1.8,4.5-2.2h-.1c-.1,0-.1,0-.1.1h.2c.5,0,1.4-1,2.4-1.5A3.3,3.3,0,0,0,1247.7,682.9Zm-10.4-14.5v-.3h-.5v.3Z"/><path class="e" d="M1269,673.9c-2.2,10.9-2.8,15.2-4.6,21.7-.5,2.3-.9,5.7-1.9,8.3s-2.2,5.3-2.9,7.8c0,.5-.6.7-.8,1s-.8,2.6-1.5,3.4a31.5,31.5,0,0,1-2.5,2.8,3.5,3.5,0,0,1-1.8,1.1l-1.3.2a11.1,11.1,0,0,1-2.3-.2c-.2-.1,0-.2-.2-.4a7.7,7.7,0,0,1-2.4-1.2l-2.2-2.1c-.2-.2-.2-.7-.5-1.1s-2.7-4.1-2.7-5.2l-.3-5.4c0-.2.6-2,.8-2.8l.3.4c.1-.2.5-.8.1-1.1s1.5-2.6,2.3-3.7a7.8,7.8,0,0,1,1.6-1.5c-.6.5-.6,1.1-1.1,2h.2c.2,0,.3-.2.5-.6s.4,0,.4.4-1.5,2.5-1.7,3.5h0a.1.1,0,0,0,.1.1,1.4,1.4,0,0,0,.5-.9c0,.6-.5,1.3-.6,1.9l-.3-.3h0q-.2.3.3.6c0,.1-.2.3-.3.5s-.4,2.8-.3,3.3.3,1.9.5,2.9,2.8,6.5,3.8,6.5.4.1.8.1a4.5,4.5,0,0,0,1.7-.4c.5-.1,1.1-1.6,1.6-2.2a14.1,14.1,0,0,0,3.3-5.6l.5-1.4c3.7-8.4,5.3-21.4,6.3-27.9-.2-.2.3-.8.3-1.1v-.2c-.3.2-.5.7-1,1.2a1.7,1.7,0,0,0,.3-1c-1.1,1.5-2.5,3-3,3.9a1.5,1.5,0,0,0-.2.9,28.5,28.5,0,0,1-4.2,4.9c-.5.7-1.7,1.8-2.4,2.6a4.3,4.3,0,0,1,.1.5l-1.5.5a9.2,9.2,0,0,1-2.7-.9,5.7,5.7,0,0,0-.8-.9v-.4c-1-1.1-.7-1.5-.9-2.6,0-3.3,2.6-8.3,4.2-10.7,4.9-6.9,7.1-12.5,12.8-12.8.3,0,1,1.3,1.5,1.7a.9.9,0,0,0,.2,1.1,31.8,31.8,0,0,0,3.2,1.6c0,.3,1.3,1.4,1.4,2.5A33.7,33.7,0,0,1,1269,673.9Zm-6.9-4.1c-.2,0-.1.3-.4.5s-.3-.3-.5-.2v-.8l-.2.3a1.1,1.1,0,0,1-.1-1.1,17.2,17.2,0,0,0-2.4,3.4,16.9,16.9,0,0,1-2,2.8c-1.3,2.6-2.8,6-3.9,8.4,1.7-1.8,3.7-4.1,5-5.6s4.6-6,4.6-7.2Zm-2.2,11-.7.8v-.2l.7-.7Zm1.7-2-1.3,1.7-.2-.2,1.3-1.5Zm.5-1.3c.5-.2,1-.4,1-1.1S1262.4,677.3,1262.1,677.5Z"/><path class="e" d="M1030.1,751l-1.5.3a10.6,10.6,0,0,0-.6,1.9c-.3.5-.1.8.1,1.3s-.3.1-.4.3c-.2,2.1.1,5-.4,7.3s.5,3.9-.8,6.7a4.5,4.5,0,0,0-.3,1.6c-.2,0-.2.2-.4.2s-.6.2-.6.5a17.2,17.2,0,0,0-1.9-.9c-1.6-2.4-.9-4.7-.9-7.2a10.5,10.5,0,0,1,.1-2.5v-8.4h-2.4a45.9,45.9,0,0,0-6.7,1.8c-.9,1.8-1.7,4-3,6.3a3.5,3.5,0,0,0-.9,1.1,14.2,14.2,0,0,0-1.1,3.3c-.3,0-.2-.3-.4-.5a1.7,1.7,0,0,0-.3,1c-.2,0-.2.2-.4-.1l-.4.4c-.2-.4-.7-.4-1.2-.8s-.7-1.1-.7-1.6a18.9,18.9,0,0,1,1.4-4.6q.6-1.6,1.5-3.6l-3.1-2a15.5,15.5,0,0,1-1.5-2.8c0-.3.6-.8.8-1.1a1.1,1.1,0,0,0,.8.3,9.2,9.2,0,0,0,2.9-.9,7.2,7.2,0,0,0,3.2-.5c2.8-5.9,5.4-12.6,8.2-18,.6-1.2,1.6-3.2,3-5.8s2-2.6,3-4.3a5.9,5.9,0,0,0,.4-2.3h.1l.3-.2,1.1.2c.2,0,.4.2.7,0s.1.5.6.5-.1-.1.3-.1a3.2,3.2,0,0,1,1.6,1.8,15.2,15.2,0,0,1,.5,4.8c0,.2-.2,1.4-.3,2s.2,1.4.1,2.3c-.5,3.6-.9,7.2-1.1,10.9l-1,7.5h.7a31.4,31.4,0,0,0,5.3.3c0,.2.1.5.3.5l-.3.4a2.1,2.1,0,0,0,.9,1Zm-6.3-18.1c-2.8,4.4-4.7,10-6.8,14.3,1.6,0,3.1.6,5.7.1Z"/><path class="e" d="M1053.1,747.5a8,8,0,0,0-2.7,0c-.1-.5-.1-1.1-.3-1.9-2.6,1-4.8,4-6.4,6.6,0-.2-.1-.4-.3-.4s-.2.7-.1.8h-.2c-.1.2-.2.2-.2.2s.2.3.2.6h-.7c-.2.3.3.4.3.5l-1.6,2.4c0,.2.2.4.1.4a3.6,3.6,0,0,1-1.1,1.4c-.3.5-.2,1.1-.5,1.6s-1.7,3.9-1.1,5.7a1.9,1.9,0,0,1-1.2.4,7.6,7.6,0,0,1-1.9-.7c-.2-.2,0-1.1-.7-.9-.4-1.4-1.1-2.3-1.1-3.4a57.5,57.5,0,0,0,1.2-5.7,44.5,44.5,0,0,0,1.2-7.3c.2-1.5.5-3.5.7-5.4a28.5,28.5,0,0,1,.6-3.9h.7a3.3,3.3,0,0,1,2.4,1.9,8.8,8.8,0,0,1,.6,2.8c.1.7-.2,1.3-.2,2.3.7-1.6,4.3-4.4,6.3-4.4a8.9,8.9,0,0,1,6.3,3c.2.3.4.9.7,1.4S1052.9,746.9,1053.1,747.5Z"/><path class="e" d="M1072,755.4c-.4,0-.2-.2-.4,0s-.2.3.1.3h.5c-.3.2-.6.9-.4,1.2l-2.6,2.1c0,.2.2.2.4.2v.7c-1.6.8-3.3,2-5.6,3.4-.3.2-.5.8-.8,1.1a19,19,0,0,1-5.5,1.5c-3.4,0-6.3-3.5-6.5-6.4,0-.5-.1-1.2-.1-1.6a15.9,15.9,0,0,1,.5-3.9,11.5,11.5,0,0,1,1.4-4.2c.2-.1.1-.6.2-.9a16.2,16.2,0,0,1,2.1-3.6,6.1,6.1,0,0,0,1.5-1.7c0-.1,0-.1-.1-.2s-.3.2-.3.3a41.4,41.4,0,0,1,2.8-3.9c.2-.4.9-.4,1.5-.6s.5-.8,1.1-.8a13.5,13.5,0,0,1,2.7.7,7.5,7.5,0,0,1,2.5,2.5,6.8,6.8,0,0,1,.7,2.5c0,.7-.7,4.5-1.4,4.9l-1,.2c-1.1,0-1.6-.8-1.8-1.8s-.9-1.3-.6-2h-.2a48,48,0,0,0-5.4,8.9,34.1,34.1,0,0,0-1.8,5.6v.9l1.9.4c.3,0,1.8-.7,2.9-1.1s5.3-2,8.4-3.5a32.3,32.3,0,0,1,4.4-2.4C1072.8,754.4,1072.6,755.4,1072,755.4Z"/><path class="e" d="M1096,760.3h0c0,.1.1.1.2.1s1.1-.2,1.6-.5-.7,1.3-1.1,1.7-1,.4-1.3.9-.2.9-.4,1.2-.9,1-1.8,1.7l.4.2c-.6.3-1.8,1.2-2.3,1.2l-2.3-.2a23.6,23.6,0,0,1-2.5-1.5,10.1,10.1,0,0,0-.7-1.5,10.8,10.8,0,0,0-1.1-1.8,20.7,20.7,0,0,1-.8-4.2,30.2,30.2,0,0,1,.2-4.2v-.9a15.5,15.5,0,0,0-4.9,5.9,25.2,25.2,0,0,1-4.7,6.3h0c0,.1,0,.1.2.1s0-.1-.5-.1a4.4,4.4,0,0,0-1.5.8,11.8,11.8,0,0,0-1.1-1.9c-.4-.5-.4-1.3-1-1.9s-.3-2.4-.3-2.9a25.7,25.7,0,0,1,.5-4.4,34.3,34.3,0,0,1,1.1-5.3c.9-2.8,1.9-5.2,1.9-5.3a9.5,9.5,0,0,1,.5-1.8l.4-.5a25.4,25.4,0,0,1,1.9-5.9,1.1,1.1,0,0,0-.1-1c.8-2.6,2.8-7.1,3.8-9.8s1.3-3.2,3-3.2,1.2.5,1.7.5a.7.7,0,0,0,.3.4,7.3,7.3,0,0,1,.2,5.8l-9.2,24.9c.6,0,1.2-1.1,1.6-1.6s1.6-1.4,2.2-2,4.6-5.3,5.2-5.3.6.7.9.7a7.6,7.6,0,0,1,2.1.3,5.4,5.4,0,0,1,2.7,5.1l-1.1,9.1a3.3,3.3,0,0,0,.4,1.8c.8-.3.6,0,1.1,0s3.8-1.8,5-2a4.7,4.7,0,0,0,1.9-.6Z"/><path class="e" d="M1109.5,758.9c.2.1.4,0,.6.3s-.5.7-.8.9a1.9,1.9,0,0,0-.1,1.1,13.8,13.8,0,0,0-3.4,3,.8.8,0,0,1-.4.9,6.8,6.8,0,0,1-2.6.8c-4.4.4-6.6-5.1-6.8-8a16.8,16.8,0,0,1,.4-4.2l.7-2.8a28.6,28.6,0,0,1,2.2-6.8v-.9c.3-.2.4-.7.8-1.2a8,8,0,0,0,1.5-.3,4.7,4.7,0,0,1,4.2,3.4c0,.3-.3.7-.4,1.2s-.4,2-.6,3.5a8.1,8.1,0,0,1-1,3.4c-.2.6-.4,1.8-.6,2.3-.7,2.7-1.3,3.6-.9,5.1a31.8,31.8,0,0,0,8.3-5.9C1109.7,755.4,1110.9,757.7,1109.5,758.9Zm-2.9-23.3a4.5,4.5,0,0,1-2.6-.9c-.1-.2,0-.2-.2-.4s-1.6-2.2-1.9-3.3-.1-1.6-.4-2.2c2.9.2,3.2-.5,4.9-.7s1,.9,1.2,1.4-.1,1.2.6,1.9C1107.1,733.1,1109.7,735.4,1106.6,735.6Z"/><path class="e" d="M1134.7,743.7a.3.3,0,0,0,.3.3c-.2.6-.8.4-.1,1a15.1,15.1,0,0,0-2.2,1.1c0,.2.2.3.5.5s-2,1.4-3.3,1.7-1.1,1.5-1.5,1.5.1-.2-.2-.4-.3.2-.3.6-2.9.9-4.4,1.4,0,.2,0,.4h-.6l-3,1-.5.8a6.2,6.2,0,0,0-1.9,1.1c-.5,2.1-1.2,6.2-1.2,6.7s.7,2.9.7,3.2-.8.9-.8,1.5h-1.1c-.4,0-.5-.7-.7-1-2.1-1.8-1.7-3.4-2-5.1s.3-3.5.2-6.7c0-.4-1.8-2.6-1.8-3s.3-1.6.3-2.6.3-.3.3-.4.5-.3.8-.3.1.2.6.2.8-.5.9-1,1.5-8,2.2-10.8,1.7-5.8,2.5-8.7a35.9,35.9,0,0,1,1.4-4.8c.5-1.3.5-3.5,1.8-4.3a2.1,2.1,0,0,1,1.1-.5c.6,0,1,1.1,1.5,1.1h.5v.3c0,.6,1.2,2.5,1.2,3.1a7.7,7.7,0,0,1-.8,2.7,2.6,2.6,0,0,1,.2,1.1q-2,6.8-3.9,12.9c-.3,1.7-.8,3.8-1.3,5.7v.3c.4.3.7.1,1.3.1l1.3-.2c.5,0,.1.4.6.4s1.1-.4,1.6-.4a85.7,85.7,0,0,1,10.3-1.1C1135.2,743.3,1135,743.5,1134.7,743.7Z"/><path class="e" d="M1144.5,761c0,.3.3.5.7.7s-.4.9-.7,1.5-1.7,1.2-1.7,2.2a6.6,6.6,0,0,1-2.5.4c-.3.2,0,.3.2.3s-1.6.6-2.4.7v.2s0,.1-.2.1-2.7-1.3-2.9,0l-.7-1c-1.9-.4-2.4-.9-4-2.6s-.6.6-1.8-4.6a9.5,9.5,0,0,1,.5-5,25.4,25.4,0,0,1,2.2-5.8,40.4,40.4,0,0,1,2.1-4.1,14.6,14.6,0,0,0,1.7-2.4c1-.9,1.1-1.5,2.4-2.3s2-.7,1.8-1.4-.1.1-.1.2,0,.2.2.2-.1-.2.4-.2a15.7,15.7,0,0,1,1.8.7c.2.6,0,1.3.5,1.3s0-.2.4-.2.6.3.8.6c0,2.7,1.3,1.3,1.3,3a46.9,46.9,0,0,1-1.2,5.2,28.8,28.8,0,0,1-3,4.4c-1.9,2.2-5.6,6-5.6,6.5s1.2,1.3,1.9,1.7a6.5,6.5,0,0,0,1.9.2c.7,0,1.3-.7,2.3-.2l4.7-1.5a.9.9,0,0,0,.6.3C1145.4,760.4,1145.1,760.8,1144.5,761Zm-9-11.3-1.3,2.5-.3,1.8c.9-1.3,1.9-2.4,2.7-3.7s2.6-3.1,2.9-5.7C1137.8,745.5,1137.2,746.8,1135.5,749.7Z"/><path class="e" d="M1166.6,755.4c-.4,0-.2-.2-.4,0s-.2.3.1.3h.4c-.2.2-.5.9-.3,1.2s-1.9,1.4-2.6,2.1.1.2.3.2v.7c-1.5.8-3.2,2-5.6,3.4-.2.2-.4.8-.7,1.1a18.9,18.9,0,0,1-5.6,1.5c-3.3,0-6.3-3.5-6.5-6.4v-1.6a21.3,21.3,0,0,1,.4-3.9,13.7,13.7,0,0,1,1.5-4.2c.2-.1.1-.6.2-.9a15.8,15.8,0,0,1,2-3.6,4.9,4.9,0,0,0,1.5-1.7v-.2c-.2.2-.3.2-.3.3s1.7-2.8,2.7-3.9,1-.4,1.5-.6.6-.8,1.1-.8a12.6,12.6,0,0,1,2.8.7,7.5,7.5,0,0,1,2.5,2.5,9.5,9.5,0,0,1,.7,2.5c0,.7-.8,4.5-1.5,4.9a2.2,2.2,0,0,1-1,.2c-1,0-1.5-.8-1.8-1.8s-.8-1.3-.6-2h-.2a46.9,46.9,0,0,0-5.3,8.9,34.1,34.1,0,0,0-1.8,5.6v.9l1.9.4a24.9,24.9,0,0,0,2.8-1.1c2.4-1,5.4-2,8.4-3.5a42.8,42.8,0,0,1,4.5-2.4C1167.3,754.4,1167.1,755.4,1166.6,755.4Z"/><path class="e" d="M1189.6,743.7a.3.3,0,0,0,.3.3c-.1.6-.8.4-.1,1l-2.2,1.1c0,.2.3.3.5.5s-2,1.4-3.3,1.7-1,1.5-1.5,1.5.1-.2-.2-.4-.2.2-.2.6-3,.9-4.5,1.4,0,.2,0,.4h-.5a20.4,20.4,0,0,0-3,1l-.6.8a5.8,5.8,0,0,0-1.8,1.1,52.8,52.8,0,0,0-1.3,6.7c0,.4.7,2.9.7,3.2s-.8.9-.8,1.5h-1c-.5,0-.6-.7-.8-1-2-1.8-1.7-3.4-2-5.1s.3-3.5.2-6.7c0-.4-1.8-2.6-1.8-3s.3-1.6.3-2.6.3-.3.3-.4.5-.3.8-.3.1.2.6.2a1.2,1.2,0,0,0,.9-1c.7-1.9,1.5-8,2.2-10.8s1.7-5.8,2.5-8.7a35.9,35.9,0,0,1,1.4-4.8c.5-1.3.6-3.5,1.9-4.3a1.8,1.8,0,0,1,1.1-.5c.5,0,.9,1.1,1.4,1.1h.5v.3c0,.6,1.2,2.5,1.2,3.1a9.7,9.7,0,0,1-.7,2.7,6.5,6.5,0,0,1,.2,1.1c-1.3,4.5-2.7,8.8-4,12.9-.3,1.7-.8,3.8-1.3,5.7v.3c.5.3.7.1,1.3.1l1.4-.2c.4,0,0,.4.5.4s1.1-.4,1.7-.4a81.7,81.7,0,0,1,10.2-1.1C1190.1,743.3,1189.9,743.5,1189.6,743.7Z"/><path class="e" d="M1211.6,757.4l-1.1.9c.3.4.4.8.8,1.1a7.8,7.8,0,0,0-1,1.5.4.4,0,0,0,0,.5,4.6,4.6,0,0,1-1,1,.4.4,0,0,0,.7,0c0,.2,0,.5-.5.5s-.1-.1-.3-.3-.1.5-.3.7a3.8,3.8,0,0,1-1.1,1.1,9.7,9.7,0,0,1-2.8,1.5,14.1,14.1,0,0,1-4.7-1.1,5.3,5.3,0,0,1-1.3-1.3c-.7-1.5-1.4-3.3-2-4.6a6.1,6.1,0,0,1,0-1.9,1.9,1.9,0,0,0-.3-1c-2.3,2.9-5.1,5.7-7,9.3l-1.3.8h-.1a.2.2,0,0,0,.2.2l-2.1-.2c-.2-.5-1.1-.9-1.7-1.5a4.4,4.4,0,0,1-1-1.6,6.8,6.8,0,0,1-.5-2.3c0-3.1.8-4.9,1.3-7.8a5.3,5.3,0,0,0,1.2-2.2c0-.4-.2-.9-.2-1.2a3.2,3.2,0,0,1,1-1.2,6.9,6.9,0,0,0,.5-1.7c0-.3.3-.3.5-.5s-.1-.3,0-.6c1.3-2.4,2.2-6.5,5.2-6.5.4,0,.8.4,1.3.2s.7,1.1,1,1.7a6.4,6.4,0,0,1,.2.9c0,1.7-1.7,4.4-2.7,6.7l-1.7,3.8c-.5,1.3-1.3,2.7-2,4.3a1.2,1.2,0,0,0,.1.8,16.9,16.9,0,0,0-1,2.7v.4h.2c4.3-4.9,8.3-9.1,11-14.3.5-.8,1.2-2.2,1.9-3.1l1,.7c.3,0,.1-.3.1-.5s.3.5.7.5,0-.2.3-.2.6.9,1.9,1.2a6.9,6.9,0,0,1,.9,2.5c0,.2-1,1.8-1.3,2.8a22.5,22.5,0,0,0-1.5,4.8h-.1l-.2.3c-.2,1.3-.5,3.5-.5,4s.1.5.5.6h.4l1.8-.3,2.3-.6a15.8,15.8,0,0,0,3.8-2.1Z"/><path class="e" d="M1228.9,747.5a8.5,8.5,0,0,0-2.8,0,8.1,8.1,0,0,0-.3-1.9c-2.6,1-4.7,4-6.3,6.6,0-.2-.1-.4-.3-.4s-.3.7-.1.8-.2,0-.2.1l-.2.2c-.1.2.2.3.2.6h-.6a.1.1,0,0,0-.1.1c-.2.3.2.4.2.5l-1.5,2.4a1,1,0,0,0,.1.4,7.6,7.6,0,0,1-1.1,1.4,9.8,9.8,0,0,0-.5,1.6c-.9,1.8-1.7,3.9-1.1,5.7a2,2,0,0,1-1.3.4l-1.8-.7c-.3-.2,0-1.1-.7-.9-.5-1.4-1.1-2.3-1.1-3.4s1-3.9,1.1-5.7a44.6,44.6,0,0,0,1.3-7.3c.2-1.5.4-3.5.6-5.4s.3-2.6.6-3.9h.8a3.3,3.3,0,0,1,2.3,1.9,8.9,8.9,0,0,1,.7,2.8c.1.7-.2,1.3-.2,2.3.6-1.6,4.2-4.4,6.3-4.4a8.7,8.7,0,0,1,6.2,3c.3.3.4.9.8,1.4S1228.6,746.9,1228.9,747.5Z"/><path class="e" d="M1243,761c0,.3.2.5.7.7a4.2,4.2,0,0,0-.7,1.5c-1.1-.2-1.7,1.2-1.7,2.2a6.9,6.9,0,0,1-2.5.4c-.4.2,0,.3.2.3a21.7,21.7,0,0,0-2.4.7v.2h-.2c-.8,0-2.7-1.3-2.9,0l-.7-1c-1.9-.4-2.4-.9-4.1-2.6s-.5.6-1.8-4.6a12.3,12.3,0,0,1,.5-5,32.7,32.7,0,0,1,2.3-5.8,26.7,26.7,0,0,1,2.1-4.1,24.9,24.9,0,0,0,1.7-2.4c1-.9,1.1-1.5,2.4-2.3s1.9-.7,1.8-1.4-.2.1-.2.2.1.2.3.2-.1-.2.4-.2a15.7,15.7,0,0,1,1.8.7c.2.6,0,1.3.4,1.3s0-.2.5-.2.5.3.8.6c0,2.7,1.3,1.3,1.3,3a34.6,34.6,0,0,1-1.3,5.2,27.4,27.4,0,0,1-2.9,4.4c-1.9,2.2-5.6,6-5.6,6.5s1.1,1.3,1.9,1.7a6.2,6.2,0,0,0,1.9.2c.7,0,1.2-.7,2.3-.2l4.7-1.5a.9.9,0,0,0,.6.3C1243.9,760.4,1243.6,760.8,1243,761Zm-9-11.3c-.8,1.4-1.2,2.3-1.3,2.5l-.4,1.8a45,45,0,0,0,2.8-3.7c1-1.3,2.6-3.1,2.9-5.7C1236.2,745.5,1235.6,746.8,1234,749.7Z"/></svg>